<svg width="42" height="41" viewBox="0 0 42 41" fill="none" xmlns="http://www.w3.org/2000/svg">
<path d="M23.1607 0.502519L23.1586 0.502527L18.8412 0.500472L18.8403 0.500472C17.3132 0.496871 15.7861 0.513904 14.2595 0.551563C14.2594 0.551563 14.2594 0.551564 14.2594 0.551564C14.2593 0.551566 14.2593 0.551567 14.2592 0.551569L13.8561 0.561712L12.3673 0.622944C12.3669 0.622962 12.3665 0.622979 12.3661 0.622997C10.176 0.723466 8.70667 1.0591 7.42261 1.5444L7.4186 1.54591L7.41859 1.54589C6.08488 2.03693 4.87803 2.80598 3.88196 3.79853L3.87425 3.80621L3.87417 3.80613C2.85599 4.7775 2.06909 5.95411 1.56804 7.25272L1.56636 7.25706L1.56634 7.25706C1.0704 8.50757 0.727263 9.93863 0.624551 12.0735C0.59934 12.619 0.578465 13.0716 0.561774 13.5278L0.561767 13.528L0.547183 13.9226C0.510696 15.4116 0.49537 16.901 0.501208 18.3905L0.501215 18.3924L0.501212 22.6071V22.6083C0.497504 24.0995 0.514948 25.5906 0.553535 27.0812C0.553536 27.0812 0.553537 27.0813 0.553538 27.0813C0.553539 27.0814 0.55354 27.0814 0.553542 27.0815L0.563956 27.4759C0.582476 27.9599 0.603366 28.4438 0.626627 28.9276L23.1607 0.502519ZM23.1607 0.502519C24.6876 0.496799 26.2144 0.511766 27.7408 0.547415L28.1453 0.56166L28.1454 0.561667C28.599 0.577481 29.047 0.597137 29.5856 0.620773L29.6351 0.622943C29.6352 0.62295 29.6354 0.622957 29.6355 0.622964C31.824 0.723398 33.2955 1.05908 34.5774 1.54431L34.5786 1.54474C35.9032 2.04241 37.0108 2.71128 38.1262 3.8001L38.1293 3.80311C39.1444 4.77702 39.9293 5.9543 40.4301 7.25268L40.4319 7.25731C40.9277 8.50542 41.2709 9.9404 41.3736 12.0733C41.3988 12.6184 41.4197 13.0706 41.4364 13.5265C41.4364 13.5269 41.4364 13.5274 41.4364 13.5278L41.4488 13.9197C41.4488 13.9202 41.4488 13.9208 41.4489 13.9213C41.486 15.4108 41.5021 16.9008 41.497 18.3907L41.497 18.3931L41.4991 19.9217V19.9224L41.4991 22.6071L41.4991 22.6088C41.5042 24.0995 41.4882 25.5901 41.451 27.0804C41.4509 27.0809 41.4509 27.0814 41.4509 27.0819L41.4385 27.4738C41.4385 27.4742 41.4385 27.4746 41.4385 27.4751C41.4223 27.9168 41.4022 28.3532 41.378 28.8778L41.3757 28.9276C41.3757 28.9278 41.3757 28.9281 41.3757 28.9283C41.273 31.0602 40.9259 32.4935 40.4317 33.7429L40.4317 33.7429L40.4299 33.7476C39.9308 35.047 39.146 36.2249 38.1296 37.1982L38.1296 37.1981L38.1232 37.2044C37.1247 38.1953 35.9164 38.9631 34.5819 39.4535L34.5774 39.4552C33.2957 39.9404 31.8243 40.2761 29.6361 40.3766L29.6351 40.3766L29.5876 40.3787C29.0486 40.4023 28.6004 40.422 28.1467 40.4378C28.1463 40.4379 28.1459 40.4379 28.1454 40.4379L27.7436 40.45C27.7431 40.45 27.7427 40.45 27.7422 40.4501C26.2153 40.4864 24.6879 40.502 23.1605 40.497L23.1582 40.497L21.5923 40.4991H21.5917L18.8435 40.4991L18.8419 40.4991C17.3145 40.5041 15.7871 40.4884 14.2601 40.4521M23.1607 0.502519L14.2588 40.4521M7.24584 39.9229C8.58557 40.4271 10.1101 40.7756 12.3444 40.8781C12.8426 40.9015 13.341 40.922 13.8395 40.9396M7.24584 39.9229L13.8395 40.9396M7.24584 39.9229C5.84455 39.409 4.57528 38.6023 3.52693 37.5593L7.24584 39.9229ZM13.8395 40.9396L13.8572 40.4399C13.8568 40.4399 13.8565 40.4399 13.8561 40.4399L13.8546 40.4399L13.8395 40.9396ZM14.2588 40.4521L14.2469 40.9519L14.262 40.4522L14.2601 40.4521M14.2588 40.4521C14.2592 40.4521 14.2596 40.4521 14.2601 40.4521M14.2588 40.4521L14.2601 40.4521M0.127205 28.9516L0.626628 28.9276L0.127205 28.9516ZM16.897 16.509C17.9135 15.5166 19.2711 14.9292 20.7043 14.8574L21.0091 14.852C21.7812 14.8381 22.5481 14.9745 23.265 15.2531C23.9818 15.5317 24.6338 15.9466 25.1832 16.473C25.7326 16.9994 26.1683 17.6267 26.4655 18.318C26.7628 19.0093 26.9157 19.7509 26.9159 20.4998C26.916 21.2487 26.7633 21.9905 26.4663 22.6818C26.1693 23.3732 25.7338 24.0006 25.1846 24.5272C24.6354 25.0539 23.9835 25.469 23.2668 25.7478C22.55 26.0266 21.7831 26.1633 21.0111 26.1496L21.0111 26.1496H21.0022C19.4602 26.1496 17.9837 25.5515 16.897 24.4905C15.8106 23.43 15.2026 21.9943 15.2026 20.4998C15.2026 19.0053 15.8106 17.5695 16.897 16.509ZM31.5246 6.67318V6.73316C30.9025 6.85345 30.3273 7.15748 29.8804 7.61162L30.2367 7.96234L29.8804 7.61162C29.3198 8.18118 29.0047 8.94284 29.0047 9.73764C29.0047 10.5324 29.3198 11.2941 29.8804 11.8637C30.4406 12.4329 31.2022 12.7663 32.0051 12.7976L32.0148 12.798H32.0246C32.8495 12.798 33.643 12.4782 34.2299 11.9053C34.8172 11.3319 35.1494 10.5517 35.1494 9.73559C35.1494 8.91945 34.8172 8.13924 34.2299 7.56591C33.643 6.99297 32.8495 6.67318 32.0246 6.67318H31.5246ZM21.0036 9.75217C19.549 9.73254 18.1046 9.99507 16.7542 10.5248C15.4027 11.055 14.1718 11.8424 13.1334 12.8419C12.0949 13.8414 11.2696 15.0331 10.7061 16.348C10.1426 17.663 9.85219 19.0746 9.85219 20.5008C9.85219 21.927 10.1426 23.3386 10.7061 24.6536C11.2696 25.9685 12.0949 27.1602 13.1334 28.1597C14.1718 29.1592 15.4027 29.9466 16.7542 30.4768C18.1046 31.0065 19.549 31.2691 21.0036 31.2494C23.9157 31.2485 26.7108 30.1189 28.7736 28.1052C30.8377 26.0902 31.9996 23.3547 31.9996 20.4998C31.9996 17.6448 30.8377 14.9094 28.7736 12.8944C26.7106 10.8804 23.9155 9.75306 21.0036 9.75217Z" fill="#FBFBFB" stroke="white"/>
</svg>
