<svg width="247" height="106" viewBox="0 0 247 106" fill="none" xmlns="http://www.w3.org/2000/svg">
<path d="M2.21681 87.0434C2.21681 87.3986 1.88008 87.6992 1.45917 87.7036H1.45151C1.43111 87.7036 1.4107 87.7036 1.39029 87.7014C1.39284 87.5642 1.39475 87.4269 1.39667 87.2896C1.39858 87.1524 1.40049 87.0151 1.40304 86.8778C1.53059 86.795 1.69131 86.7449 1.86222 86.7449H2.21681V87.0434Z" fill="white"/>
<path d="M2.21681 87.0434C2.21681 87.3986 1.88008 87.6992 1.45917 87.7036H1.45151C1.43111 87.7036 1.4107 87.7036 1.39029 87.7014C1.39284 87.5642 1.39475 87.4269 1.39667 87.2896C1.39858 87.1524 1.40049 87.0151 1.40304 86.8778C1.53059 86.795 1.69131 86.7449 1.86222 86.7449H2.21681V87.0434Z" stroke="white"/>
<path d="M246.199 86.466L246.192 87.7733L240.082 87.7799C237.611 87.7831 235.14 87.7859 232.669 87.7886C230.201 87.7913 227.732 87.794 225.263 87.7973C220.573 87.8027 215.883 87.8076 211.192 87.8125C206.501 87.8174 201.811 87.8224 197.121 87.8278L168.468 87.8605L168.467 87.8605C159.371 87.8714 150.271 87.8823 141.172 87.891L113.004 87.9237L113.002 87.9237C103.582 87.9346 94.1593 87.9455 84.7391 87.9542C82.1369 87.9571 79.5345 87.9602 76.9321 87.9634C71.7223 87.9697 66.5121 87.976 61.303 87.9803C52.2929 87.989 43.2828 87.9999 34.2726 88.0108C30.8864 88.0152 27.5002 88.019 24.1136 88.0228C20.7317 88.0266 17.3495 88.0304 13.9667 88.0348C12.6397 88.0362 11.3127 88.0379 9.98573 88.0396C7.33338 88.043 4.6814 88.0464 2.03055 88.0479H2.0229H1.92851H1.85198C1.67596 88.0479 1.51525 87.9934 1.38515 87.9062C1.38515 87.8714 1.38578 87.8365 1.38642 87.8016C1.38706 87.7668 1.3877 87.7319 1.3877 87.6971C1.39025 87.5598 1.39216 87.4225 1.39408 87.2853C1.39599 87.148 1.3979 87.0107 1.40045 86.8735C1.528 86.7907 1.68872 86.7406 1.85963 86.7406C4.40143 86.7406 6.94322 86.7367 9.48577 86.7328C10.7581 86.7309 12.0306 86.729 13.3034 86.7275C16.6771 86.7232 20.0508 86.7193 23.4244 86.7155C26.7982 86.7117 30.1719 86.7079 33.5456 86.7035C38.0328 86.6981 42.5207 86.6932 47.0085 86.6883C51.4963 86.6834 55.9842 86.6785 60.4714 86.673L83.9942 86.6469C88.7046 86.6414 93.415 86.6365 98.1255 86.6316C102.836 86.6267 107.546 86.6218 112.257 86.6164L140.272 86.5837C144.834 86.5783 149.397 86.5733 153.959 86.5684C158.522 86.5635 163.084 86.5586 167.647 86.5532L196.333 86.5205L196.374 86.5205C205.735 86.5096 215.096 86.4987 224.457 86.49C227.008 86.4867 229.559 86.484 232.109 86.4813C234.663 86.4786 237.216 86.4758 239.768 86.4726L246.199 86.466Z" fill="white"/>
<path d="M246.199 86.466L246.192 87.7733L240.082 87.7799C237.611 87.7831 235.14 87.7859 232.669 87.7886C230.201 87.7913 227.732 87.794 225.263 87.7973C220.573 87.8027 215.883 87.8076 211.192 87.8125C206.501 87.8174 201.811 87.8224 197.121 87.8278L168.468 87.8605L168.467 87.8605C159.371 87.8714 150.271 87.8823 141.172 87.891L113.004 87.9237L113.002 87.9237C103.582 87.9346 94.1593 87.9455 84.7391 87.9542C82.1369 87.9571 79.5345 87.9602 76.9321 87.9634C71.7223 87.9697 66.5121 87.976 61.303 87.9803C52.2929 87.989 43.2828 87.9999 34.2726 88.0108C30.8864 88.0152 27.5002 88.019 24.1136 88.0228C20.7317 88.0266 17.3495 88.0304 13.9667 88.0348C12.6397 88.0362 11.3127 88.0379 9.98573 88.0396C7.33338 88.043 4.6814 88.0464 2.03055 88.0479H2.0229H1.92851H1.85198C1.67596 88.0479 1.51525 87.9934 1.38515 87.9062C1.38515 87.8714 1.38578 87.8365 1.38642 87.8016C1.38706 87.7668 1.3877 87.7319 1.3877 87.6971C1.39025 87.5598 1.39216 87.4225 1.39408 87.2853C1.39599 87.148 1.3979 87.0107 1.40045 86.8735C1.528 86.7907 1.68872 86.7406 1.85963 86.7406C4.40143 86.7406 6.94322 86.7367 9.48577 86.7328C10.7581 86.7309 12.0306 86.729 13.3034 86.7275C16.6771 86.7232 20.0508 86.7193 23.4244 86.7155C26.7982 86.7117 30.1719 86.7079 33.5456 86.7035C38.0328 86.6981 42.5207 86.6932 47.0085 86.6883C51.4963 86.6834 55.9842 86.6785 60.4714 86.673L83.9942 86.6469C88.7046 86.6414 93.415 86.6365 98.1255 86.6316C102.836 86.6267 107.546 86.6218 112.257 86.6164L140.272 86.5837C144.834 86.5783 149.397 86.5733 153.959 86.5684C158.522 86.5635 163.084 86.5586 167.647 86.5532L196.333 86.5205L196.374 86.5205C205.735 86.5096 215.096 86.4987 224.457 86.49C227.008 86.4867 229.559 86.484 232.109 86.4813C234.663 86.4786 237.216 86.4758 239.768 86.4726L246.199 86.466Z" stroke="white"/>
<path d="M246.393 51.9647V51.9887C246.383 52.6002 246.382 53.2117 246.381 53.8232C246.38 54.129 246.38 54.4348 246.378 54.7405L246.347 60.1309L246.309 66.9571C246.301 68.2023 246.294 69.4474 246.287 70.6926C246.28 71.9378 246.273 73.183 246.266 74.4282C246.259 75.6244 246.252 76.8206 246.245 78.0167C246.238 79.2129 246.231 80.409 246.225 81.6051C246.219 82.6335 246.213 83.6619 246.207 84.6903C246.201 85.7187 246.196 86.7471 246.189 87.7755C245.676 87.7755 245.166 87.7755 244.654 87.7777C244.657 87.2807 244.661 86.7837 244.664 86.2868C244.672 85.2958 244.679 84.3052 244.684 83.3155C244.691 82.1261 244.698 80.9368 244.705 79.7477C244.712 78.5646 244.719 77.3818 244.725 76.1995C244.731 74.9693 244.738 73.7391 244.745 72.5086C244.752 71.2722 244.759 70.0354 244.766 68.7982C244.772 67.5911 244.779 66.3846 244.786 65.1781C244.793 63.9716 244.8 62.7651 244.807 61.558L244.807 61.5349C244.817 59.6165 244.827 57.696 244.84 55.7776C244.847 54.6294 244.852 53.4812 244.858 52.333C244.858 52.2262 244.858 52.1173 244.86 52.0105C244.86 51.9495 244.868 51.8885 244.883 51.8318L246.148 51.8514C246.197 51.8675 246.245 51.8826 246.294 51.898C246.325 51.9077 246.357 51.9176 246.388 51.9277V51.9517C246.393 51.9517 246.393 51.9582 246.393 51.9647Z" fill="white"/>
<path d="M246.393 51.9647V51.9887C246.383 52.6002 246.382 53.2117 246.381 53.8232C246.38 54.129 246.38 54.4348 246.378 54.7405L246.347 60.1309L246.309 66.9571C246.301 68.2023 246.294 69.4474 246.287 70.6926C246.28 71.9378 246.273 73.183 246.266 74.4282C246.259 75.6244 246.252 76.8206 246.245 78.0167C246.238 79.2129 246.231 80.409 246.225 81.6051C246.219 82.6335 246.213 83.6619 246.207 84.6903C246.201 85.7187 246.196 86.7471 246.189 87.7755C245.676 87.7755 245.166 87.7755 244.654 87.7777C244.657 87.2807 244.661 86.7837 244.664 86.2868C244.672 85.2958 244.679 84.3052 244.684 83.3155C244.691 82.1261 244.698 80.9368 244.705 79.7477C244.712 78.5646 244.719 77.3818 244.725 76.1995C244.731 74.9693 244.738 73.7391 244.745 72.5086C244.752 71.2722 244.759 70.0354 244.766 68.7982C244.772 67.5911 244.779 66.3846 244.786 65.1781C244.793 63.9716 244.8 62.7651 244.807 61.558L244.807 61.5349C244.817 59.6165 244.827 57.696 244.84 55.7776C244.847 54.6294 244.852 53.4812 244.858 52.333C244.858 52.2262 244.858 52.1173 244.86 52.0105C244.86 51.9495 244.868 51.8885 244.883 51.8318L246.148 51.8514C246.197 51.8675 246.245 51.8826 246.294 51.898C246.325 51.9077 246.357 51.9176 246.388 51.9277V51.9517C246.393 51.9517 246.393 51.9582 246.393 51.9647Z" stroke="white"/>
<path d="M2.93363 86.7428C2.93108 86.9606 2.92789 87.1785 2.9247 87.3964C2.92151 87.6143 2.91833 87.8322 2.91577 88.05H2.03313H2.02548H1.93109H1.85456C1.67854 88.05 1.51783 87.9956 1.38773 87.9084L1.40303 86.8757C1.53058 86.7929 1.69129 86.7428 1.86221 86.7428H2.2168C2.45659 86.7449 2.69384 86.7449 2.93363 86.7428Z" fill="white"/>
<path d="M2.93363 86.7428C2.93108 86.9606 2.92789 87.1785 2.9247 87.3964C2.92151 87.6143 2.91833 87.8322 2.91577 88.05H2.03313H2.02548H1.93109H1.85456C1.67854 88.05 1.51783 87.9956 1.38773 87.9084L1.40303 86.8757C1.53058 86.7929 1.69129 86.7428 1.86221 86.7428H2.2168C2.45659 86.7449 2.69384 86.7449 2.93363 86.7428Z" stroke="white"/>
<path d="M42.5098 53.4245C42.4218 53.4638 42.3345 53.5035 42.2471 53.5433C42.1597 53.583 42.0724 53.6228 41.9843 53.662C41.91 53.6954 41.8355 53.7288 41.7609 53.7623C41.5284 53.8668 41.2952 53.9715 41.0634 54.0738C40.9997 53.6598 40.9435 53.2437 40.8925 52.8275C41.3951 52.8428 41.8976 52.8559 42.4002 52.8689H42.4308C42.4537 53.0541 42.4818 53.2393 42.5098 53.4245Z" fill="white"/>
<path d="M42.5098 53.4245C42.4218 53.4638 42.3345 53.5035 42.2471 53.5433C42.1597 53.583 42.0724 53.6228 41.9843 53.662C41.91 53.6954 41.8355 53.7288 41.7609 53.7623C41.5284 53.8668 41.2952 53.9715 41.0634 54.0738C40.9997 53.6598 40.9435 53.2437 40.8925 52.8275C41.3951 52.8428 41.8976 52.8559 42.4002 52.8689H42.4308C42.4537 53.0541 42.4818 53.2393 42.5098 53.4245Z" stroke="white"/>
<path d="M204.205 51.5791C204.358 51.6455 204.511 51.7125 204.664 51.7795C204.817 51.8465 204.97 51.9135 205.123 51.98C205.065 52.4419 205.001 52.9016 204.929 53.3635C204.688 53.2589 204.447 53.1538 204.206 53.0487C203.965 52.9436 203.724 52.8384 203.483 52.7338C203.489 52.6925 203.495 52.6511 203.501 52.6097C203.507 52.5683 203.512 52.5269 203.519 52.4855C203.547 52.2894 203.572 52.0933 203.598 51.895C203.621 51.712 203.641 51.529 203.662 51.346C203.843 51.4222 204.024 51.5006 204.205 51.579L204.205 51.5791Z" fill="white"/>
<path d="M204.205 51.5791C204.358 51.6455 204.511 51.7125 204.664 51.7795C204.817 51.8465 204.97 51.9135 205.123 51.98C205.065 52.4419 205.001 52.9016 204.929 53.3635C204.688 53.2589 204.447 53.1538 204.206 53.0487C203.965 52.9436 203.724 52.8384 203.483 52.7338C203.489 52.6925 203.495 52.6511 203.501 52.6097C203.507 52.5683 203.512 52.5269 203.519 52.4855C203.547 52.2894 203.572 52.0933 203.598 51.895C203.621 51.712 203.641 51.529 203.662 51.346C203.843 51.4222 204.024 51.5006 204.205 51.579L204.205 51.5791Z" stroke="white"/>
<path d="M76.7034 87.9651C75.5836 87.9651 74.4637 87.9672 73.3438 87.9694C60.4995 82.2326 49.0557 74.1776 43.5813 62.7149C42.1246 59.5012 41.2981 56.1873 40.8925 52.8275C41.3951 52.8428 41.8976 52.8559 42.4002 52.8689H42.4308C43.2624 58.9936 45.5838 64.946 49.9282 69.9529C56.6858 77.7748 66.3081 83.6075 76.7034 87.9651Z" fill="white"/>
<path d="M76.7034 87.9651C75.5836 87.9651 74.4637 87.9672 73.3438 87.9694C60.4995 82.2326 49.0557 74.1776 43.5813 62.7149C42.1246 59.5012 41.2981 56.1873 40.8925 52.8275C41.3951 52.8428 41.8976 52.8559 42.4002 52.8689H42.4308C43.2624 58.9936 45.5838 64.946 49.9282 69.9529C56.6858 77.7748 66.3081 83.6075 76.7034 87.9651Z" stroke="white"/>
<path d="M203.679 51.1782L205.21 51.2043C204.72 55.8234 203.539 60.3793 201.22 64.5887C195.481 74.6134 185.593 82.6335 174.106 87.8561C172.955 87.8561 171.805 87.8583 170.654 87.8605C172.386 87.1371 174.098 86.3854 175.779 85.588C186.123 80.3567 195.126 72.7243 200.205 63.349C202.179 59.4903 203.228 55.3593 203.679 51.1782Z" fill="white"/>
<path d="M203.679 51.1782L205.21 51.2043C204.72 55.8234 203.539 60.3793 201.22 64.5887C195.481 74.6134 185.593 82.6335 174.106 87.8561C172.955 87.8561 171.805 87.8583 170.654 87.8605C172.386 87.1371 174.098 86.3854 175.779 85.588C186.123 80.3567 195.126 72.7243 200.205 63.349C202.179 59.4903 203.228 55.3593 203.679 51.1782Z" stroke="white"/>
<path d="M42.5073 53.4245C42.5086 53.4289 42.5092 53.4338 42.5099 53.4387C42.5105 53.4436 42.5111 53.4485 42.5124 53.4529C41.9997 53.4529 41.4843 53.4507 40.9716 53.4485C40.9665 53.4245 40.9639 53.4006 40.9614 53.3766L40.9614 53.3766C40.9359 53.1936 40.9129 53.0106 40.8925 52.8254C41.3951 52.8406 41.8976 52.8537 42.4002 52.8668H42.4308C42.4464 52.9941 42.4643 53.1204 42.4822 53.2464C42.4907 53.3059 42.4991 53.3652 42.5073 53.4245Z" fill="white"/>
<path d="M42.5073 53.4245C42.5086 53.4289 42.5092 53.4338 42.5099 53.4387C42.5105 53.4436 42.5111 53.4485 42.5124 53.4529C41.9997 53.4529 41.4843 53.4507 40.9716 53.4485C40.9665 53.4245 40.9639 53.4006 40.9614 53.3766L40.9614 53.3766C40.9359 53.1936 40.9129 53.0106 40.8925 52.8254C41.3951 52.8406 41.8976 52.8537 42.4002 52.8668H42.4308C42.4464 52.9941 42.4643 53.1204 42.4822 53.2464C42.4907 53.3059 42.4991 53.3652 42.5073 53.4245Z" stroke="white"/>
<path d="M246.393 51.9647V51.9887C246.386 52.3787 246.383 52.7687 246.383 53.1609C243.832 53.1195 241.284 53.0803 238.733 53.0411C237.288 53.0182 235.842 52.9959 234.397 52.9735C232.952 52.9512 231.507 52.9289 230.062 52.906C228.633 52.8831 227.205 52.8608 225.776 52.8384C224.348 52.8161 222.919 52.7938 221.49 52.7709L213.192 52.6402C210.919 52.6053 208.646 52.5704 206.373 52.5334C205.422 52.5182 204.47 52.5029 203.519 52.4855C203.572 52.1064 203.618 51.7273 203.662 51.346C203.664 51.32 203.667 51.2941 203.67 51.2679C203.673 51.2391 203.677 51.21 203.679 51.1804L206.404 51.2261C207.542 51.2436 208.679 51.2615 209.817 51.2795C210.955 51.2975 212.093 51.3155 213.23 51.3329L221.534 51.4636C222.979 51.4867 224.425 51.5092 225.871 51.5318C227.29 51.5539 228.71 51.576 230.131 51.5987C231.571 51.6216 233.011 51.6439 234.452 51.6662C235.893 51.6886 237.333 51.7109 238.773 51.7338C241.233 51.773 243.694 51.8122 246.154 51.8493C246.202 51.8653 246.25 51.8805 246.299 51.8959C246.33 51.9056 246.362 51.9154 246.393 51.9255V51.9495V51.9647Z" fill="white"/>
<path d="M246.393 51.9647V51.9887C246.386 52.3787 246.383 52.7687 246.383 53.1609C243.832 53.1195 241.284 53.0803 238.733 53.0411C237.288 53.0182 235.842 52.9959 234.397 52.9735C232.952 52.9512 231.507 52.9289 230.062 52.906C228.633 52.8831 227.205 52.8608 225.776 52.8384C224.348 52.8161 222.919 52.7938 221.49 52.7709L213.192 52.6402C210.919 52.6053 208.646 52.5704 206.373 52.5334C205.422 52.5182 204.47 52.5029 203.519 52.4855C203.572 52.1064 203.618 51.7273 203.662 51.346C203.664 51.32 203.667 51.2941 203.67 51.2679C203.673 51.2391 203.677 51.21 203.679 51.1804L206.404 51.2261C207.542 51.2436 208.679 51.2615 209.817 51.2795C210.955 51.2975 212.093 51.3155 213.23 51.3329L221.534 51.4636C222.979 51.4867 224.425 51.5092 225.871 51.5318C227.29 51.5539 228.71 51.576 230.131 51.5987C231.571 51.6216 233.011 51.6439 234.452 51.6662C235.893 51.6886 237.333 51.7109 238.773 51.7338C241.233 51.773 243.694 51.8122 246.154 51.8493C246.202 51.8653 246.25 51.8805 246.299 51.8959C246.33 51.9056 246.362 51.9154 246.393 51.9255V51.9495V51.9647Z" stroke="white"/>
<path d="M246.393 51.9647V51.9887C246.386 52.3787 246.383 52.7687 246.383 53.1609V53.3156L242.396 52.0541C242.216 51.9966 242.036 51.94 241.856 51.8832C241.742 51.8474 241.628 51.8114 241.513 51.7752C242.076 51.785 242.638 51.7937 243.201 51.8024C243.763 51.8111 244.326 51.8199 244.888 51.8297L246.154 51.8493C246.193 51.8623 246.233 51.8749 246.273 51.8874C246.314 51.8999 246.354 51.9125 246.393 51.9255V51.9495V51.9647Z" fill="white"/>
<path d="M246.393 51.9647V51.9887C246.386 52.3787 246.383 52.7687 246.383 53.1609V53.3156L242.396 52.0541C242.216 51.9966 242.036 51.94 241.856 51.8832C241.742 51.8474 241.628 51.8114 241.513 51.7752C242.076 51.785 242.638 51.7937 243.201 51.8024C243.763 51.8111 244.326 51.8199 244.888 51.8297L246.154 51.8493C246.193 51.8623 246.233 51.8749 246.273 51.8874C246.314 51.8999 246.354 51.9125 246.393 51.9255V51.9495V51.9647Z" stroke="white"/>
<path d="M1.67599 86.7013C1.67854 87.185 1.68109 87.6687 1.68109 88.1524H1.67599H1.59946H1.5765C1.5765 88.2352 1.5765 88.3158 1.57905 88.3986V88.5882C1.5892 89.7103 1.59682 90.8324 1.60443 91.9524L1.60456 91.9719V92.2224C1.47446 92.4272 1.21936 92.571 0.9311 92.571C0.512736 92.571 0.1658 92.2747 0.1658 91.9174V91.8978V91.8695V91.8433L0.150494 88.0892L0.119882 80.9275C0.109678 78.6354 0.0994738 76.3412 0.0918208 74.0469L0.0612087 67.0311L0.0305968 59.7714C0.0267639 58.6245 0.0222911 57.4776 0.0178194 56.331C0.0133626 55.1883 0.00890685 54.0458 0.00508674 52.9038C0.00508674 52.5421 0.00253574 52.1804 -1.52588e-05 51.8188C0.102025 51.8231 0.201514 51.8253 0.303554 51.8275C0.714265 51.6989 1.12242 51.5704 1.53058 51.4418V51.7229C1.53568 52.8474 1.54014 53.972 1.54459 55.0962C1.54906 56.2243 1.55353 57.3521 1.55865 58.4793L1.58926 65.6193C1.59436 66.7871 1.59882 67.9549 1.60329 69.1227C1.60775 70.2906 1.61222 71.4584 1.61732 72.6263L1.64793 79.6834C1.65302 80.8516 1.65748 82.0197 1.66194 83.1876C1.66641 84.3592 1.67088 85.5305 1.67599 86.7013Z" fill="white"/>
<path d="M1.67599 86.7013C1.67854 87.185 1.68109 87.6687 1.68109 88.1524H1.67599H1.59946H1.5765C1.5765 88.2352 1.5765 88.3158 1.57905 88.3986V88.5882C1.5892 89.7103 1.59682 90.8324 1.60443 91.9524L1.60456 91.9719V92.2224C1.47446 92.4272 1.21936 92.571 0.9311 92.571C0.512736 92.571 0.1658 92.2747 0.1658 91.9174V91.8978V91.8695V91.8433L0.150494 88.0892L0.119882 80.9275C0.109678 78.6354 0.0994738 76.3412 0.0918208 74.0469L0.0612087 67.0311L0.0305968 59.7714C0.0267639 58.6245 0.0222911 57.4776 0.0178194 56.331C0.0133626 55.1883 0.00890685 54.0458 0.00508674 52.9038C0.00508674 52.5421 0.00253574 52.1804 -1.52588e-05 51.8188C0.102025 51.8231 0.201514 51.8253 0.303554 51.8275C0.714265 51.6989 1.12242 51.5704 1.53058 51.4418V51.7229C1.53568 52.8474 1.54014 53.972 1.54459 55.0962C1.54906 56.2243 1.55353 57.3521 1.55865 58.4793L1.58926 65.6193C1.59436 66.7871 1.59882 67.9549 1.60329 69.1227C1.60775 70.2906 1.61222 71.4584 1.61732 72.6263L1.64793 79.6834C1.65302 80.8516 1.65748 82.0197 1.66194 83.1876C1.66641 84.3592 1.67088 85.5305 1.67599 86.7013Z" stroke="white"/>
<path d="M42.5124 53.4529C42.5481 53.6969 42.5889 53.9409 42.6297 54.1828L37.3772 54.039L37.2352 54.0351C35.7594 53.995 34.2814 53.9548 32.8058 53.9126L32.6229 53.9076C30.5893 53.8526 28.5535 53.7976 26.5202 53.7405C23.7931 53.6664 21.0687 53.5923 18.3442 53.516C16.8728 53.4762 15.4015 53.4358 13.9305 53.3954C12.5068 53.3562 11.0834 53.3171 9.6606 53.2786C8.1363 53.2365 6.612 53.195 5.08736 53.1535C3.61137 53.1133 2.13505 53.0731 0.658124 53.0324C0.525472 53.028 0.39282 53.0236 0.260168 53.0215V52.7992C0.260168 52.4724 0.257617 52.1434 0.255066 51.8166V51.712L0.264611 51.7123C2.78437 51.7819 5.30412 51.8515 7.82133 51.919L16.709 52.1608L16.7165 52.161C19.3926 52.235 22.0686 52.3091 24.7447 52.3809L31.1757 52.5574L36.6604 52.7077L42.4001 52.8646H42.4307L42.4308 52.8652C42.4563 53.0502 42.4818 53.2352 42.5098 53.418C42.5098 53.4354 42.5098 53.4441 42.5124 53.4529Z" fill="white"/>
<path d="M42.5124 53.4529C42.5481 53.6969 42.5889 53.9409 42.6297 54.1828L37.3772 54.039L37.2352 54.0351C35.7594 53.995 34.2814 53.9548 32.8058 53.9126L32.6229 53.9076C30.5893 53.8526 28.5535 53.7976 26.5202 53.7405C23.7931 53.6664 21.0687 53.5923 18.3442 53.516C16.8728 53.4762 15.4015 53.4358 13.9305 53.3954C12.5068 53.3562 11.0834 53.3171 9.6606 53.2786C8.1363 53.2365 6.612 53.195 5.08736 53.1535C3.61137 53.1133 2.13505 53.0731 0.658124 53.0324C0.525472 53.028 0.39282 53.0236 0.260168 53.0215V52.7992C0.260168 52.4724 0.257617 52.1434 0.255066 51.8166V51.712L0.264611 51.7123C2.78437 51.7819 5.30412 51.8515 7.82133 51.919L16.709 52.1608L16.7165 52.161C19.3926 52.235 22.0686 52.3091 24.7447 52.3809L31.1757 52.5574L36.6604 52.7077L42.4001 52.8646H42.4307L42.4308 52.8652C42.4563 53.0502 42.4818 53.2352 42.5098 53.418C42.5098 53.4354 42.5098 53.4441 42.5124 53.4529Z" stroke="white"/>
<path d="M32.0303 42.5349C32.1808 42.8595 31.9946 43.2604 31.6018 43.3824C30.3352 43.779 29.0687 44.176 27.8022 44.5731C26.5356 44.9702 25.269 45.3673 24.0023 45.7639C22.8035 46.1397 21.604 46.516 20.4045 46.8924C19.2047 47.2688 18.005 47.6452 16.806 48.0211C14.1637 48.8481 11.5214 49.6772 8.87911 50.5064L8.8698 50.5093C7.94921 50.7981 7.029 51.0866 6.10903 51.3751C4.65562 51.8308 3.20279 52.2863 1.74996 52.7426C1.46256 52.8319 1.17601 52.922 0.889822 53.012C0.680664 53.0778 0.471698 53.1435 0.262731 53.2088V53.0236V52.8014C0.262731 52.4746 0.26018 52.1456 0.257629 51.8188C0.769421 51.6585 1.28057 51.4983 1.79173 51.338C2.30225 51.178 2.81277 51.0179 3.32393 50.8579C4.40783 50.5183 5.49173 50.1784 6.57582 49.8384C8.05849 49.3733 9.54152 48.9082 11.0254 48.4438C13.5713 47.6464 16.1197 46.8467 18.6682 46.0471C19.8442 45.6778 21.0208 45.309 22.1975 44.9403C23.3741 44.5715 24.5508 44.2028 25.7268 43.8335C26.4232 43.6156 27.1196 43.3971 27.8161 43.1787C28.5125 42.9603 29.2089 42.7419 29.9053 42.524L32.0227 42.5109C32.0227 42.515 32.0247 42.5199 32.0268 42.5252C32.028 42.5283 32.0294 42.5316 32.0303 42.5349Z" fill="white"/>
<path d="M32.0303 42.5349C32.1808 42.8595 31.9946 43.2604 31.6018 43.3824C30.3352 43.779 29.0687 44.176 27.8022 44.5731C26.5356 44.9702 25.269 45.3673 24.0023 45.7639C22.8035 46.1397 21.604 46.516 20.4045 46.8924C19.2047 47.2688 18.005 47.6452 16.806 48.0211C14.1637 48.8481 11.5214 49.6772 8.87911 50.5064L8.8698 50.5093C7.94921 50.7981 7.029 51.0866 6.10903 51.3751C4.65562 51.8308 3.20279 52.2863 1.74996 52.7426C1.46256 52.8319 1.17601 52.922 0.889822 53.012C0.680664 53.0778 0.471698 53.1435 0.262731 53.2088V53.0236V52.8014C0.262731 52.4746 0.26018 52.1456 0.257629 51.8188C0.769421 51.6585 1.28057 51.4983 1.79173 51.338C2.30225 51.178 2.81277 51.0179 3.32393 50.8579C4.40783 50.5183 5.49173 50.1784 6.57582 49.8384C8.05849 49.3733 9.54152 48.9082 11.0254 48.4438C13.5713 47.6464 16.1197 46.8467 18.6682 46.0471C19.8442 45.6778 21.0208 45.309 22.1975 44.9403C23.3741 44.5715 24.5508 44.2028 25.7268 43.8335C26.4232 43.6156 27.1196 43.3971 27.8161 43.1787C28.5125 42.9603 29.2089 42.7419 29.9053 42.524L32.0227 42.5109C32.0227 42.515 32.0247 42.5199 32.0268 42.5252C32.028 42.5283 32.0294 42.5316 32.0303 42.5349Z" stroke="white"/>
<path d="M32.0303 42.5349C32.1808 42.8595 31.9946 43.2604 31.6018 43.3824C31.5597 43.3955 31.5169 43.4091 31.4742 43.4227C31.4315 43.4364 31.3888 43.45 31.3467 43.4631L26.9691 43.4434C27.9462 43.1362 28.9232 42.829 29.9002 42.524L32.0176 42.5109C32.0227 42.5175 32.0278 42.5262 32.0303 42.5349Z" fill="white"/>
<path d="M32.0303 42.5349C32.1808 42.8595 31.9946 43.2604 31.6018 43.3824C31.5597 43.3955 31.5169 43.4091 31.4742 43.4227C31.4315 43.4364 31.3888 43.45 31.3467 43.4631L26.9691 43.4434C27.9462 43.1362 28.9232 42.829 29.9002 42.524L32.0176 42.5109C32.0227 42.5175 32.0278 42.5262 32.0303 42.5349Z" stroke="white"/>
<path d="M0.255112 104.572C0.242357 102.578 0.227051 100.585 0.211745 98.5911L0.211745 98.591L0.181133 94.3337L0.150521 89.9891C0.146694 89.4292 0.14223 88.8698 0.137766 88.3104C0.133302 87.751 0.128837 87.1916 0.125011 86.6316L0.117358 85.479C0.114807 85.1239 0.45409 84.821 0.872454 84.8167C1.28572 84.8123 1.64286 85.1065 1.64796 85.4616C1.65178 85.9344 1.65497 86.4072 1.65816 86.88C1.66135 87.3528 1.66454 87.8256 1.66837 88.2984L1.69898 92.3292L1.72959 96.7238L1.76785 101.986C1.77551 102.811 1.78061 103.452 1.78571 104.278V104.487C1.78571 104.511 1.74489 104.278 1.74489 104.278C1.58698 104.278 1.68713 104.276 1.68713 104.276C1.68712 104.276 1.64919 104.276 1.48979 104.278H1.03062C0.825377 104.277 0.633351 104.436 0.491723 104.554C0.348172 104.673 0.256396 104.75 0.255112 104.572Z" fill="white"/>
<path d="M0.255112 104.572C0.242357 102.578 0.227051 100.585 0.211745 98.5911L0.211745 98.591L0.181133 94.3337L0.150521 89.9891C0.146694 89.4292 0.14223 88.8698 0.137766 88.3104C0.133302 87.751 0.128837 87.1916 0.125011 86.6316L0.117358 85.479C0.114807 85.1239 0.45409 84.821 0.872454 84.8167C1.28572 84.8123 1.64286 85.1065 1.64796 85.4616C1.65178 85.9344 1.65497 86.4072 1.65816 86.88C1.66135 87.3528 1.66454 87.8256 1.66837 88.2984L1.69898 92.3292L1.72959 96.7238L1.76785 101.986C1.77551 102.811 1.78061 103.452 1.78571 104.278V104.487C1.78571 104.511 1.74489 104.278 1.74489 104.278C1.58698 104.278 1.68713 104.276 1.68713 104.276C1.68712 104.276 1.64919 104.276 1.48979 104.278H1.03062C0.825377 104.277 0.633351 104.436 0.491723 104.554C0.348172 104.673 0.256396 104.75 0.255112 104.572Z" stroke="white"/>
<path d="M246.08 86.039C246.057 86.6186 246.028 87.1959 246 87.7733C245.551 87.7733 245.105 87.7733 244.656 87.7755H244.467C244.49 87.3397 244.511 86.904 244.529 86.4682H244.666L244.666 86.4667C244.669 86.2058 244.671 85.9448 244.671 85.6839C244.807 85.4987 245.044 85.3745 245.322 85.3766C245.73 85.381 246.092 85.6795 246.08 86.039Z" fill="white"/>
<path d="M246.08 86.039C246.057 86.6186 246.028 87.1959 246 87.7733C245.551 87.7733 245.105 87.7733 244.656 87.7755H244.467C244.49 87.3397 244.511 86.904 244.529 86.4682H244.666L244.666 86.4667C244.669 86.2058 244.671 85.9448 244.671 85.6839C244.807 85.4987 245.044 85.3745 245.322 85.3766C245.73 85.381 246.092 85.6795 246.08 86.039Z" stroke="white"/>
<path d="M246.013 104.269L246.006 105.576C244.37 105.572 242.733 105.568 241.097 105.565C236.775 105.556 232.453 105.546 228.131 105.537C223.809 105.528 219.487 105.519 215.164 105.509C205.514 105.487 195.863 105.465 186.213 105.446C181.541 105.436 176.868 105.425 172.196 105.415C167.524 105.405 162.852 105.394 158.18 105.385C154.357 105.376 150.535 105.368 146.713 105.359C142.891 105.351 139.069 105.343 135.246 105.334C131.382 105.326 127.519 105.318 123.655 105.309C119.782 105.301 115.909 105.293 112.037 105.284L88.2697 105.232L64.2622 105.18C59.9982 105.17 55.7342 105.161 51.4702 105.151C47.2062 105.142 42.9422 105.133 38.6782 105.123L16.9973 105.077C14.2103 105.072 11.4233 105.065 8.63638 105.059C5.84941 105.052 3.06244 105.046 0.275474 105.04C0.270372 105.01 0.26527 104.979 0.26527 104.949C0.262719 104.544 0.260168 104.138 0.255066 103.733L18.3391 103.772L39.5583 103.818C43.9652 103.828 48.3714 103.837 52.7776 103.846C57.1838 103.856 61.59 103.865 65.9969 103.875L89.864 103.927C97.557 103.942 105.247 103.959 112.94 103.977L113.096 103.977L136.902 104.029C140.652 104.038 144.402 104.046 148.152 104.054C151.912 104.063 155.671 104.071 159.43 104.079C164.161 104.089 168.892 104.1 173.624 104.11C178.355 104.12 183.087 104.131 187.817 104.14C197.45 104.162 207.085 104.184 216.718 104.204C225.473 104.223 234.23 104.243 242.988 104.26C243.995 104.265 245.003 104.267 246.013 104.269Z" fill="white"/>
<path d="M246.013 104.269L246.006 105.576C244.37 105.572 242.733 105.568 241.097 105.565C236.775 105.556 232.453 105.546 228.131 105.537C223.809 105.528 219.487 105.519 215.164 105.509C205.514 105.487 195.863 105.465 186.213 105.446C181.541 105.436 176.868 105.425 172.196 105.415C167.524 105.405 162.852 105.394 158.18 105.385C154.357 105.376 150.535 105.368 146.713 105.359C142.891 105.351 139.069 105.343 135.246 105.334C131.382 105.326 127.519 105.318 123.655 105.309C119.782 105.301 115.909 105.293 112.037 105.284L88.2697 105.232L64.2622 105.18C59.9982 105.17 55.7342 105.161 51.4702 105.151C47.2062 105.142 42.9422 105.133 38.6782 105.123L16.9973 105.077C14.2103 105.072 11.4233 105.065 8.63638 105.059C5.84941 105.052 3.06244 105.046 0.275474 105.04C0.270372 105.01 0.26527 104.979 0.26527 104.949C0.262719 104.544 0.260168 104.138 0.255066 103.733L18.3391 103.772L39.5583 103.818C43.9652 103.828 48.3714 103.837 52.7776 103.846C57.1838 103.856 61.59 103.865 65.9969 103.875L89.864 103.927C97.557 103.942 105.247 103.959 112.94 103.977L113.096 103.977L136.902 104.029C140.652 104.038 144.402 104.046 148.152 104.054C151.912 104.063 155.671 104.071 159.43 104.079C164.161 104.089 168.892 104.1 173.624 104.11C178.355 104.12 183.087 104.131 187.817 104.14C197.45 104.162 207.085 104.184 216.718 104.204C225.473 104.223 234.23 104.243 242.988 104.26C243.995 104.265 245.003 104.267 246.013 104.269Z" stroke="white"/>
<path d="M246.286 80.8208C246.286 81.6035 246.281 82.3855 246.276 83.1676C246.273 83.6373 246.27 84.107 246.268 84.577L246.268 84.5951C246.263 85.7351 246.258 86.8751 246.251 88.0152C246.247 88.6862 246.244 89.3579 246.24 90.0295C246.237 90.7011 246.234 91.3727 246.23 92.0438L246.215 95.0483L246.192 99.4321C246.188 100.126 246.185 100.821 246.182 101.515C246.178 102.21 246.175 102.904 246.171 103.598L246.164 105.199C245.909 105.198 245.654 105.198 245.398 105.197C245.143 105.197 244.888 105.196 244.633 105.195C244.636 104.757 244.638 104.319 244.64 103.88C244.641 103.442 244.643 103.003 244.646 102.565C244.65 101.843 244.653 101.121 244.656 100.398C244.659 99.6761 244.663 98.9538 244.666 98.2316C244.67 97.5649 244.673 96.8987 244.677 96.2325C244.68 95.5663 244.683 94.9002 244.687 94.2335L244.702 91.0546C244.707 89.7517 244.715 88.4488 244.722 87.148C244.728 86.0107 244.733 84.8733 244.74 83.736C244.742 83.492 244.743 83.2478 244.744 83.0036C244.749 82.2709 244.753 81.5376 244.753 80.8055C244.753 80.4504 245.113 80.1541 245.526 80.1584C245.947 80.1628 246.286 80.4634 246.286 80.8208Z" fill="white"/>
<path d="M246.286 80.8208C246.286 81.6035 246.281 82.3855 246.276 83.1676C246.273 83.6373 246.27 84.107 246.268 84.577L246.268 84.5951C246.263 85.7351 246.258 86.8751 246.251 88.0152C246.247 88.6862 246.244 89.3579 246.24 90.0295C246.237 90.7011 246.234 91.3727 246.23 92.0438L246.215 95.0483L246.192 99.4321C246.188 100.126 246.185 100.821 246.182 101.515C246.178 102.21 246.175 102.904 246.171 103.598L246.164 105.199C245.909 105.198 245.654 105.198 245.398 105.197C245.143 105.197 244.888 105.196 244.633 105.195C244.636 104.757 244.638 104.319 244.64 103.88C244.641 103.442 244.643 103.003 244.646 102.565C244.65 101.843 244.653 101.121 244.656 100.398C244.659 99.6761 244.663 98.9538 244.666 98.2316C244.67 97.5649 244.673 96.8987 244.677 96.2325C244.68 95.5663 244.683 94.9002 244.687 94.2335L244.702 91.0546C244.707 89.7517 244.715 88.4488 244.722 87.148C244.728 86.0107 244.733 84.8733 244.74 83.736C244.742 83.492 244.743 83.2478 244.744 83.0036C244.749 82.2709 244.753 81.5376 244.753 80.8055C244.753 80.4504 245.113 80.1541 245.526 80.1584C245.947 80.1628 246.286 80.4634 246.286 80.8208Z" stroke="white"/>
<path d="M204.723 51.566C205.093 51.7294 205.276 52.0998 205.098 52.4332C204.973 52.6641 204.685 52.8166 204.391 52.8166C204.287 52.8166 204.182 52.797 204.083 52.7535C203.894 52.6707 203.705 52.5901 203.516 52.5094C203.517 52.5051 203.518 52.5007 203.519 52.4964C203.519 52.492 203.52 52.4876 203.521 52.4833C203.557 52.2197 203.593 51.956 203.623 51.6924C203.63 51.6346 203.637 51.5764 203.644 51.5181C203.651 51.4598 203.658 51.4015 203.664 51.3438C203.672 51.2893 203.677 51.2348 203.682 51.1782C203.705 51.1782 203.728 51.1787 203.751 51.1793C203.774 51.1798 203.797 51.1804 203.82 51.1804C203.97 51.2446 204.121 51.3084 204.271 51.3721C204.422 51.4358 204.572 51.4996 204.723 51.5638V51.566Z" fill="white"/>
<path d="M204.723 51.566C205.093 51.7294 205.276 52.0998 205.098 52.4332C204.973 52.6641 204.685 52.8166 204.391 52.8166C204.287 52.8166 204.182 52.797 204.083 52.7535C203.894 52.6707 203.705 52.5901 203.516 52.5094C203.517 52.5051 203.518 52.5007 203.519 52.4964C203.519 52.492 203.52 52.4876 203.521 52.4833C203.557 52.2197 203.593 51.956 203.623 51.6924C203.63 51.6346 203.637 51.5764 203.644 51.5181C203.651 51.4598 203.658 51.4015 203.664 51.3438C203.672 51.2893 203.677 51.2348 203.682 51.1782C203.705 51.1782 203.728 51.1787 203.751 51.1793C203.774 51.1798 203.797 51.1804 203.82 51.1804C203.97 51.2446 204.121 51.3084 204.271 51.3721C204.422 51.4358 204.572 51.4996 204.723 51.5638V51.566Z" stroke="white"/>
<path d="M246.393 51.9647V51.9887C246.386 52.3787 246.383 52.7687 246.383 53.1609V53.3134L241.608 51.7774L244.888 51.8297L246.154 51.8493C246.193 51.8623 246.233 51.8749 246.273 51.8874C246.314 51.8999 246.354 51.9125 246.393 51.9255V51.9495V51.9647Z" fill="white"/>
<path d="M246.393 51.9647V51.9887C246.386 52.3787 246.383 52.7687 246.383 53.1609V53.3134L241.608 51.7774L244.888 51.8297L246.154 51.8493C246.193 51.8623 246.233 51.8749 246.273 51.8874C246.314 51.8999 246.354 51.9125 246.393 51.9255V51.9495V51.9647Z" stroke="white"/>
<path d="M64.5046 43.6003C64.5046 43.6504 64.5071 43.6983 64.5097 43.7462L64.5097 43.7463L57.7444 46.9165C55.3541 48.0364 52.9638 49.1563 50.5736 50.274C50.0261 50.5304 49.479 50.7867 48.932 51.0428C47.7176 51.6115 46.504 52.1798 45.2904 52.7491C45.0032 52.8838 44.7158 53.0184 44.4283 53.1531C43.6179 53.5327 42.8068 53.9127 41.9971 54.2939C41.8823 54.3483 41.7573 54.3723 41.6323 54.3723C41.3593 54.3723 41.094 54.2503 40.9563 54.0368C40.7548 53.7252 40.8925 53.32 41.2573 53.15L45.492 51.1651L51.9817 48.1257C54.3924 46.9949 56.8031 45.8663 59.2138 44.7377C60.084 44.3301 60.9535 43.9225 61.823 43.515C62.692 43.1077 63.561 42.7003 64.4306 42.293H64.5071C64.4995 42.7353 64.4969 43.1711 64.5046 43.6003Z" fill="white"/>
<path d="M64.5046 43.6003C64.5046 43.6504 64.5071 43.6983 64.5097 43.7462L64.5097 43.7463L57.7444 46.9165C55.3541 48.0364 52.9638 49.1563 50.5736 50.274C50.0261 50.5304 49.479 50.7867 48.932 51.0428C47.7176 51.6115 46.504 52.1798 45.2904 52.7491C45.0032 52.8838 44.7158 53.0184 44.4283 53.1531C43.6179 53.5327 42.8068 53.9127 41.9971 54.2939C41.8823 54.3483 41.7573 54.3723 41.6323 54.3723C41.3593 54.3723 41.094 54.2503 40.9563 54.0368C40.7548 53.7252 40.8925 53.32 41.2573 53.15L45.492 51.1651L51.9817 48.1257C54.3924 46.9949 56.8031 45.8663 59.2138 44.7377C60.084 44.3301 60.9535 43.9225 61.823 43.515C62.692 43.1077 63.561 42.7003 64.4306 42.293H64.5071C64.4995 42.7353 64.4969 43.1711 64.5046 43.6003Z" stroke="white"/>
<path d="M59.8949 42.3236C60.664 42.3181 61.4325 42.3132 62.201 42.3083C62.9695 42.3034 63.738 42.2985 64.5071 42.293C64.4969 42.7375 64.4969 43.1733 64.5046 43.6003C63.5632 43.6069 62.6225 43.6129 61.6818 43.6188C60.7412 43.6248 59.8005 43.6308 58.8592 43.6374C55.7393 43.6592 52.6169 43.6809 49.4945 43.7006C48.0044 43.7103 46.5137 43.7206 45.0227 43.7309C43.5195 43.7413 42.0159 43.7517 40.5124 43.7616C38.9911 43.7714 37.4704 43.7818 35.95 43.7922C34.4417 43.8025 32.9337 43.8128 31.4258 43.8226L25.6401 43.8618C25.6541 43.8574 25.6675 43.8531 25.6809 43.8487C25.6943 43.8444 25.7077 43.84 25.7217 43.8356L25.7231 43.8352C26.1385 43.7046 26.5538 43.574 26.9666 43.4456C27.1739 43.3804 27.3811 43.3153 27.5883 43.2501C28.3573 43.0081 29.1254 42.7665 29.8952 42.5262C30.3237 42.5229 30.7523 42.5202 31.1809 42.5175C31.6094 42.5147 32.038 42.512 32.4666 42.5088C33.9691 42.4989 35.4716 42.4886 36.9742 42.4782C38.4767 42.4679 39.9793 42.4575 41.4818 42.4477C42.9907 42.4379 44.5003 42.4276 46.0098 42.4172C47.5194 42.4069 49.0289 42.3965 50.5378 42.3867L50.5459 42.3867C53.6631 42.3649 56.7803 42.3431 59.8949 42.3236Z" fill="white"/>
<path d="M59.8949 42.3236C60.664 42.3181 61.4325 42.3132 62.201 42.3083C62.9695 42.3034 63.738 42.2985 64.5071 42.293C64.4969 42.7375 64.4969 43.1733 64.5046 43.6003C63.5632 43.6069 62.6225 43.6129 61.6818 43.6188C60.7412 43.6248 59.8005 43.6308 58.8592 43.6374C55.7393 43.6592 52.6169 43.6809 49.4945 43.7006C48.0044 43.7103 46.5137 43.7206 45.0227 43.7309C43.5195 43.7413 42.0159 43.7517 40.5124 43.7616C38.9911 43.7714 37.4704 43.7818 35.95 43.7922C34.4417 43.8025 32.9337 43.8128 31.4258 43.8226L25.6401 43.8618C25.6541 43.8574 25.6675 43.8531 25.6809 43.8487C25.6943 43.8444 25.7077 43.84 25.7217 43.8356L25.7231 43.8352C26.1385 43.7046 26.5538 43.574 26.9666 43.4456C27.1739 43.3804 27.3811 43.3153 27.5883 43.2501C28.3573 43.0081 29.1254 42.7665 29.8952 42.5262C30.3237 42.5229 30.7523 42.5202 31.1809 42.5175C31.6094 42.5147 32.038 42.512 32.4666 42.5088C33.9691 42.4989 35.4716 42.4886 36.9742 42.4782C38.4767 42.4679 39.9793 42.4575 41.4818 42.4477C42.9907 42.4379 44.5003 42.4276 46.0098 42.4172C47.5194 42.4069 49.0289 42.3965 50.5378 42.3867L50.5459 42.3867C53.6631 42.3649 56.7803 42.3431 59.8949 42.3236Z" stroke="white"/>
<path d="M220.167 43.7681C218.81 43.7746 217.453 43.779 216.097 43.7833L216.087 43.7833C215.455 43.5676 214.823 43.3525 214.191 43.1373C213.559 42.9222 212.927 42.707 212.294 42.4913C212.42 42.4902 212.545 42.4897 212.67 42.4891C212.796 42.4886 212.921 42.4881 213.047 42.487L216.371 42.4739C216.792 42.6177 217.214 42.7613 217.637 42.9048C218.481 43.1919 219.325 43.479 220.167 43.7681Z" fill="white"/>
<path d="M220.167 43.7681C218.81 43.7746 217.453 43.779 216.097 43.7833L216.087 43.7833C215.455 43.5676 214.823 43.3525 214.191 43.1373C213.559 42.9222 212.927 42.707 212.294 42.4913C212.42 42.4902 212.545 42.4897 212.67 42.4891C212.796 42.4886 212.921 42.4881 213.047 42.487L216.371 42.4739C216.792 42.6177 217.214 42.7613 217.637 42.9048C218.481 43.1919 219.325 43.479 220.167 43.7681Z" stroke="white"/>
<path d="M246.386 52.699C246.386 52.775 246.385 52.851 246.384 52.9272C246.384 53.004 246.383 53.0811 246.383 53.1587V53.3112V53.3134C246.383 53.577 246.383 53.8407 246.381 54.1065L246.379 54.106C246.234 54.0561 246.089 54.0061 245.942 53.9562C245.761 53.8941 245.58 53.8325 245.399 53.771C245.217 53.7094 245.036 53.6479 244.855 53.5858C244.858 53.4354 244.858 53.2851 244.858 53.1348C244.393 53.126 243.932 53.1195 243.467 53.113C243.125 52.996 242.783 52.8799 242.44 52.7636C242.233 52.6935 242.027 52.6234 241.819 52.553C241.423 52.4179 241.027 52.2828 240.631 52.1478C240.235 52.0127 239.839 51.8776 239.442 51.7425L241.511 51.7752H241.511C241.542 51.7752 241.575 51.7752 241.605 51.7774C241.966 51.7828 242.326 51.7888 242.687 51.7948C243.047 51.8008 243.407 51.8068 243.768 51.8122C244.641 52.1063 245.513 52.4025 246.385 52.6988L246.386 52.699Z" fill="white"/>
<path d="M246.386 52.699C246.386 52.775 246.385 52.851 246.384 52.9272C246.384 53.004 246.383 53.0811 246.383 53.1587V53.3112V53.3134C246.383 53.577 246.383 53.8407 246.381 54.1065L246.379 54.106C246.234 54.0561 246.089 54.0061 245.942 53.9562C245.761 53.8941 245.58 53.8325 245.399 53.771C245.217 53.7094 245.036 53.6479 244.855 53.5858C244.858 53.4354 244.858 53.2851 244.858 53.1348C244.393 53.126 243.932 53.1195 243.467 53.113C243.125 52.996 242.783 52.8799 242.44 52.7636C242.233 52.6935 242.027 52.6234 241.819 52.553C241.423 52.4179 241.027 52.2828 240.631 52.1478C240.235 52.0127 239.839 51.8776 239.442 51.7425L241.511 51.7752H241.511C241.542 51.7752 241.575 51.7752 241.605 51.7774C241.966 51.7828 242.326 51.7888 242.687 51.7948C243.047 51.8008 243.407 51.8068 243.768 51.8122C244.641 52.1063 245.513 52.4025 246.385 52.6988L246.386 52.699Z" stroke="white"/>
<path d="M216.376 42.4739C216.657 42.5697 216.937 42.6655 217.218 42.7612C218.202 43.0968 219.185 43.432 220.169 43.7659C219.186 43.7703 218.202 43.7741 217.219 43.7779C216.235 43.7817 215.252 43.7855 214.269 43.7899L214.245 43.79C212.959 43.7943 211.671 43.7986 210.383 43.8051C209.084 43.8106 207.783 43.8155 206.483 43.8204C205.183 43.8253 203.882 43.8302 202.582 43.8356C199.725 43.8465 196.871 43.8574 194.014 43.8705C192.515 43.876 191.016 43.8819 189.517 43.8879C188.019 43.8939 186.52 43.8999 185.021 43.9054C184.938 43.9054 184.855 43.9059 184.771 43.9065C184.688 43.907 184.604 43.9075 184.521 43.9075L181.575 42.6133C181.873 42.6133 182.172 42.6112 182.468 42.609C183.945 42.6035 185.422 42.5975 186.899 42.5915C188.376 42.5856 189.853 42.5796 191.33 42.5741C192.801 42.5687 194.272 42.5627 195.743 42.5567C197.222 42.5507 198.7 42.5447 200.179 42.5393C201.478 42.5338 202.776 42.5289 204.075 42.524C205.373 42.5191 206.672 42.5142 207.97 42.5088L213.052 42.4891C214.156 42.4826 215.266 42.4782 216.376 42.4739Z" fill="white"/>
<path d="M216.376 42.4739C216.657 42.5697 216.937 42.6655 217.218 42.7612C218.202 43.0968 219.185 43.432 220.169 43.7659C219.186 43.7703 218.202 43.7741 217.219 43.7779C216.235 43.7817 215.252 43.7855 214.269 43.7899L214.245 43.79C212.959 43.7943 211.671 43.7986 210.383 43.8051C209.084 43.8106 207.783 43.8155 206.483 43.8204C205.183 43.8253 203.882 43.8302 202.582 43.8356C199.725 43.8465 196.871 43.8574 194.014 43.8705C192.515 43.876 191.016 43.8819 189.517 43.8879C188.019 43.8939 186.52 43.8999 185.021 43.9054C184.938 43.9054 184.855 43.9059 184.771 43.9065C184.688 43.907 184.604 43.9075 184.521 43.9075L181.575 42.6133C181.873 42.6133 182.172 42.6112 182.468 42.609C183.945 42.6035 185.422 42.5975 186.899 42.5915C188.376 42.5856 189.853 42.5796 191.33 42.5741C192.801 42.5687 194.272 42.5627 195.743 42.5567C197.222 42.5507 198.7 42.5447 200.179 42.5393C201.478 42.5338 202.776 42.5289 204.075 42.524C205.373 42.5191 206.672 42.5142 207.97 42.5088L213.052 42.4891C214.156 42.4826 215.266 42.4782 216.376 42.4739Z" stroke="white"/>
<path d="M207.552 52.5487L206.373 52.5291C206.154 52.5258 205.934 52.522 205.714 52.5182C205.494 52.5144 205.274 52.5105 205.054 52.5073C205.052 52.5291 205.049 52.5503 205.045 52.5715C205.042 52.5928 205.039 52.614 205.037 52.6358C205.03 52.6809 205.024 52.726 205.018 52.7714C205.012 52.8116 205.007 52.852 205.001 52.8929C204.261 52.5705 203.521 52.248 202.781 51.9234C202.196 51.6661 201.61 51.4094 201.025 51.1527C200.441 50.8963 199.856 50.6399 199.271 50.3829C198.575 50.0767 197.877 49.7705 197.18 49.4642C196.483 49.1582 195.786 48.8522 195.09 48.5462C192.692 47.4939 190.294 46.4415 187.894 45.387C186.477 44.7645 185.061 44.1431 183.644 43.5213C182.953 43.2181 182.262 42.9147 181.57 42.6112C181.868 42.6112 182.166 42.609 182.464 42.6068L182.465 42.6068C183.267 42.6025 184.071 42.6003 184.873 42.5981L184.886 42.5981C185.368 42.8094 185.851 43.0213 186.334 43.2332C186.817 43.4451 187.299 43.657 187.782 43.8683C188.967 44.3891 190.152 44.9093 191.338 45.4295C192.523 45.9496 193.709 46.4698 194.894 46.9905C195.164 47.1091 195.433 47.2277 195.703 47.3463C197.014 47.9226 198.324 48.4985 199.636 49.0713C199.862 49.1705 200.088 49.2696 200.314 49.3688C201.206 49.7599 202.099 50.1514 202.988 50.5442C203.505 50.7711 204.021 50.998 204.537 51.2249C205.543 51.6667 206.547 52.1081 207.552 52.5487Z" fill="white"/>
<path d="M207.552 52.5487L206.373 52.5291C206.154 52.5258 205.934 52.522 205.714 52.5182C205.494 52.5144 205.274 52.5105 205.054 52.5073C205.052 52.5291 205.049 52.5503 205.045 52.5715C205.042 52.5928 205.039 52.614 205.037 52.6358C205.03 52.6809 205.024 52.726 205.018 52.7714C205.012 52.8116 205.007 52.852 205.001 52.8929C204.261 52.5705 203.521 52.248 202.781 51.9234C202.196 51.6661 201.61 51.4094 201.025 51.1527C200.441 50.8963 199.856 50.6399 199.271 50.3829C198.575 50.0767 197.877 49.7705 197.18 49.4642C196.483 49.1582 195.786 48.8522 195.09 48.5462C192.692 47.4939 190.294 46.4415 187.894 45.387C186.477 44.7645 185.061 44.1431 183.644 43.5213C182.953 43.2181 182.262 42.9147 181.57 42.6112C181.868 42.6112 182.166 42.609 182.464 42.6068L182.465 42.6068C183.267 42.6025 184.071 42.6003 184.873 42.5981L184.886 42.5981C185.368 42.8094 185.851 43.0213 186.334 43.2332C186.817 43.4451 187.299 43.657 187.782 43.8683C188.967 44.3891 190.152 44.9093 191.338 45.4295C192.523 45.9496 193.709 46.4698 194.894 46.9905C195.164 47.1091 195.433 47.2277 195.703 47.3463C197.014 47.9226 198.324 48.4985 199.636 49.0713C199.862 49.1705 200.088 49.2696 200.314 49.3688C201.206 49.7599 202.099 50.1514 202.988 50.5442C203.505 50.7711 204.021 50.998 204.537 51.2249C205.543 51.6667 206.547 52.1081 207.552 52.5487Z" stroke="white"/>
<path d="M245.786 51.7774C246.141 51.8907 246.309 52.2676 246.205 52.5639C246.113 52.8297 245.796 53.0345 245.47 53.0345C245.396 53.0345 245.322 53.0236 245.248 53.0019L245.232 52.9967C242.811 52.2337 240.391 51.4706 237.967 50.7076C235.404 49.8992 232.837 49.0909 230.274 48.2847C229.1 47.9154 227.927 47.5455 226.754 47.1756C225.581 46.8058 224.409 46.436 223.235 46.0667L223.228 46.0643C220.618 45.2415 218.008 44.4188 215.396 43.596C214.225 43.2278 213.054 42.8595 211.891 42.4913H212.292C212.417 42.4902 212.542 42.4897 212.668 42.4891C212.794 42.4886 212.919 42.4881 213.044 42.487L216.248 42.4739C216.645 42.5981 217.041 42.7228 217.437 42.8475C217.833 42.9723 218.229 43.097 218.626 43.2212C219.91 43.6254 221.194 44.03 222.479 44.4347C223.763 44.8395 225.048 45.2442 226.332 45.6484C227.493 46.0145 228.654 46.3801 229.814 46.7456C230.974 47.1111 232.134 47.4765 233.294 47.8425C234.603 48.2543 235.912 48.6667 237.221 49.0791C238.529 49.4914 239.837 49.9037 241.146 50.3154C241.902 50.554 242.659 50.7925 243.416 51.0311C244.173 51.2697 244.93 51.5083 245.687 51.7469C245.725 51.7599 245.755 51.7686 245.786 51.7773L245.786 51.7774Z" fill="white"/>
<path d="M245.786 51.7774C246.141 51.8907 246.309 52.2676 246.205 52.5639C246.113 52.8297 245.796 53.0345 245.47 53.0345C245.396 53.0345 245.322 53.0236 245.248 53.0019L245.232 52.9967C242.811 52.2337 240.391 51.4706 237.967 50.7076C235.404 49.8992 232.837 49.0909 230.274 48.2847C229.1 47.9154 227.927 47.5455 226.754 47.1756C225.581 46.8058 224.409 46.436 223.235 46.0667L223.228 46.0643C220.618 45.2415 218.008 44.4188 215.396 43.596C214.225 43.2278 213.054 42.8595 211.891 42.4913H212.292C212.417 42.4902 212.542 42.4897 212.668 42.4891C212.794 42.4886 212.919 42.4881 213.044 42.487L216.248 42.4739C216.645 42.5981 217.041 42.7228 217.437 42.8475C217.833 42.9723 218.229 43.097 218.626 43.2212C219.91 43.6254 221.194 44.03 222.479 44.4347C223.763 44.8395 225.048 45.2442 226.332 45.6484C227.493 46.0145 228.654 46.3801 229.814 46.7456C230.974 47.1111 232.134 47.4765 233.294 47.8425C234.603 48.2543 235.912 48.6667 237.221 49.0791C238.529 49.4914 239.837 49.9037 241.146 50.3154C241.902 50.554 242.659 50.7925 243.416 51.0311C244.173 51.2697 244.93 51.5083 245.687 51.7469C245.725 51.7599 245.755 51.7686 245.786 51.7773L245.786 51.7774Z" stroke="white"/>
<path d="M182.465 42.609C182.93 42.6068 183.394 42.6046 183.861 42.6046C183.736 44.4435 183.47 46.2715 183.067 48.0625C181.121 55.9999 173.856 62.1027 165.54 65.5605C155.358 69.5803 143.757 69.576 132.749 69.3842C127.828 69.1603 122.899 69.0471 117.971 68.934C110.579 68.7643 103.187 68.5947 95.8181 68.0508C73.3234 66.9026 62.8413 58.5164 62.9459 42.3018C63.1924 42.2996 63.4389 42.298 63.6851 42.2963C63.9332 42.2947 64.1809 42.2931 64.4281 42.2909H64.5046C64.0199 66.225 88.1498 66.8503 110.193 67.4146C114.652 67.4321 119.143 67.6109 123.642 67.7901C135.402 68.2584 147.221 68.729 158.677 66.3274C167.583 64.2423 176.065 59.2027 179.971 51.9146C181.499 48.9732 182.147 45.8096 182.33 42.609H182.465Z" fill="white"/>
<path d="M182.465 42.609C182.93 42.6068 183.394 42.6046 183.861 42.6046C183.736 44.4435 183.47 46.2715 183.067 48.0625C181.121 55.9999 173.856 62.1027 165.54 65.5605C155.358 69.5803 143.757 69.576 132.749 69.3842C127.828 69.1603 122.899 69.0471 117.971 68.934C110.579 68.7643 103.187 68.5947 95.8181 68.0508C73.3234 66.9026 62.8413 58.5164 62.9459 42.3018C63.1924 42.2996 63.4389 42.298 63.6851 42.2963C63.9332 42.2947 64.1809 42.2931 64.4281 42.2909H64.5046C64.0199 66.225 88.1498 66.8503 110.193 67.4146C114.652 67.4321 119.143 67.6109 123.642 67.7901C135.402 68.2584 147.221 68.729 158.677 66.3274C167.583 64.2423 176.065 59.2027 179.971 51.9146C181.499 48.9732 182.147 45.8096 182.33 42.609H182.465Z" stroke="white"/>
<path d="M109.519 29.3835C110.609 28.8175 111.668 28.2675 112.72 27.7022C112.972 27.5664 113.076 27.3542 113.09 27.03C113.138 25.9546 114.232 25.186 115.398 25.4632C115.962 25.597 116.474 25.9507 117.011 26.2009C117.149 26.2646 117.386 26.3926 117.419 26.354C117.557 26.1932 117.686 25.9893 117.718 25.7854C117.743 25.6233 117.62 25.4387 117.565 25.2638C117.389 24.6991 117.547 24.2675 118.043 23.9626C118.095 23.9304 118.172 23.9176 118.2 23.8725C118.265 23.7696 118.307 23.6519 118.359 23.5407C118.247 23.5702 118.103 23.5651 118.029 23.6352C117.588 24.0533 117.077 24.2893 116.479 24.1369C116.151 24.0533 115.759 23.9124 115.566 23.6648C115.128 23.0988 114.288 22.8248 114.259 21.9616C114.25 21.6992 114.322 21.4342 114.361 21.1396C113.402 20.387 113.138 19.7117 113.407 18.5436C112.739 18.1635 112.208 17.6386 111.997 16.8494C111.981 16.789 111.87 16.7221 111.797 16.7131C110.792 16.5883 109.788 16.4429 108.78 16.3638C107.892 16.2943 106.998 16.3156 106.108 16.2686C105.461 16.2339 104.843 16.0152 104.649 15.3495C104.515 14.8902 104.36 14.5352 103.988 14.2168C103.675 13.9486 103.623 13.5125 103.779 13.1047C103.871 12.8629 104.012 12.6397 104.115 12.4017C104.492 11.5334 104.89 10.6721 105.224 9.78708C105.398 9.32269 105.486 8.83643 105.193 8.3328C104.966 7.94238 105.131 7.5333 105.391 7.17246C105.467 7.06698 105.547 6.87595 105.502 6.78526C105.047 5.87577 105.127 4.94313 105.59 4.1224C106.303 2.85723 107.122 1.64865 107.956 0.458085C108.318 -0.0584061 108.811 -0.107933 109.203 0.158995C109.597 0.427854 109.747 0.966214 109.491 1.48142C109.276 1.91365 108.972 2.3015 108.686 2.74274C108.991 2.87909 109.302 3.01867 109.64 3.16982C110.217 2.6231 110.8 2.0558 111.401 1.50843C111.614 1.31419 111.85 1.08714 112.113 1.02282C112.395 0.95335 112.763 0.974575 113.017 1.10579C113.344 1.27495 113.374 1.66344 113.28 2.01013C113.221 2.22946 113.128 2.44815 113.007 2.64047C112.754 3.04311 112.518 3.47341 112.191 3.81045C111.545 4.47681 111.13 5.13609 111.272 6.16457C111.394 7.04704 110.642 7.67095 109.735 7.6941C109.493 7.70053 109.25 7.66902 108.96 7.65229C109.046 8.79076 108.99 9.91636 108.637 11.0156C108.29 12.0981 107.737 13.059 106.952 13.9634C108.61 14.2985 110.206 13.9666 111.849 13.9872C111.981 12.3213 112.692 10.9629 114.089 10.0122C115.151 9.28988 116.345 9.08213 117.606 9.18247C119.75 9.35356 121.956 10.5924 122.291 13.8913C122.863 13.773 123.43 13.6804 123.982 13.5357C124.62 13.3691 125.239 13.1234 125.921 13.2764C126.424 13.3896 126.769 13.6553 126.966 14.1473C127.023 14.2908 127.222 14.4278 127.382 14.4722C129.142 14.9565 130.906 15.4241 132.67 15.8911C133.326 16.0647 133.942 16.2783 134.163 17.027C134.183 17.0958 134.286 17.1562 134.363 17.1897C135.054 17.4843 135.479 18.0426 135.82 18.6729C136.494 19.9214 136.761 21.2592 136.68 22.6749C136.666 22.9084 136.709 23.165 136.797 23.3818C137.363 24.7788 137.482 26.2087 137.152 27.6758C136.953 28.5628 136.707 28.7487 135.802 28.7448C135.749 28.7448 135.691 28.7802 135.641 28.8091C134.989 29.1944 134.788 29.1597 134.297 28.5718C133.479 29.0092 132.805 28.6309 132.868 27.7125C132.911 27.0815 133.098 26.4608 133.207 25.9051C132.838 25.6838 132.377 25.4696 132.001 25.1551C131.84 25.0207 131.784 24.674 131.8 24.4315C131.844 23.742 132.413 23.4705 133.848 23.4294C132.972 21.9905 132.534 20.4526 132.601 18.8472C131.391 18.5919 130.187 18.4266 129.042 18.0715C127.908 17.7197 126.835 17.1755 125.713 16.7073C125.737 17.2508 125.554 17.7891 124.998 18.1152C125.353 19.21 125.158 19.7586 124.208 20.4057C124.569 21.6278 124.233 22.4601 123.138 23.0705C123.054 23.1174 122.929 23.2036 122.93 23.2712C122.934 24.1832 122.248 24.4218 121.58 24.6804C121.512 24.7068 121.44 24.7241 121.333 24.7569C121.612 25.1782 121.961 25.6253 121.589 26.0626C121.314 26.3849 120.866 26.5586 120.422 26.8454C120.947 26.8583 121.45 26.8769 121.953 26.8827C123.223 26.8975 124.343 27.6944 124.766 28.8921C125.111 29.8698 124.87 30.558 124.069 31.0294C124.031 31.4031 124.047 31.744 123.957 32.0541C123.487 33.6582 122.969 35.2482 122.515 36.8568C122.355 37.4222 122.332 38.0262 122.23 38.7292C122.466 38.6134 122.573 38.5697 122.67 38.5112C124.257 37.5528 125.978 37.0871 127.83 37.0222C128.321 37.0048 128.803 36.7758 129.292 36.662C129.587 36.5938 129.889 36.5217 130.189 36.5172C131.373 36.5012 132.557 36.5089 133.742 36.5115C134.618 36.5134 135.252 37.1405 135.255 38.0185C135.26 39.5416 135.255 41.0647 135.255 42.5871C135.255 43.332 134.773 43.8864 134.023 43.9835C133.232 44.0858 132.579 43.8073 132.033 43.2387C131.365 42.5421 131.076 41.6809 130.939 40.7508C130.91 40.554 130.869 40.3591 130.825 40.1192C129.913 40.161 129.013 39.9931 128.114 40.3874C126.429 41.1258 124.709 41.7818 123.006 42.4784C121.771 42.9833 121.139 42.8219 120.325 41.7767C119.024 42.243 118.19 41.0782 118.518 39.885C118.658 39.3743 119.032 38.9292 119.293 38.4501C119.375 38.2989 119.492 38.1368 119.497 37.9773C119.544 36.2265 119.846 34.5272 120.441 32.8774C120.487 32.7487 120.388 32.5648 120.347 32.4091C120.336 32.3686 120.273 32.3422 120.264 32.3017C120.105 31.6238 119.593 31.6463 119.046 31.6289C117.439 31.5787 115.98 31.0552 114.722 30.2004C113.446 30.8191 112.214 31.4302 110.969 32.0142C110.582 32.1956 110.17 32.3416 109.755 32.4361C108.575 32.705 107.925 33.4955 107.571 34.5851C107.348 35.2701 107.176 35.9712 106.948 36.6536C106.493 38.0133 105.614 39.0277 104.347 39.685C104.06 39.8329 104.005 39.9912 104.017 40.2877C104.077 41.6371 103.768 42.9081 103.143 44.1051C102.82 44.7251 102.324 45.1644 101.624 45.1355C100.032 45.0699 98.4425 44.929 96.8532 44.801C96.6307 44.783 96.4096 44.6808 96.2 44.5907C94.799 43.9874 94.5836 42.3916 95.7718 41.43C96.4623 40.8711 97.2923 40.7103 98.1435 40.6665C98.845 40.6305 99.5503 40.6588 100.281 40.6588C100.301 39.8895 100.602 39.2843 101.218 38.8398C101.309 38.7742 101.357 38.6417 101.411 38.5337C102.208 36.9411 103.048 35.3685 103.785 33.7483C104.659 31.827 106.025 30.5213 108.065 29.9289C108.548 29.7868 109.012 29.5732 109.519 29.3835ZM112.208 2.20502C112.188 2.17415 112.167 2.14327 112.147 2.1124C112.107 2.15742 112.068 2.2018 111.998 2.2687C111.998 2.2687 111.987 2.30472 111.932 2.33173C111.401 2.83664 110.868 3.33898 110.341 3.84711C110.137 4.04329 109.981 4.26005 110.215 4.60995C111.081 4.05036 111.517 3.16532 112.107 2.34395C112.125 2.31179 112.143 2.28092 112.208 2.20502ZM134.368 19.2936C134.437 19.4087 134.505 19.5239 134.574 19.639C134.604 19.6197 134.633 19.601 134.664 19.5817C134.611 19.4621 134.559 19.3425 134.477 19.1527C134.404 18.8562 134.341 18.5565 134.253 18.2645C134.209 18.1198 134.117 17.9892 134.047 17.8522C133.96 17.9036 133.814 17.9416 133.799 18.0098C133.763 18.1661 133.735 18.368 133.806 18.4947C133.954 18.7591 134.168 18.9861 134.368 19.2936ZM134.774 20.1368C134.849 20.4475 134.948 20.7556 134.996 21.0708C135.045 21.402 135.018 21.7455 135.08 22.0729C135.11 22.235 135.265 22.3739 135.364 22.5231C135.455 22.3572 135.573 22.1989 135.627 22.0214C135.658 21.9191 135.605 21.7783 135.56 21.667C135.342 21.1306 135.114 20.5987 134.879 19.9998C134.811 19.8886 134.743 19.7773 134.675 19.666C134.649 19.6814 134.624 19.6975 134.599 19.713C134.647 19.8307 134.697 19.9484 134.774 20.1368ZM118.22 21.5403C117.618 22.098 117.016 22.6556 116.393 23.2338C116.873 23.3811 117.351 23.2827 117.655 22.8994C117.958 22.5173 118.122 22.0259 118.37 21.539C118.365 21.5152 118.359 21.4914 118.354 21.467C118.328 21.485 118.304 21.503 118.22 21.5403ZM106.905 12.365C107.744 11.4182 108.09 10.3254 107.923 8.94641C107.277 10.1067 106.886 11.2214 106.656 12.4467C106.722 12.4306 106.788 12.4152 106.905 12.365ZM106.056 35.1221C105.239 36.141 104.599 37.2524 104.293 38.5369C105.333 37.6769 105.986 36.5989 106.193 35.2C106.168 35.1678 106.142 35.1356 106.056 35.1221ZM119.651 18.1005C119.497 18.0008 119.222 17.9049 119.218 17.8007C119.213 17.6264 119.368 17.4373 119.484 17.2752C119.542 17.1955 119.663 17.1607 119.755 17.1067C121.521 16.0647 122.109 13.8399 121.088 12.0589C120.104 10.3434 118.161 9.62499 116.048 10.2347C114.427 10.7024 113.231 11.653 112.797 13.3607C112.6 14.1383 112.674 14.9488 112.504 15.747C112.315 16.6314 112.937 17.1871 113.719 17.456C113.84 18.0117 113.942 18.5378 114.068 19.0582C114.309 20.0577 114.945 20.6752 115.978 20.6758C117.091 20.6771 118.208 20.5401 119.316 20.4083C119.821 20.3478 120.209 20.0082 120.277 19.4814C120.338 19.0054 120.289 18.5147 120.289 18.0111C120.092 18.0394 119.91 18.0664 119.651 18.1005ZM114.407 26.5515C114.247 26.7875 114.086 27.0229 113.919 27.2693C115.019 27.7427 115.248 28.1145 115.255 29.2671C115.256 29.3976 115.379 29.5662 115.494 29.6524C116.834 30.6545 118.341 31.1381 120.015 31.0507C120.18 31.0423 120.388 30.9297 120.489 30.7979C121.332 29.6987 122.463 29.4202 123.671 30.0408C124.117 29.0394 123.637 27.8881 122.569 27.6443C121.418 27.3812 120.254 27.3716 119.18 28.0251C118.472 28.456 117.994 28.3942 117.423 27.7819C117.131 27.4693 116.902 27.0982 116.623 26.7734C116.002 26.0511 115.249 25.9655 114.407 26.5515ZM121.424 38.9267C121.504 36.6973 121.964 34.5484 122.774 32.4709C122.901 32.1467 123.006 31.7961 123.025 31.452C123.061 30.8082 122.5 30.419 121.909 30.6744C121.655 30.7844 121.415 30.9851 121.237 31.2005C121.008 31.4771 121.028 31.7865 121.294 32.0714C121.379 32.1615 121.442 32.33 121.424 32.449C121.14 34.3291 120.848 36.2085 120.538 38.0847C120.504 38.2905 120.392 38.5086 120.254 38.6675C119.83 39.1576 119.512 39.6953 119.483 40.3494C119.474 40.5643 119.614 40.7862 119.686 41.0049C119.9 40.9245 120.151 40.891 120.317 40.7534C120.586 40.5308 120.781 40.2182 121.042 39.9841C121.342 39.7152 121.467 39.4046 121.424 38.9267ZM109.284 31.3974C110.341 30.8153 111.484 30.4937 112.651 30.2139C113.107 30.1045 113.58 29.882 113.935 29.5803C114.358 29.2208 114.282 28.5666 113.869 28.3055C113.773 28.2444 113.53 28.256 113.463 28.3312C112.793 29.0748 111.938 29.5063 111.018 29.8286C110.238 30.1019 109.436 30.3116 108.665 30.6043C108.091 30.8217 107.551 31.1266 107.054 31.3646C107.248 31.8071 107.399 32.1518 107.541 32.476C108.083 32.1364 108.652 31.7801 109.284 31.3974ZM134.057 25.7906C133.904 26.1572 133.735 26.518 133.609 26.8937C133.565 27.0223 133.634 27.1876 133.652 27.3362C133.756 27.2448 133.888 27.1709 133.96 27.0583C134.058 26.9059 134.102 26.72 134.183 26.5553C134.298 26.3219 134.329 25.9398 134.701 26.0331C135.096 26.1315 135.021 26.4981 134.987 26.8049C134.973 26.9265 134.924 27.048 134.93 27.167C134.936 27.2822 134.991 27.3947 135.025 27.5086C135.074 27.5066 135.123 27.5041 135.173 27.5021C135.232 27.1825 135.261 26.8531 135.362 26.547C135.423 26.363 135.593 26.2157 135.715 26.0517C135.851 26.2112 136.061 26.3514 136.108 26.5335C136.197 26.8757 136.192 27.2423 136.227 27.5986C136.27 27.5999 136.314 27.6012 136.358 27.6025C136.374 27.2674 136.42 26.9297 136.4 26.5965C136.351 25.7578 136.3 24.9165 136.189 24.0848C136.142 23.7304 135.891 23.4487 135.492 23.3747C135.073 23.2969 134.828 23.5316 134.633 23.8513C134.376 24.2745 133.992 24.3903 133.527 24.3215C133.405 24.3035 133.275 24.2527 133.165 24.281C133.054 24.3086 132.894 24.4045 132.88 24.4907C132.863 24.5942 132.955 24.7434 133.043 24.8271C133.11 24.8894 133.244 24.8843 133.349 24.9017C133.899 24.993 134.041 25.1538 134.057 25.7906ZM122.884 41.4043C123.134 41.3335 123.39 41.2763 123.635 41.1901C125.107 40.673 126.579 40.1539 128.044 39.6175C128.162 39.5744 128.313 39.3891 128.305 39.2811C128.279 38.9254 128.185 38.5742 128.116 38.2114C128.047 38.2423 128.014 38.2474 127.995 38.2667C126.365 39.8567 124.334 40.3295 122.148 40.3526C121.742 40.3571 121.274 40.6453 121.169 41.0364C121.046 41.4924 121.375 41.8294 121.843 41.7117C122.169 41.6294 122.49 41.5239 122.884 41.4043ZM128.063 15.6936C127.728 15.5836 127.4 15.4299 127.058 15.3823C126.901 15.3604 126.643 15.5071 126.564 15.6511C126.5 15.7676 126.601 16.0133 126.692 16.1631C126.753 16.2635 126.917 16.3207 127.047 16.3561C128.686 16.8063 130.323 17.2598 131.968 17.6888C132.55 17.8406 132.921 17.6895 132.97 17.3563C133.021 17.0141 132.714 16.7755 132.158 16.6513C130.814 16.3503 129.476 16.0274 128.063 15.6936ZM106.331 4.45365C105.96 5.33355 105.992 6.16392 106.673 6.88753C107.204 7.45161 107.966 7.45161 108.519 6.93898C108.621 6.84379 108.8 6.77947 108.941 6.78397C109.466 6.80198 109.977 6.80648 110.231 6.22824C110.402 5.83846 110.181 5.38372 109.637 4.94313C109.601 4.91418 109.569 4.87109 109.528 4.8608C109.407 4.83057 109.283 4.8132 109.161 4.79069C109.148 4.93412 109.088 5.09557 109.135 5.21585C109.205 5.39594 109.388 5.53294 109.453 5.71368C109.507 5.86484 109.526 6.14013 109.443 6.20187C109.318 6.29449 109.082 6.28742 108.909 6.24883C108.797 6.22374 108.726 6.05265 108.617 5.97225C108.486 5.87577 108.342 5.75228 108.192 5.73491C107.709 5.67831 107.215 5.68088 107.116 5.03639C107.109 4.98879 107.007 4.95792 106.954 4.91418C106.769 4.76432 106.587 4.61188 106.331 4.45365ZM105.379 32.5789C105.332 32.6748 105.283 32.7706 105.237 32.8671C104.331 34.7787 103.421 36.6877 102.529 38.6057C102.463 38.7472 102.531 38.9518 102.537 39.1267C102.707 39.0553 102.91 39.0186 103.038 38.9016C103.166 38.7845 103.234 38.5928 103.302 38.423C103.992 36.6928 104.706 34.9858 106.195 33.7399C106.392 33.5752 106.439 33.1957 106.49 32.9044C106.549 32.5641 106.374 32.2515 106.043 32.2059C105.85 32.1795 105.622 32.4053 105.379 32.5789ZM118.361 26.628C118.169 26.8178 117.978 27.0075 117.737 27.2468C117.961 27.295 118.12 27.3581 118.278 27.3581C118.93 27.3561 119.313 26.9393 119.603 26.428C119.83 26.0273 120.002 25.5905 120.599 25.7494C120.612 25.7526 120.637 25.7063 120.656 25.6838C120.476 25.3564 120.176 24.6669 120.207 24.6508C119.974 24.4476 119.74 24.2443 119.499 24.0333C119.376 24.4366 119.154 24.7145 118.714 24.7814C118.44 24.8232 118.411 24.9956 118.548 25.2188C118.845 25.7057 118.748 26.1546 118.361 26.628ZM111.146 15.8949C111.454 15.8274 111.823 15.2839 111.713 15.006C111.566 14.6349 111.278 14.878 111.041 14.8896C110.145 14.9333 109.243 15.0433 108.352 14.9848C107.598 14.9353 106.857 14.6851 106.11 14.5281C105.816 14.4664 105.525 14.4837 105.451 14.8375C105.374 15.1996 105.623 15.3816 105.937 15.4273C106.191 15.4646 106.457 15.4415 106.715 15.4177C108.199 15.2832 109.65 15.4479 111.146 15.8949ZM106.477 10.6843C106.529 10.5242 106.583 10.364 106.634 10.2032C106.824 9.61341 107.024 9.02617 107.198 8.43185C107.265 8.20287 107.282 7.9546 106.918 7.94366C106.83 7.94109 106.742 7.90829 106.655 7.88706C106.531 7.85683 106.408 7.82531 106.284 7.7938C106.26 7.95331 106.212 8.11283 106.216 8.2717C106.221 8.6023 106.307 8.93934 106.267 9.26158C106.106 10.5602 105.695 11.7804 104.927 12.8474C104.64 13.2469 104.55 13.58 104.897 13.9878C104.957 13.966 105.068 13.9602 105.088 13.9145C105.55 12.8642 106.002 11.8087 106.477 10.6843ZM125.299 13.9241C124.381 14.2194 123.46 14.503 122.55 14.8214C122.419 14.8677 122.345 15.0793 122.245 15.2138C122.383 15.3154 122.508 15.464 122.663 15.5045C122.812 15.5437 122.998 15.4942 123.156 15.4453C123.945 15.199 124.737 14.9584 125.511 14.6715C125.683 14.6079 125.788 14.3647 125.924 14.2039C125.74 14.1049 125.555 14.0058 125.299 13.9241ZM134.332 39.6773C134.332 39.0006 134.323 38.324 134.337 37.6473C134.343 37.3605 134.263 37.2383 133.94 37.3618C133.94 39.1981 133.936 41.0422 133.951 42.8856C133.952 42.9808 134.12 43.0747 134.21 43.1692C134.251 43.1403 134.291 43.112 134.332 43.083C134.332 41.9787 134.332 40.8743 134.332 39.6773ZM124.388 17.1556C124.441 17.1003 124.521 17.0533 124.542 16.9877C124.596 16.8173 124.625 16.6391 124.665 16.4642C124.503 16.4886 124.309 16.4642 124.184 16.5452C123.397 17.0585 122.543 17.2604 121.608 17.2154C121.429 17.207 121.24 17.3807 121.056 17.4701C121.22 17.6206 121.384 17.9004 121.548 17.9004C122.529 17.8998 123.517 17.8618 124.388 17.1556ZM120.518 21.3718C121.091 22.2838 122.114 22.581 122.87 22.0304C123.003 21.9333 123.048 21.7152 123.134 21.5525C122.978 21.4946 122.816 21.375 122.667 21.3898C122.051 21.4522 121.521 21.3004 121.044 20.9016C120.927 20.8045 120.727 20.809 120.565 20.7665C120.541 20.9466 120.518 21.1267 120.518 21.3718ZM98.0973 43.4612C97.5385 43.368 96.976 43.2921 96.4224 43.175C96.0971 43.1062 96.0547 43.2361 96.0862 43.5146C97.9886 43.8337 99.8718 44.1495 101.766 44.4672C101.788 44.3167 101.802 44.2157 101.82 44.0871C100.587 43.8819 99.3806 43.6819 98.0973 43.4612ZM121.672 19.9014C122.006 19.9214 122.346 19.9915 122.673 19.9516C123.289 19.8757 123.803 19.5702 124.177 19.0659C124.238 18.9836 124.249 18.8343 124.223 18.7308C124.212 18.6871 124.019 18.6305 123.957 18.6652C123.17 19.1071 122.329 19.2634 121.435 19.199C121.327 19.1913 121.114 19.3213 121.116 19.3804C121.121 19.5091 121.217 19.6499 121.31 19.7528C121.375 19.8249 121.5 19.8422 121.672 19.9014ZM123.385 39.1409C123.328 39.1949 123.271 39.2483 123.172 39.3428C124.539 39.3023 125.743 39.0051 126.834 38.0937C125.56 38.1741 124.465 38.5157 123.385 39.1409ZM101.758 41.859C101.19 42.0854 100.773 42.445 100.637 43.1049C101.084 43.1814 101.5 43.2528 101.959 43.3313C102.048 42.8052 102.133 42.3041 102.226 41.7535C102.053 41.7921 101.939 41.8172 101.758 41.859ZM98.2143 42.7582C98.1725 42.4212 98.1455 42.0816 98.0786 41.7497C98.0632 41.6738 97.907 41.5664 97.8234 41.5728C97.1907 41.6217 96.7059 41.9388 96.2668 42.4514C96.9387 42.5653 97.5366 42.6662 98.2143 42.7582ZM133.099 43.0168C133.148 42.9891 133.24 42.9621 133.241 42.9345C133.249 42.3266 133.247 41.7188 133.247 41.0248C132.919 41.1335 132.65 41.2184 132.384 41.313C132.094 41.4159 131.999 41.6391 132.166 41.8796C132.432 42.261 132.748 42.6071 133.099 43.0168ZM133 37.3187C132.544 37.3187 132.087 37.3187 131.625 37.3187C131.807 38.1375 132.385 38.6282 133.191 38.6199C133.157 38.1857 133.124 37.7528 133 37.3187ZM120.731 23.0345C120.506 22.8672 120.282 22.7 120.037 22.518C119.945 23.1155 120.257 23.6815 120.746 23.8462C121.103 23.9665 121.423 23.9291 121.668 23.5329C121.347 23.367 121.065 23.2216 120.731 23.0345ZM133.798 21.566C133.924 21.8497 134.05 22.1327 134.176 22.4163C134.268 21.5345 134.176 20.7099 133.803 19.949C133.728 19.9619 133.653 19.9741 133.578 19.987C133.645 20.4893 133.713 20.991 133.798 21.566ZM101.667 40.4466C102.131 40.5192 102.595 40.5919 103.085 40.6685C103.108 40.4967 103.126 40.3687 103.147 40.2182C102.543 40.1179 101.975 40.0233 101.403 39.9281C101.292 40.1886 101.223 40.3977 101.667 40.4466ZM129.285 38.5645C129.285 38.8173 129.285 39.0701 129.285 39.355C129.482 39.3332 129.609 39.319 129.724 39.3068C129.724 38.6893 129.724 38.1143 129.724 37.5142C129.57 37.5213 129.442 37.5271 129.285 37.5341C129.285 37.8693 129.285 38.1722 129.285 38.5645ZM115.934 22.1166C116.106 22.0143 116.278 21.9127 116.482 21.7911C116.11 21.6824 115.82 21.5544 115.522 21.5306C115.386 21.5197 115.234 21.7159 115.089 21.8182C115.196 21.9404 115.282 22.1102 115.417 22.1706C115.539 22.2247 115.715 22.1603 115.934 22.1166ZM108.513 3.76221C108.188 3.99891 107.917 4.26326 108.016 4.83057C108.327 4.52826 108.58 4.29607 108.814 4.04522C108.884 3.96996 108.898 3.84325 108.938 3.7397C108.816 3.7352 108.693 3.73069 108.513 3.76221ZM108.571 1.29682C108.581 1.20806 108.592 1.1193 108.602 1.03053C108.558 1.01059 108.515 0.990655 108.472 0.970716C108.184 1.37979 107.896 1.78822 107.609 2.1973C107.678 2.24876 107.746 2.30021 107.815 2.35167C108.055 2.02106 108.295 1.68981 108.571 1.29682ZM107.258 3.45283C107.221 3.61749 107.183 3.78215 107.145 3.94681C107.203 3.96482 107.26 3.98218 107.317 4.00019C107.47 3.7352 107.624 3.4702 107.777 3.20455C107.727 3.16661 107.676 3.12866 107.626 3.09006C107.516 3.19362 107.406 3.29653 107.258 3.45283Z" fill="#FBFBFB"/>
<path d="M113.916 49.1877C116.254 49.6707 118.551 50.1505 120.851 50.6188C120.956 50.64 121.132 50.5924 121.191 50.5133C121.696 49.8469 122.342 49.6077 123.138 49.8611C123.838 50.0843 124.211 50.6889 124.256 51.626C124.854 51.8524 125.485 52.0435 126.071 52.3271C126.604 52.5851 127.122 52.9009 127.585 53.2681C128.087 53.665 128.31 54.2426 128.336 54.8909C128.361 55.5521 128.071 56.0268 127.546 56.4089C126.994 56.8102 126.97 57.0855 127.362 57.6445C127.441 57.7577 127.527 57.867 127.599 57.9854C127.854 58.4009 127.8 58.6781 127.409 58.9785C127.324 59.0441 127.231 59.0994 127.142 59.1592C126.555 59.5541 126.504 59.7477 126.826 60.3736C127.224 61.148 126.814 61.9276 125.93 61.9083C125.205 61.8922 124.474 61.7204 123.763 61.5487C118.216 60.2083 112.673 58.8563 107.131 57.494C105.933 57.1994 104.783 56.7691 103.792 56.0024C102.917 55.3257 102.255 54.4876 102.022 53.3865C101.715 51.9322 102.283 50.7667 103.331 49.8026C104.316 48.8976 105.531 48.5541 106.829 48.4512C107.15 48.4255 107.477 48.4113 107.796 48.4428C108.181 48.4814 108.418 48.421 108.598 48.0042C108.851 47.4169 109.605 47.0928 110.22 47.1847C110.907 47.287 111.445 47.763 111.616 48.4223C111.65 48.5554 111.675 48.6918 111.711 48.8603C112.426 48.967 113.151 49.0751 113.916 49.1877ZM125.716 53.3749C125.754 53.3807 125.792 53.3858 125.83 53.3916C125.832 53.3813 125.833 53.3704 125.835 53.3601C125.796 53.353 125.755 53.3453 125.714 53.2771C125.623 53.2366 125.532 53.1955 125.383 53.1234C125.187 53.0379 124.997 52.9285 124.793 52.8713C123.375 52.4744 121.959 52.075 120.534 51.7019C116.865 50.7403 113.188 49.8077 109.39 49.5099C108.472 49.4379 107.543 49.499 106.614 49.499C106.68 49.5118 106.747 49.5273 106.814 49.5376C109.498 49.9576 112.203 50.2747 114.862 50.822C118.407 51.5514 121.915 52.459 125.488 53.3267C125.566 53.3273 125.645 53.3286 125.716 53.3749ZM126.463 57.8214C126.373 57.7377 126.282 57.6554 126.193 57.5705C125.556 56.9678 125.7 56.2294 126.514 55.9104C126.671 55.8487 126.838 55.8049 126.984 55.7239C127.378 55.5026 127.404 55.0961 127.039 54.8363C126.916 54.7481 126.773 54.6774 126.629 54.6291C125.029 54.0985 123.452 53.474 121.82 53.07C119.126 52.403 116.4 51.8615 113.68 51.3025C111.938 50.9449 110.189 50.6059 108.43 50.3448C107.03 50.137 105.634 50.2444 104.35 50.9359C102.515 51.9232 102.334 54.0233 104.023 55.2511C104.604 55.6737 105.309 55.9902 106.005 56.1773C108.804 56.9273 111.63 57.5757 114.429 58.3218C117.922 59.2518 121.507 59.8545 124.867 61.2599C125.204 61.4014 125.62 61.5641 125.867 61.1647C126.111 60.7691 125.738 60.5318 125.486 60.2893C125.039 59.8584 124.939 59.3914 125.298 59.0409C125.497 58.8466 125.821 58.7495 126.107 58.6813C126.617 58.5604 126.74 58.3533 126.463 57.8214ZM110.042 48.0196C109.973 48.1701 109.872 48.3168 109.851 48.4744C109.844 48.5342 110.02 48.677 110.112 48.6757C110.226 48.6737 110.395 48.5882 110.438 48.4924C110.576 48.1856 110.404 48.0402 110.042 48.0196ZM123.016 51.3488C123.015 51.1764 123.042 50.9963 122.997 50.8368C122.983 50.7905 122.718 50.7487 122.646 50.8047C122.549 50.8793 122.455 51.1391 122.488 51.1674C122.614 51.2742 122.792 51.3199 123.016 51.3488Z" fill="#FBFBFB"/>
<path d="M117.19 21.4374C116.965 21.8806 116.801 22.3726 116.497 22.754C116.193 23.1367 115.716 23.2351 115.235 23.0885C115.859 22.5103 116.461 21.9526 117.109 21.402C117.155 21.4084 117.19 21.4374 117.19 21.4374Z" fill="#FBFBFB"/>
<path d="M114.743 21.988C114.558 22.0156 114.382 22.0799 114.259 22.0253C114.124 21.9648 114.039 21.795 113.931 21.6728C114.076 21.5705 114.228 21.375 114.365 21.3853C114.662 21.4091 114.952 21.5371 115.325 21.6458C115.12 21.7673 114.949 21.8696 114.743 21.988Z" fill="#FBFBFB"/>
<path d="M105.017 35.0784C104.989 35.0784 104.979 35.0553 104.964 34.9961C104.985 34.9909 105.011 35.0231 105.017 35.0784Z" fill="#FBFBFB"/>
<path d="M117.138 21.3924C117.147 21.3583 117.171 21.3403 117.196 21.3223C117.202 21.346 117.207 21.3698 117.201 21.4162C117.191 21.4374 117.155 21.4084 117.138 21.3924Z" fill="#FBFBFB"/>
<path d="M110.074 48.0106C110.403 48.0402 110.576 48.1856 110.438 48.4924C110.395 48.5882 110.225 48.6738 110.112 48.6757C110.02 48.677 109.844 48.5342 109.851 48.4744C109.872 48.3168 109.973 48.1701 110.074 48.0106Z" fill="#FBFBFB"/>
<path d="M122.984 51.3688C122.793 51.3199 122.614 51.2742 122.488 51.1668C122.454 51.1385 122.549 50.8793 122.645 50.804C122.718 50.7481 122.983 50.7899 122.996 50.8362C123.042 50.9957 123.015 51.1764 122.984 51.3688Z" fill="#FBFBFB"/>
<path d="M125.718 53.3357C125.756 53.3453 125.796 53.353 125.836 53.3601C125.834 53.3704 125.833 53.3813 125.831 53.3916C125.793 53.3858 125.755 53.3807 125.721 53.3518C125.724 53.3292 125.72 53.3337 125.718 53.3357Z" fill="#FBFBFB"/>
<path d="M115.961 15.3701C116.164 14.8362 116.534 14.5654 117.062 14.5841C117.528 14.6002 117.879 14.851 118.035 15.3C118.187 15.7399 118.109 16.1554 117.752 16.4757C117.402 16.7896 116.994 16.8617 116.558 16.6668C116.092 16.4577 115.899 16.0474 115.961 15.3701Z" fill="#FBFBFB"/>
<path d="M113.861 16.2545C113.337 16.7234 112.846 16.7813 112.388 16.4513C111.992 16.1664 111.827 15.6376 111.992 15.1842C112.161 14.7166 112.659 14.4156 113.157 14.4786C113.991 14.5847 114.344 15.435 113.861 16.2545Z" fill="#FBFBFB"/>
<path d="M115.021 19.5522C114.73 19.5509 114.467 19.6023 114.245 19.5296C114.081 19.4763 113.867 19.2627 113.865 19.1174C113.862 18.9778 114.098 18.7186 114.239 18.7121C115.082 18.6735 115.928 18.6735 116.771 18.7115C116.909 18.7179 117.16 19.0029 117.136 19.1141C117.102 19.2807 116.883 19.5161 116.724 19.5309C116.175 19.5817 115.619 19.5515 115.021 19.5522Z" fill="#FBFBFB"/>
<path d="M115.685 16.6693C115.719 16.7768 115.754 16.8488 115.763 16.9234C115.802 17.2238 116.102 17.6496 115.737 17.7904C115.347 17.9416 114.855 17.8477 114.409 17.8213C114.354 17.8181 114.237 17.537 114.279 17.4405C114.471 16.9974 114.672 16.5504 114.942 16.1535C115.114 15.9001 115.372 15.9586 115.516 16.2538C115.577 16.376 115.622 16.5073 115.685 16.6693Z" fill="#FBFBFB"/>
<path d="M106.761 52.96C106.509 52.8095 106.299 52.661 106.088 52.513C106.253 52.2956 106.376 52.0158 106.592 51.8737C107.008 51.5984 107.507 51.4453 107.986 51.6646C108.214 51.7688 108.497 52.0557 108.498 52.2615C108.499 52.4596 108.203 52.7613 107.977 52.8353C107.611 52.9555 107.195 52.9279 106.761 52.96Z" fill="#FBFBFB"/>
<path d="M106.014 54.5777C105.943 54.1287 106.188 53.9789 106.54 53.9885C107.085 54.0027 107.548 54.2246 107.901 54.6472C108.109 54.8967 108.18 55.2196 107.953 55.4409C107.789 55.6017 107.462 55.711 107.237 55.6731C106.641 55.5734 106.221 55.2029 106.014 54.5777Z" fill="#FBFBFB"/>
<path d="M108.821 53.8708C108.993 53.7358 109.145 53.5711 109.32 53.5434C109.689 53.4849 110.025 53.6483 110.08 54.0284C110.107 54.2239 109.95 54.5378 109.779 54.6497C109.462 54.8569 109.118 54.7449 108.916 54.4137C108.83 54.2741 108.843 54.0754 108.821 53.8708Z" fill="#FBFBFB"/>
</svg>
