<svg width="181" height="265" viewBox="0 0 181 265" fill="none" xmlns="http://www.w3.org/2000/svg">
<path d="M62.0492 125.575C66.7093 123.156 71.2347 120.806 75.7271 118.389C76.807 117.809 77.2494 116.902 77.3098 115.517C77.5159 110.921 82.1925 107.636 87.174 108.821C89.5865 109.393 91.7709 110.904 94.0679 111.974C94.6559 112.246 95.6698 112.793 95.81 112.628C96.4007 111.941 96.953 111.069 97.0876 110.198C97.1948 109.505 96.67 108.716 96.4364 107.969C95.6808 105.555 96.3595 103.711 98.478 102.408C98.7005 102.27 99.0275 102.215 99.1484 102.023C99.4259 101.583 99.6073 101.08 99.8271 100.605C99.349 100.731 98.7335 100.709 98.4175 101.009C96.5326 102.795 94.3509 103.804 91.7928 103.153C90.3915 102.795 88.7154 102.193 87.8939 101.135C86.02 98.7162 82.4315 97.5452 82.3078 93.8563C82.2694 92.7347 82.5771 91.6022 82.742 90.3433C78.6424 87.1271 77.5159 84.2409 78.6672 79.249C75.8096 77.6245 73.54 75.3814 72.6387 72.0086C72.5701 71.7502 72.0975 71.4644 71.7842 71.4259C67.4896 70.8926 63.2005 70.2714 58.8894 69.9333C55.0975 69.6364 51.2755 69.7271 47.4727 69.5264C44.7058 69.378 42.0653 68.4434 41.2355 65.5984C40.664 63.6357 40.0018 62.1184 38.4109 60.7577C37.0727 59.6115 36.8502 57.7477 37.5179 56.005C37.9135 54.9714 38.5125 54.0176 38.9549 53.0005C40.5651 49.2896 42.2659 45.609 43.6919 41.8266C44.4393 39.8419 44.813 37.7638 43.56 35.6115C42.5901 33.943 43.2962 32.1947 44.4091 30.6526C44.7333 30.2018 45.074 29.3854 44.8817 28.9978C42.9391 25.111 43.2798 21.1252 45.2581 17.6177C48.3053 12.2108 51.8058 7.04576 55.3696 1.9577C56.9165 -0.249607 59.024 -0.461269 60.6973 0.679491C62.3817 1.8285 63.0219 4.12926 61.9283 6.33107C61.0106 8.17828 59.7109 9.83581 58.4882 11.7215C59.7906 12.3043 61.1205 12.9008 62.5658 13.5467C65.0304 11.2102 67.5226 8.78576 70.0917 6.44652C71.0011 5.61637 72.0123 4.64604 73.1333 4.37116C74.3423 4.07429 75.914 4.165 76.9966 4.72575C78.3979 5.44869 78.5243 7.10898 78.1231 8.5906C77.8703 9.52794 77.4719 10.4625 76.9554 11.2844C75.8728 13.0052 74.8671 14.8442 73.4686 16.2845C70.7071 19.1323 68.9321 21.9499 69.5394 26.3452C70.0614 30.1166 66.8466 32.783 62.9724 32.8819C61.9393 32.9094 60.9007 32.7747 59.6614 32.7033C60.0296 37.5687 59.7878 42.3791 58.2794 47.0768C56.7956 51.7031 54.4326 55.8098 51.0804 59.6747C58.164 61.1068 64.9837 59.6884 72.0068 59.7764C72.5701 52.6569 75.609 46.8514 81.5797 42.7887C86.1189 39.7017 91.2213 38.8139 96.6095 39.2427C105.773 39.9739 115.2 45.2681 116.632 59.3668C119.077 58.861 121.498 58.4652 123.858 57.8467C126.584 57.1348 129.23 56.0847 132.145 56.7389C134.294 57.2227 135.77 58.358 136.61 60.4608C136.855 61.0738 137.704 61.6593 138.391 61.849C145.911 63.9189 153.451 65.9172 160.991 67.9129C163.793 68.6551 166.425 69.5677 167.371 72.7673C167.456 73.0614 167.893 73.3198 168.225 73.4628C171.176 74.7217 172.995 77.1077 174.451 79.8015C177.331 85.137 178.474 90.8545 178.125 96.9047C178.067 97.9025 178.251 98.9993 178.628 99.9256C181.043 105.896 181.554 112.007 180.145 118.277C179.293 122.067 178.243 122.862 174.374 122.845C174.146 122.845 173.899 122.996 173.688 123.12C170.899 124.767 170.039 124.618 167.942 122.106C164.444 123.975 161.565 122.359 161.834 118.433C162.018 115.737 162.818 113.084 163.285 110.709C161.705 109.764 159.738 108.848 158.127 107.504C157.44 106.93 157.204 105.448 157.27 104.412C157.457 101.465 159.891 100.305 166.024 100.129C162.279 93.9799 160.408 87.4075 160.694 80.5465C155.523 79.4552 150.376 78.7487 145.483 77.2314C140.638 75.7278 136.05 73.4023 131.255 71.4011C131.359 73.7239 130.576 76.0247 128.2 77.4183C129.719 82.0968 128.887 84.4415 124.825 87.2069C126.367 92.4296 124.93 95.9866 120.253 98.5952C119.893 98.7959 119.36 99.1642 119.363 99.4529C119.38 103.351 116.448 104.37 113.593 105.476C113.302 105.588 112.994 105.662 112.538 105.803C113.73 107.603 115.222 109.514 113.631 111.383C112.458 112.76 110.54 113.502 108.644 114.728C110.889 114.783 113.038 114.863 115.187 114.887C120.613 114.951 125.4 118.356 127.208 123.475C128.683 127.653 127.653 130.594 124.229 132.609C124.067 134.206 124.139 135.663 123.751 136.988C121.745 143.844 119.528 150.639 117.588 157.513C116.907 159.93 116.808 162.511 116.371 165.515C117.379 165.02 117.838 164.834 118.253 164.583C125.034 160.488 132.39 158.497 140.303 158.22C142.402 158.146 144.46 157.167 146.554 156.681C147.813 156.389 149.104 156.081 150.387 156.062C155.446 155.993 160.507 156.026 165.568 156.037C169.313 156.046 172.022 158.726 172.036 162.478C172.055 168.987 172.036 175.496 172.036 182.003C172.036 185.186 169.978 187.555 166.772 187.97C163.392 188.407 160.598 187.217 158.268 184.787C155.413 181.81 154.176 178.13 153.591 174.155C153.467 173.314 153.291 172.481 153.105 171.455C149.206 171.634 145.359 170.917 141.518 172.602C134.319 175.757 126.966 178.561 119.687 181.538C114.412 183.696 111.711 183.006 108.229 178.539C102.668 180.532 99.1072 175.554 100.506 170.455C101.105 168.272 102.704 166.37 103.819 164.322C104.171 163.676 104.671 162.984 104.69 162.302C104.894 154.82 106.185 147.557 108.724 140.506C108.922 139.957 108.499 139.171 108.323 138.505C108.279 138.332 108.007 138.219 107.968 138.046C107.29 135.149 105.103 135.245 102.764 135.171C95.8979 134.957 89.6606 132.719 84.2834 129.066C78.832 131.71 73.5647 134.322 68.2452 136.818C66.5938 137.593 64.8326 138.217 63.0576 138.621C58.0156 139.77 55.2377 143.148 53.7237 147.805C52.773 150.732 52.0366 153.728 51.0612 156.645C49.1186 162.456 45.3625 166.791 39.9441 169.6C38.7214 170.232 38.4823 170.908 38.5373 172.176C38.7928 177.943 37.4712 183.374 34.8004 188.49C33.4183 191.14 31.2999 193.017 28.3104 192.893C21.5044 192.613 14.7121 192.011 7.91984 191.464C6.96914 191.387 6.02395 190.95 5.1282 190.565C-0.858999 187.987 -1.77948 181.167 3.29824 177.058C6.24925 174.669 9.79651 173.982 13.4344 173.795C16.4322 173.641 19.4464 173.762 22.5705 173.762C22.6557 170.474 23.9416 167.887 26.5739 165.988C26.9613 165.708 27.1674 165.141 27.3982 164.68C30.8025 157.874 34.3938 151.153 37.5426 144.228C41.2795 136.018 47.1155 130.438 55.8367 127.906C57.9002 127.298 59.8813 126.386 62.0492 125.575ZM73.5427 9.42349C73.4548 9.29155 73.3669 9.15961 73.279 9.02766C73.1114 9.22008 72.941 9.40975 72.6415 9.69562C72.6415 9.69562 72.5975 9.84956 72.3612 9.96501C70.0916 12.1228 67.8138 14.2697 65.5607 16.4412C64.6897 17.2796 64.0248 18.206 65.0249 19.7013C68.7261 17.3099 70.5862 13.5275 73.1114 10.0172C73.1855 9.87979 73.2652 9.74785 73.5427 9.42349ZM168.247 82.4541C168.541 82.9462 168.832 83.4382 169.126 83.9303C169.253 83.8478 169.379 83.7681 169.508 83.6856C169.286 83.1743 169.06 82.6631 168.711 81.8521C168.398 80.5849 168.132 79.304 167.753 78.056C167.566 77.4375 167.173 76.8795 166.873 76.294C166.502 76.5139 165.876 76.6761 165.813 76.9675C165.662 77.6355 165.541 78.4986 165.843 79.0401C166.475 80.1699 167.39 81.1402 168.247 82.4541ZM169.978 86.0578C170.302 87.3855 170.726 88.7022 170.929 90.0491C171.14 91.4648 171.022 92.9326 171.286 94.3318C171.418 95.0245 172.08 95.6182 172.503 96.256C172.891 95.5468 173.394 94.8706 173.624 94.1119C173.759 93.6748 173.531 93.0728 173.339 92.5973C172.407 90.3048 171.432 88.0315 170.429 85.4724C170.138 84.9968 169.849 84.5213 169.558 84.0457C169.448 84.1117 169.341 84.1804 169.231 84.2464C169.44 84.7494 169.651 85.2524 169.978 86.0578ZM99.2336 92.0558C96.6618 94.439 94.0899 96.8222 91.4247 99.2934C93.4772 99.9229 95.5214 99.5023 96.8184 97.864C98.1125 96.2312 98.8159 94.1311 99.8765 92.0503C99.8518 91.9486 99.8298 91.8469 99.8051 91.7424C99.6979 91.8194 99.5935 91.8963 99.2336 92.0558ZM50.8798 52.8439C54.4656 48.7976 55.9411 44.1273 55.2294 38.2339C52.468 43.1927 50.7974 47.9564 49.8137 53.193C50.094 53.1242 50.377 53.0583 50.8798 52.8439ZM47.2502 150.1C43.7579 154.454 41.0239 159.204 39.7133 164.693C44.159 161.018 46.9507 156.411 47.8354 150.432C47.7283 150.295 47.6184 150.158 47.2502 150.1ZM105.35 77.3551C104.693 76.929 103.514 76.5194 103.501 76.0741C103.479 75.3292 104.141 74.521 104.638 73.8283C104.883 73.4875 105.399 73.3391 105.795 73.1082C113.343 68.6551 115.854 59.1469 111.491 51.5354C107.287 44.2043 98.9835 41.1339 89.9519 43.7398C83.0222 45.7382 77.9143 49.8009 76.0596 57.099C75.2161 60.4224 75.5321 63.8859 74.8039 67.2971C73.9989 71.0768 76.6586 73.4518 79.9998 74.6008C80.5136 76.9757 80.9532 79.2243 81.489 81.4481C82.5194 85.7197 85.2396 88.3586 89.6524 88.3614C94.4087 88.3669 99.1814 87.7814 103.918 87.2178C106.078 86.9595 107.735 85.5081 108.023 83.2568C108.284 81.2227 108.078 79.1253 108.078 76.973C107.235 77.0939 106.457 77.2094 105.35 77.3551ZM82.9398 113.472C82.2556 114.481 81.5687 115.487 80.8516 116.54C85.5529 118.563 86.5338 120.151 86.564 125.077C86.5667 125.635 87.0943 126.356 87.5862 126.724C93.3096 131.007 99.7501 133.074 106.905 132.7C107.609 132.664 108.502 132.183 108.933 131.62C112.535 126.922 117.366 125.732 122.531 128.384C124.438 124.104 122.386 119.184 117.822 118.142C112.903 117.018 107.927 116.977 103.339 119.769C100.311 121.611 98.2691 121.347 95.8264 118.73C94.579 117.394 93.6036 115.808 92.4083 114.42C89.7568 111.333 86.5393 110.968 82.9398 113.472ZM112.928 166.359C113.269 156.832 115.236 147.648 118.698 138.769C119.239 137.384 119.687 135.886 119.77 134.415C119.921 131.664 117.525 130 115 131.092C113.914 131.562 112.89 132.419 112.128 133.34C111.148 134.522 111.233 135.844 112.373 137.062C112.733 137.447 113.002 138.167 112.925 138.676C111.714 146.711 110.463 154.743 109.142 162.761C108.996 163.641 108.515 164.572 107.927 165.251C106.114 167.346 104.756 169.644 104.633 172.44C104.592 173.358 105.193 174.306 105.501 175.241C106.413 174.897 107.488 174.754 108.197 174.166C109.348 173.215 110.178 171.879 111.296 170.878C112.576 169.729 113.112 168.401 112.928 166.359ZM61.0435 134.181C65.5607 131.694 70.4488 130.319 75.4359 129.124C77.384 128.656 79.4063 127.705 80.9203 126.416C82.7282 124.879 82.404 122.084 80.64 120.968C80.2278 120.707 79.192 120.756 78.9035 121.078C76.0431 124.255 72.386 126.1 68.4568 127.477C65.1238 128.645 61.6947 129.541 58.3975 130.792C55.9466 131.721 53.6385 133.024 51.5146 134.041C52.3416 135.932 52.9873 137.406 53.5946 138.791C55.9109 137.34 58.3426 135.817 61.0435 134.181ZM166.917 110.22C166.263 111.787 165.538 113.329 164.999 114.934C164.815 115.484 165.109 116.19 165.183 116.825C165.631 116.435 166.195 116.119 166.502 115.638C166.92 114.986 167.11 114.192 167.456 113.488C167.945 112.491 168.08 110.858 169.668 111.256C171.355 111.677 171.036 113.244 170.89 114.555C170.833 115.074 170.621 115.594 170.646 116.102C170.671 116.594 170.91 117.076 171.053 117.562C171.264 117.554 171.473 117.543 171.684 117.535C171.937 116.168 172.064 114.761 172.495 113.453C172.753 112.666 173.481 112.037 174.001 111.336C174.583 112.018 175.479 112.617 175.682 113.395C176.062 114.857 176.042 116.424 176.188 117.947C176.375 117.952 176.562 117.958 176.748 117.963C176.817 116.531 177.015 115.088 176.93 113.664C176.718 110.08 176.504 106.484 176.029 102.93C175.828 101.416 174.754 100.212 173.047 99.8954C171.259 99.5628 170.212 100.566 169.379 101.932C168.277 103.741 166.637 104.236 164.65 103.942C164.131 103.865 163.573 103.648 163.103 103.768C162.628 103.887 161.947 104.296 161.886 104.665C161.815 105.107 162.208 105.745 162.584 106.102C162.867 106.369 163.441 106.347 163.889 106.421C166.241 106.811 166.849 107.499 166.917 110.22ZM119.165 176.948C120.237 176.645 121.328 176.401 122.377 176.032C128.667 173.822 134.956 171.604 141.218 169.311C141.721 169.127 142.367 168.336 142.334 167.874C142.221 166.354 141.823 164.853 141.526 163.302C141.232 163.434 141.092 163.456 141.009 163.539C134.041 170.334 125.361 172.354 116.019 172.453C114.285 172.472 112.288 173.704 111.837 175.375C111.31 177.324 112.716 178.765 114.717 178.262C116.11 177.91 117.481 177.459 119.165 176.948ZM141.298 67.069C139.869 66.599 138.468 65.942 137.003 65.7386C136.333 65.6451 135.231 66.2718 134.893 66.8876C134.618 67.3851 135.052 68.4352 135.44 69.0756C135.701 69.5044 136.404 69.7491 136.957 69.9003C143.96 71.8245 150.959 73.7624 157.987 75.5958C160.474 76.2446 162.062 75.5986 162.271 74.1747C162.488 72.7123 161.177 71.6925 158.801 71.162C153.058 69.8755 147.337 68.4956 141.298 67.069ZM48.4262 19.0334C46.8408 22.7938 46.9754 26.3425 49.8879 29.4349C52.1575 31.8456 55.4108 31.8456 57.7738 29.6548C58.2134 29.248 58.9773 28.9731 59.579 28.9923C61.8239 29.0693 64.0083 29.0885 65.0936 26.6174C65.8245 24.9516 64.8793 23.0082 62.5548 21.1252C62.4009 21.0015 62.2608 20.8174 62.0877 20.7734C61.5711 20.6442 61.0408 20.57 60.5187 20.4737C60.4638 21.0867 60.2055 21.7767 60.4061 22.2907C60.7056 23.0604 61.4887 23.6459 61.7662 24.4183C61.997 25.0643 62.0794 26.2408 61.725 26.5047C61.1892 26.9005 60.1808 26.8703 59.4416 26.7053C58.9635 26.5981 58.6585 25.8669 58.1942 25.5233C57.6364 25.111 57.0182 24.5832 56.378 24.509C54.3145 24.2671 52.2015 24.2781 51.7783 21.5238C51.7481 21.3204 51.314 21.1884 51.0859 21.0015C50.2973 20.361 49.517 19.7096 48.4262 19.0334ZM44.3569 139.231C44.1535 139.641 43.9447 140.05 43.7496 140.463C39.8781 148.632 35.9874 156.79 32.1764 164.987C31.8934 165.592 32.1846 166.466 32.2094 167.214C32.9375 166.909 33.803 166.752 34.3498 166.252C34.8966 165.752 35.1906 164.932 35.4791 164.207C38.4274 156.812 41.48 149.517 47.8437 144.193C48.6845 143.489 48.8878 141.867 49.1049 140.622C49.3549 139.168 48.6075 137.832 47.1952 137.637C46.3709 137.524 45.3955 138.489 44.3569 139.231ZM99.8353 113.799C99.0165 114.61 98.2004 115.421 97.1701 116.443C98.129 116.649 98.8077 116.919 99.4836 116.919C102.267 116.911 103.905 115.129 105.144 112.944C106.114 111.232 106.85 109.365 109.403 110.044C109.455 110.058 109.565 109.86 109.645 109.764C108.875 108.365 107.595 105.418 107.724 105.349C106.729 104.48 105.732 103.612 104.699 102.71C104.174 104.434 103.226 105.621 101.347 105.907C100.173 106.086 100.052 106.822 100.635 107.776C101.904 109.857 101.492 111.776 99.8353 113.799ZM69.0036 67.9294C70.317 67.6408 71.8941 65.318 71.4243 64.1305C70.7978 62.5444 69.5668 63.5835 68.5529 63.633C64.7227 63.8199 60.8677 64.2899 57.0621 64.0398C53.8391 63.8281 50.6738 62.7589 47.4782 62.0881C46.2225 61.8242 44.9806 61.8985 44.6618 63.4103C44.3349 64.9579 45.401 65.7358 46.7391 65.931C47.8244 66.0904 48.962 65.9915 50.0665 65.8898C56.4082 65.3152 62.6097 66.019 69.0036 67.9294ZM49.0499 45.6612C49.2725 44.9767 49.5005 44.2923 49.7203 43.6051C50.5309 41.0844 51.3882 38.5747 52.1301 36.0348C52.4158 35.0562 52.49 33.9952 50.9348 33.9485C50.5584 33.9375 50.1819 33.7973 49.8083 33.7066C49.2807 33.5774 48.7532 33.4427 48.2256 33.308C48.1212 33.9897 47.9179 34.6714 47.9316 35.3504C47.9563 36.7633 48.3218 38.2036 48.1514 39.5808C47.4645 45.1307 45.706 50.3452 42.4252 54.9055C41.197 56.6125 40.8123 58.0364 42.2961 59.7791C42.5544 59.6857 43.027 59.6609 43.1122 59.4658C45.085 54.9769 47.0194 50.4661 49.0499 45.6612ZM129.488 59.507C125.565 60.7687 121.627 61.9809 117.739 63.3416C117.179 63.5395 116.863 64.4439 116.434 65.0184C117.025 65.4527 117.561 66.0877 118.22 66.2608C118.86 66.4285 119.654 66.2169 120.33 66.008C123.702 64.9552 127.084 63.9271 130.392 62.7011C131.129 62.429 131.579 61.3899 132.159 60.7027C131.37 60.2794 130.582 59.8561 129.488 59.507ZM168.093 169.567C168.093 166.675 168.055 163.783 168.112 160.892C168.137 159.666 167.797 159.143 166.414 159.671C166.414 167.519 166.398 175.4 166.464 183.278C166.467 183.685 167.184 184.086 167.568 184.49C167.744 184.367 167.917 184.246 168.093 184.122C168.093 179.402 168.093 174.683 168.093 169.567ZM125.595 73.3171C125.82 73.0807 126.161 72.88 126.252 72.5996C126.485 71.8712 126.609 71.1098 126.776 70.3621C126.084 70.4665 125.257 70.3621 124.724 70.7084C121.358 72.902 117.709 73.7651 113.714 73.5727C112.947 73.537 112.142 74.2792 111.354 74.6612C112.054 75.3045 112.755 76.5002 113.456 76.5002C117.649 76.4975 121.872 76.3353 125.595 73.3171ZM109.054 91.3356C111.505 95.2334 115.876 96.5034 119.105 94.1504C119.674 93.7353 119.869 92.8035 120.234 92.108C119.566 91.8606 118.874 91.3493 118.239 91.4126C115.607 91.6792 113.343 91.0305 111.301 89.3262C110.804 88.9111 109.947 88.9304 109.254 88.7489C109.155 89.5186 109.057 90.2883 109.054 91.3356ZM13.2366 185.738C10.8489 185.34 8.44464 185.015 6.07889 184.515C4.68856 184.221 4.50722 184.776 4.64186 185.966C12.7722 187.33 20.8202 188.68 28.9176 190.037C29.0083 189.394 29.0715 188.963 29.1484 188.413C23.8756 187.536 18.721 186.681 13.2366 185.738ZM113.986 85.0518C115.415 85.137 116.868 85.4366 118.264 85.2662C120.899 84.9418 123.094 83.6361 124.691 81.4811C124.952 81.1292 124.999 80.4915 124.889 80.0489C124.842 79.862 124.018 79.6201 123.751 79.7685C120.388 81.657 116.797 82.325 112.972 82.0501C112.51 82.0171 111.601 82.5723 111.612 82.8252C111.634 83.375 112.041 83.977 112.442 84.4168C112.719 84.7247 113.252 84.7989 113.986 85.0518ZM121.306 167.274C121.064 167.505 120.822 167.734 120.399 168.138C126.241 167.964 131.387 166.694 136.047 162.799C130.604 163.143 125.922 164.603 121.306 167.274ZM28.8819 178.891C26.4557 179.859 24.6697 181.395 24.0899 184.215C25.9996 184.543 27.7773 184.848 29.7419 185.183C30.1211 182.934 30.4838 180.793 30.8822 178.44C30.1431 178.605 29.6568 178.712 28.8819 178.891ZM13.7367 182.734C13.5581 181.293 13.4427 179.842 13.1569 178.424C13.091 178.099 12.4233 177.64 12.0661 177.668C9.36238 177.877 7.29062 179.232 5.41395 181.423C8.28528 181.909 10.8406 182.341 13.7367 182.734ZM162.82 183.839C163.032 183.721 163.425 183.605 163.428 183.487C163.463 180.889 163.455 178.292 163.455 175.326C162.054 175.79 160.903 176.153 159.765 176.557C158.526 176.997 158.122 177.951 158.836 178.979C159.971 180.609 161.323 182.088 162.82 183.839ZM162.4 159.487C160.449 159.487 158.496 159.487 156.523 159.487C157.3 162.986 159.771 165.084 163.213 165.048C163.07 163.192 162.928 161.343 162.4 159.487ZM109.966 98.4413C109.004 97.7266 108.045 97.0119 107.001 96.234C106.608 98.7876 107.938 101.207 110.029 101.91C111.557 102.424 112.923 102.265 113.969 100.572C112.598 99.8624 111.395 99.2412 109.966 98.4413ZM165.81 92.1657C166.348 93.378 166.884 94.5874 167.423 95.7997C167.816 92.031 167.423 88.507 165.832 85.2552C165.51 85.3102 165.189 85.3624 164.867 85.4174C165.156 87.5642 165.447 89.7083 165.81 92.1657ZM28.4917 172.855C30.4756 173.165 32.4594 173.476 34.5504 173.803C34.652 173.069 34.7262 172.522 34.8169 171.879C32.2368 171.45 29.8106 171.046 27.3624 170.639C26.8898 171.752 26.5931 172.646 28.4917 172.855ZM146.524 164.812C146.524 165.892 146.524 166.972 146.524 168.19C147.365 168.096 147.909 168.036 148.398 167.984C148.398 165.345 148.398 162.887 148.398 160.323C147.738 160.353 147.192 160.378 146.524 160.408C146.524 161.84 146.524 163.135 146.524 164.812ZM89.4656 94.5187C90.1992 94.0817 90.9328 93.6473 91.8066 93.1278C90.2157 92.6633 88.9792 92.1162 87.7043 92.0145C87.1245 91.9678 86.4733 92.8062 85.8524 93.2433C86.3112 93.7655 86.6767 94.4912 87.2537 94.7496C87.7785 94.9805 88.5286 94.7056 89.4656 94.5187ZM57.7518 16.0784C56.3615 17.0899 55.202 18.2197 55.6279 20.6442C56.955 19.3522 58.0376 18.3599 59.035 17.2879C59.3345 16.9663 59.3949 16.4247 59.5653 15.9822C59.0432 15.9629 58.5184 15.9437 57.7518 16.0784ZM57.9964 5.54215C58.0403 5.16282 58.087 4.78348 58.131 4.40414C57.9441 4.31893 57.7601 4.23372 57.5732 4.14851C56.345 5.89675 55.114 7.64225 53.8858 9.3905C54.1798 9.61041 54.4738 9.83032 54.7678 10.0502C55.7927 8.63733 56.8203 7.22168 57.9964 5.54215ZM52.3883 14.7562C52.2262 15.4599 52.0669 16.1636 51.9047 16.8673C52.1493 16.9443 52.3938 17.0185 52.6384 17.0954C53.2923 15.9629 53.949 14.8304 54.603 13.6952C54.3887 13.533 54.1716 13.3708 53.9573 13.2059C53.4874 13.6484 53.0176 14.0882 52.3883 14.7562Z" fill="#FBFBFB"/>
<path d="M80.8406 210.211C90.8311 212.275 100.649 214.326 110.477 216.327C110.925 216.418 111.678 216.214 111.933 215.876C114.09 213.029 116.852 212.006 120.253 213.089C123.246 214.043 124.839 216.627 125.029 220.632C127.584 221.599 130.282 222.416 132.788 223.628C135.066 224.73 137.278 226.08 139.259 227.65C141.402 229.346 142.356 231.814 142.466 234.585C142.575 237.411 141.334 239.439 139.089 241.072C136.731 242.787 136.627 243.964 138.303 246.353C138.644 246.836 139.009 247.304 139.317 247.809C140.405 249.585 140.174 250.77 138.503 252.054C138.141 252.334 137.742 252.57 137.363 252.826C134.855 254.514 134.637 255.341 136.011 258.016C137.712 261.325 135.962 264.657 132.184 264.574C129.084 264.506 125.963 263.772 122.921 263.038C99.217 257.309 75.5265 251.531 51.8443 245.709C46.7253 244.45 41.8097 242.611 37.5755 239.335C33.836 236.443 31.0058 232.861 30.0112 228.155C28.6978 221.94 31.124 216.959 35.6055 212.839C39.8122 208.971 45.0053 207.503 50.5528 207.064C51.9239 206.954 53.3225 206.893 54.6854 207.028C56.3312 207.193 57.3424 206.934 58.1117 205.153C59.1943 202.644 62.4173 201.258 65.0469 201.651C67.9814 202.088 70.2812 204.122 71.0093 206.94C71.1577 207.509 71.2621 208.092 71.4187 208.812C74.4742 209.268 77.5708 209.73 80.8406 210.211ZM131.272 228.106C131.434 228.131 131.596 228.153 131.758 228.177C131.766 228.133 131.772 228.087 131.78 228.043C131.609 228.012 131.436 227.979 131.261 227.688C130.873 227.515 130.483 227.339 129.848 227.031C129.007 226.665 128.197 226.198 127.323 225.954C121.264 224.258 115.211 222.55 109.125 220.956C93.4442 216.847 77.7274 212.861 61.4969 211.588C57.5732 211.28 53.6055 211.541 49.6351 211.541C49.9154 211.596 50.2011 211.662 50.4897 211.706C61.9612 213.501 73.5207 214.857 84.8824 217.196C100.033 220.313 115.024 224.192 130.293 227.9C130.629 227.902 130.967 227.908 131.272 228.106ZM134.462 247.108C134.077 246.751 133.689 246.399 133.308 246.036C130.587 243.461 131.2 240.305 134.681 238.942C135.352 238.678 136.066 238.491 136.687 238.145C138.374 237.199 138.481 235.462 136.923 234.351C136.396 233.975 135.789 233.672 135.173 233.466C128.334 231.198 121.594 228.529 114.621 226.803C103.105 223.952 91.4548 221.638 79.8321 219.249C72.3859 217.721 64.9122 216.272 57.3946 215.156C51.4101 214.268 45.4477 214.727 39.9578 217.682C32.1186 221.902 31.3411 230.877 38.5592 236.124C41.0431 237.93 44.0573 239.283 47.0331 240.082C58.9937 243.288 71.0698 246.058 83.0332 249.247C97.9586 253.222 113.28 255.797 127.639 261.804C129.082 262.408 130.859 263.104 131.914 261.397C132.959 259.706 131.365 258.692 130.288 257.656C128.378 255.814 127.947 253.818 129.483 252.32C130.335 251.49 131.719 251.075 132.939 250.784C135.121 250.267 135.646 249.382 134.462 247.108ZM64.283 205.219C63.989 205.862 63.5576 206.489 63.4697 207.163C63.4367 207.418 64.1923 208.028 64.5825 208.023C65.0689 208.015 65.7942 207.649 65.9783 207.24C66.5663 205.928 65.83 205.307 64.283 205.219ZM119.731 219.447C119.729 218.71 119.844 217.941 119.649 217.259C119.591 217.061 118.456 216.882 118.149 217.122C117.736 217.44 117.333 218.551 117.475 218.672C118.014 219.128 118.775 219.323 119.731 219.447Z" fill="#FBFBFB"/>
<path d="M94.8345 91.616C93.8728 93.5099 93.1694 95.6127 91.8725 97.2428C90.5728 98.8783 88.5313 99.2989 86.4788 98.6722C89.144 96.201 91.7158 93.8178 94.4855 91.4648C94.6833 91.4923 94.8345 91.616 94.8345 91.616Z" fill="#FBFBFB"/>
<path d="M84.3768 93.969C83.5827 94.0872 82.8326 94.362 82.3078 94.1284C81.7308 93.87 81.3654 93.1443 80.9065 92.622C81.5247 92.185 82.1759 91.3493 82.7584 91.3933C84.0306 91.495 85.2698 92.042 86.8607 92.5066C85.987 93.0261 85.2533 93.4632 84.3768 93.969Z" fill="#FBFBFB"/>
<path d="M42.81 149.913C42.6891 149.913 42.6479 149.814 42.5847 149.561C42.6726 149.539 42.7826 149.677 42.81 149.913Z" fill="#FBFBFB"/>
<path d="M94.6121 91.4236C94.6478 91.2779 94.7522 91.2009 94.8593 91.1239C94.8841 91.2256 94.9061 91.3273 94.8813 91.5253C94.8346 91.616 94.6835 91.4923 94.6121 91.4236Z" fill="#FBFBFB"/>
<path d="M64.4205 205.181C65.8273 205.307 66.5664 205.928 65.9784 207.24C65.7943 207.649 65.0662 208.015 64.5826 208.023C64.1924 208.029 63.4368 207.418 63.4698 207.163C63.5577 206.489 63.9891 205.862 64.4205 205.181Z" fill="#FBFBFB"/>
<path d="M119.594 219.532C118.778 219.323 118.014 219.128 117.473 218.669C117.33 218.548 117.734 217.44 118.146 217.119C118.456 216.88 119.591 217.058 119.646 217.256C119.844 217.938 119.729 218.71 119.594 219.532Z" fill="#FBFBFB"/>
<path d="M131.277 227.938C131.439 227.979 131.61 228.012 131.783 228.043C131.774 228.087 131.769 228.133 131.761 228.177C131.599 228.153 131.436 228.131 131.291 228.007C131.305 227.911 131.285 227.93 131.277 227.938Z" fill="#FBFBFB"/>
<path d="M89.5782 65.6863C90.4465 63.4048 92.0291 62.2476 94.285 62.3273C96.277 62.396 97.7773 63.468 98.4422 65.3867C99.0934 67.2669 98.7609 69.0427 97.2332 70.4116C95.7385 71.753 93.9965 72.0609 92.1335 71.228C90.1415 70.3346 89.3172 68.5808 89.5782 65.6863Z" fill="#FBFBFB"/>
<path d="M80.607 69.466C78.3676 71.4699 76.2656 71.7173 74.3093 70.3071C72.6195 69.0894 71.9133 66.8299 72.6167 64.8919C73.3421 62.8935 75.4688 61.6071 77.5955 61.8765C81.1593 62.33 82.6705 65.964 80.607 69.466Z" fill="#FBFBFB"/>
<path d="M85.5638 83.5592C84.3191 83.5537 83.1953 83.7736 82.2446 83.4629C81.5439 83.2348 80.6317 82.3222 80.6207 81.701C80.6097 81.1045 81.6181 79.9967 82.2198 79.9692C85.822 79.8043 89.4407 79.8043 93.043 79.9665C93.631 79.9939 94.7026 81.2117 94.6036 81.6872C94.458 82.3992 93.5211 83.4052 92.8424 83.4684C90.4959 83.6856 88.1191 83.5564 85.5638 83.5592Z" fill="#FBFBFB"/>
<path d="M88.4021 71.239C88.5477 71.698 88.6933 72.0059 88.7346 72.3247C88.8994 73.6084 90.1826 75.4282 88.6246 76.0302C86.9541 76.6761 84.8521 76.2748 82.9479 76.1621C82.7116 76.1484 82.2143 74.9471 82.3929 74.5348C83.2117 72.6409 84.0717 70.7304 85.223 69.0344C85.9594 67.9514 87.0612 68.2015 87.6794 69.4632C87.9377 69.9855 88.1328 70.5463 88.4021 71.239Z" fill="#FBFBFB"/>
<path d="M50.2616 226.333C49.1872 225.69 48.286 225.055 47.3848 224.422C48.0909 223.493 48.6185 222.298 49.5389 221.69C51.3194 220.514 53.4489 219.859 55.4987 220.797C56.4713 221.242 57.6803 222.468 57.6858 223.348C57.6913 224.194 56.4246 225.484 55.4602 225.8C53.894 226.314 52.119 226.195 50.2616 226.333Z" fill="#FBFBFB"/>
<path d="M47.0687 233.246C46.7665 231.327 47.8133 230.687 49.3191 230.728C51.6464 230.789 53.6247 231.737 55.1332 233.543C56.0234 234.61 56.3257 235.989 55.3585 236.935C54.6551 237.622 53.2592 238.09 52.2948 237.927C49.7477 237.501 47.9535 235.918 47.0687 233.246Z" fill="#FBFBFB"/>
<path d="M59.0652 230.225C59.8016 229.648 60.4528 228.944 61.1974 228.826C62.7746 228.576 64.2116 229.274 64.4451 230.899C64.5633 231.734 63.8929 233.076 63.162 233.554C61.8074 234.439 60.3346 233.961 59.4718 232.545C59.1064 231.949 59.1586 231.099 59.0652 230.225Z" fill="#FBFBFB"/>
</svg>
