<svg width="219" height="238" viewBox="0 0 219 238" fill="none" xmlns="http://www.w3.org/2000/svg">
<path d="M111.498 145.299C109.512 151.35 110.589 157.952 112.046 164.151C113.744 171.375 115.971 178.553 119.718 184.959C120.19 185.765 119.493 189.389 119.276 189.689C117.663 191.923 111.232 194.228 114.542 195.726C116.762 196.731 126.397 196.711 131.588 196.342C133.033 196.24 133.53 185.662 132.058 181.459C130.032 175.667 128.791 175.459 129.408 174.518C132.069 170.487 134.093 162.192 135.33 156.13M114.738 192.976C112.423 193.07 104.393 193.537 103.967 192.759C103.737 192.336 104.152 191.659 104.391 191.242C107.48 185.916 107.633 188.067 107.757 183.528C107.859 179.78 107.626 173.672 107.524 168.534M43.1713 128.737C36.2012 121.372 35.0446 114.624 34.2637 100.502C33.9513 94.8318 34.0984 84.6373 33.7826 78.9666C33.8324 67.6571 34.3294 56.706 34.8264 45.7515C34.9368 43.3082 34.6399 40.2691 34.5116 38.4443C33.7863 28.2025 32.31 26.025 29.1714 23.809C26.2604 21.7537 22.7462 21.8494 19.744 21.287C16.247 20.6304 12.8447 19.459 9.68706 17.8204C8.60026 17.2564 7.51557 16.6153 6.7692 15.6439C6.02282 14.6726 5.6872 13.3025 6.22799 12.2016C7.29533 10.0298 10.6261 10.3726 12.4277 8.75507C13.8365 7.49306 14.0071 5.30343 15.2523 3.87903C17.0248 1.8507 20.298 2.08448 22.7582 3.17985C25.2183 4.27521 27.391 6.05161 30.0041 6.71094C31.1989 7.01236 32.4609 7.06693 33.6114 7.51164C35.1676 8.1119 36.3702 9.36113 37.4684 10.6142C39.9516 13.4509 42.1731 16.5189 44.0974 19.7637C49.8315 29.198 50.8453 40.691 51.0719 51.7257C51.2984 62.7604 50.9134 74.0406 54.2964 84.5431C55.1669 87.245 56.2976 89.8969 58.0101 92.1614C62.1422 97.6203 68.7105 101.479 75.5103 102.273C83.2245 103.175 90.9981 101.284 98.1675 103.677C101.791 104.885 105.157 106.751 108.434 108.715C118.279 114.623 127.52 121.535 135.967 129.312C145.044 137.672 153.318 147.111 163.845 153.548C171.232 158.067 179.487 160.947 187.699 163.692C197.109 166.838 206.587 169.859 216.308 171.844C216.99 171.984 217.731 172.152 218.17 172.695C218.862 173.551 218.375 174.928 217.464 175.549C216.553 176.169 215.392 176.242 214.288 176.296C206.586 176.667 199.851 176.725 192.207 175.703C179.357 173.985 166.331 168.724 153.676 165.909C150.373 165.173 145.713 162.913 142.332 162.941C139.098 162.967 136.543 164.38 133.344 164.87M63.0341 150.785C69.2403 156.586 77.3559 164.701 86.7179 166.663C87.4663 166.821 92.8849 168.726 112.552 168.268C112.542 168.268 112.528 168.268 112.518 168.267" stroke="#FBFBFB" stroke-width="3" stroke-miterlimit="10" stroke-linecap="round" stroke-linejoin="round"/>
<path d="M73.898 160.327C74.3465 170.37 74.52 180.765 74.2693 190.815C74.2513 191.477 72.727 191.307 72.3034 191.313C70.0309 191.348 67.9286 191.304 65.656 191.34C64.8256 191.354 63.9686 191.361 63.1974 191.051C62.4263 190.741 61.461 190.036 61.4703 189.203" stroke="#FBFBFB" stroke-width="3" stroke-miterlimit="10" stroke-linecap="round"/>
<path d="M68.084 138.027C65.3621 141.108 63.6151 145.039 63.1575 149.126C62.647 153.672 63.6813 158.377 62.489 162.791C61.8871 165.022 60.7391 167.071 60.0873 169.288C58.1273 175.972 60.8822 183.013 61.5533 189.947C61.603 190.466 61.6207 191.051 61.2642 191.431C60.9872 191.729 60.5581 191.815 60.1598 191.881C55.0863 192.724 49.869 192.676 44.814 191.731C44.473 191.668 44.1024 191.581 43.9018 191.297C43.7659 191.105 43.7391 190.855 43.7186 190.619C43.3435 185.646 45.2659 180.833 46.4731 175.997C48.1293 169.362 48.4615 162.479 48.7856 155.646C48.9665 151.85 49.1333 147.95 47.9176 144.352C47.1621 142.113 45.897 140.079 45.0736 137.866C44.3349 135.877 43.962 133.776 43.6226 131.684C43.2195 129.216 42.8569 126.74 42.6492 124.251C42.3093 120.206 42.3802 116.129 42.8597 112.099" stroke="#FBFBFB" stroke-width="3" stroke-miterlimit="10" stroke-linecap="round"/>
<path d="M19.2686 11.9079C18.4118 11.8845 17.7398 11.0387 17.7677 10.0187C17.7955 8.99878 18.5126 8.19089 19.3693 8.21426C20.2261 8.23763 20.8981 9.08341 20.8703 10.1034C20.8425 11.1233 20.1254 11.9312 19.2686 11.9079Z" fill="#FA00FF" stroke="#FBFBFB" stroke-miterlimit="10"/>
<path d="M107.42 186.182C96.5876 186.495 85.7424 186.424 74.9215 185.834C74.8141 185.831 74.7066 185.828 74.5992 185.825" stroke="#FBFBFB" stroke-width="3" stroke-miterlimit="10" stroke-linecap="round" stroke-linejoin="round"/>
<path d="M48.613 224.113C48.5652 225.865 49.8411 227.259 51.3861 227.301C52.9311 227.343 54.2812 226.021 54.329 224.269C54.3768 222.517 53.1008 221.123 51.5558 221.081C50.0108 221.039 48.6608 222.361 48.613 224.113Z" fill="white" stroke="#FBFBFB"/>
<path d="M51.2155 233.312C46.1862 233.175 42.2204 228.986 42.3576 223.957C42.4947 218.928 46.683 214.962 51.7123 215.099C56.7417 215.236 60.7075 219.424 60.5703 224.454C60.4331 229.483 56.2449 233.449 51.2155 233.312Z" stroke="#FBFBFB" stroke-width="3" stroke-miterlimit="10" stroke-linecap="round"/>
<path d="M136.582 226.513C136.535 228.265 137.811 229.658 139.356 229.701C140.901 229.743 142.251 228.421 142.298 226.669C142.346 224.916 141.07 223.523 139.525 223.481C137.98 223.439 136.63 224.761 136.582 226.513Z" fill="white" stroke="#FBFBFB"/>
<path d="M139.193 235.712C134.164 235.574 130.198 231.386 130.335 226.357C130.472 221.328 134.661 217.362 139.69 217.499C144.719 217.636 148.685 221.824 148.548 226.854C148.411 231.883 144.222 235.849 139.193 235.712Z" stroke="#FBFBFB" stroke-width="3" stroke-miterlimit="10" stroke-linecap="round"/>
<path d="M43.7248 185.174C23.3832 184.619 21.6917 183.924 8.43896 183.052C7.21465 182.972 5.99567 183.681 5.13838 184.558C3.90075 185.828 3.7558 188.432 4.13837 189.682C4.67192 191.434 8.2609 196.109 16.3258 198.567C19.1685 199.434 23.9961 200.829 26.7092 200.903C42.1417 201.324 88.4327 202.822 88.4327 202.822L116.812 203.001L135.271 202.856C135.271 202.856 153.648 203.015 162.792 202.112C170.373 201.364 178.549 200.109 183.892 194.68C185.113 193.44 186.194 191.863 186.137 190.124C186.072 188.082 184.402 186.367 182.493 185.639C180.583 184.915 178.475 184.989 176.437 185.152C170.833 185.6 166.289 186.753 160.674 186.986C151.837 187.35 142.706 187.145 133.364 186.89" stroke="#FBFBFB" stroke-width="3" stroke-miterlimit="10" stroke-linecap="round" stroke-linejoin="round"/>
<path d="M185.167 193.133C178.004 203.814 169.41 208.177 160.633 210.394C157.622 211.155 154.507 211.4 151.404 211.57C145.999 211.866 140.584 211.944 135.168 212.021C120.686 212.228 106.216 212.391 91.7402 211.996C78.5541 211.636 65.3926 210.867 52.2021 210.665C41.756 210.501 30.9208 210.683 21.39 206.407C18.7309 205.216 16.2319 203.696 13.7851 202.114C9.42317 199.29 4.74592 194.475 4.05295 189.328" stroke="#FBFBFB" stroke-width="3" stroke-miterlimit="10" stroke-linecap="round"/>
<path d="M41.0011 210.495C42.6865 212.52 44.3719 214.546 46.0677 216.561" stroke="#FBFBFB" stroke-width="3" stroke-miterlimit="10" stroke-linecap="round"/>
<path d="M63.829 211.129C61.3355 213.968 60.1166 215.289 58.0311 217.46" stroke="#FBFBFB" stroke-width="3" stroke-miterlimit="10" stroke-linecap="round"/>
<path d="M128.403 212.593C130.141 214.66 131.879 216.727 133.627 218.784" stroke="#FBFBFB" stroke-width="3" stroke-miterlimit="10" stroke-linecap="round"/>
<path d="M151.851 212.005C149.087 215.391 147.737 216.97 145.428 219.559" stroke="#FBFBFB" stroke-width="3" stroke-miterlimit="10" stroke-linecap="round"/>
</svg>
