<svg width="203" height="185" viewBox="0 0 203 185" fill="none" xmlns="http://www.w3.org/2000/svg">
<path d="M160.014 144.8C161.602 144.337 162.485 142.579 161.987 140.873C161.49 139.166 159.8 138.158 158.213 138.621C156.626 139.084 155.742 140.842 156.24 142.549C156.737 144.255 158.427 145.263 160.014 144.8Z" fill="#FF0000" stroke="white" stroke-width="3" stroke-miterlimit="10" stroke-linecap="round" stroke-linejoin="round"/>
<path d="M161.393 149.502C165.697 148.247 168.169 143.74 166.914 139.436C165.659 135.131 161.152 132.659 156.847 133.914C152.543 135.17 150.071 139.677 151.326 143.981C152.581 148.285 157.088 150.757 161.393 149.502Z" stroke="white" stroke-width="3" stroke-miterlimit="10" stroke-linecap="round" stroke-linejoin="round"/>
<path d="M84.7194 166.756C86.3066 166.293 87.19 164.535 86.6924 162.828C86.1949 161.122 84.5049 160.114 82.9177 160.577C81.3305 161.04 80.4472 162.798 80.9447 164.504C81.4422 166.211 83.1322 167.219 84.7194 166.756Z" fill="#FF0000" stroke="white" stroke-width="3" stroke-miterlimit="10" stroke-linecap="round" stroke-linejoin="round"/>
<path d="M86.0962 171.458C90.4007 170.203 92.8726 165.696 91.6175 161.392C90.3623 157.087 85.8553 154.615 81.5508 155.87C77.2463 157.126 74.7743 161.633 76.0295 165.937C77.2847 170.242 81.7917 172.714 86.0962 171.458Z" stroke="white" stroke-width="3" stroke-miterlimit="10" stroke-linecap="round" stroke-linejoin="round"/>
<path d="M160.131 105.394C177.541 100.317 175.681 100.258 186.908 96.5101C187.945 96.164 189.157 96.4999 190.094 97.0623C191.448 97.8773 192.161 100.089 192.114 101.253C192.05 102.884 190.013 107.725 183.617 111.667C181.362 113.057 177.516 115.351 175.194 116.028C161.985 119.88 122.419 131.636 122.419 131.636L97.9947 138.206L82.0496 142.253C82.0496 142.253 66.244 146.544 58.1568 147.833C51.4526 148.902 44.1204 149.668 38.2872 146.196C36.9551 145.403 35.6665 144.288 35.3223 142.776C34.9171 141.001 35.9692 139.145 37.4504 138.086C38.9315 137.028 40.767 136.617 42.5601 136.297C47.4923 135.417 53.3293 135.405 56.8029 134.217C59.9395 133.147 65.2898 131.733 69.5157 130.442" stroke="white" stroke-width="3" stroke-miterlimit="10" stroke-linecap="round" stroke-linejoin="round"/>
<path d="M36.8441 145.147C45.4338 152.736 53.8281 154.554 61.8956 154.481C64.6637 154.457 67.4041 153.963 70.1175 153.409C74.8436 152.442 79.5295 151.285 84.2155 150.127C96.7461 147.032 109.257 143.901 121.647 140.288C132.932 136.998 144.104 133.36 155.429 130.204C164.397 127.701 173.779 125.408 181.028 119.568C183.051 117.94 184.862 116.065 186.613 114.148C189.735 110.727 192.679 105.519 192.112 100.925" stroke="white" stroke-width="3" stroke-miterlimit="10" stroke-linecap="round" stroke-linejoin="round"/>
<path d="M165.039 127.53C164.044 129.657 163.049 131.784 162.043 133.904" stroke="white" stroke-width="3" stroke-miterlimit="10" stroke-linecap="round" stroke-linejoin="round"/>
<path d="M145.507 133.238C148.298 135.121 149.647 135.985 151.936 137.385" stroke="white" stroke-width="3" stroke-miterlimit="10" stroke-linecap="round" stroke-linejoin="round"/>
<path d="M90.1722 149.091C89.1411 151.266 88.1101 153.44 87.068 155.609" stroke="white" stroke-width="3" stroke-miterlimit="10" stroke-linecap="round" stroke-linejoin="round"/>
<path d="M69.8225 153.888C72.9704 156.182 74.4914 157.238 77.0666 158.948" stroke="white" stroke-width="3" stroke-miterlimit="10" stroke-linecap="round" stroke-linejoin="round"/>
<path d="M71.8739 117.418C72.751 120.586 72.5456 124.042 71.3034 127.086C70.6371 128.714 69.6871 130.226 69.1712 131.911C68.6552 133.595 68.6565 135.578 69.766 136.945C71.6065 139.215 75.1707 138.584 77.9468 137.678C84.3268 135.593 90.5865 133.138 96.6842 130.33C98.2376 129.616 99.8194 128.849 101.003 127.615C103.867 124.625 103.615 119.89 105.233 116.082" stroke="white" stroke-width="3" stroke-miterlimit="10" stroke-linecap="round" stroke-linejoin="round"/>
<path d="M32.1384 130.718C26.3101 116.206 22.5686 99.6852 28.1883 85.0903C31.8466 75.5856 39.0815 67.9629 46.285 60.7672C49.4343 57.6225 52.6275 54.4899 55.2141 50.87C58.7002 45.9931 61.0219 40.2459 61.5899 34.2803C69.7593 37.6045 75.0366 46.9015 73.6969 55.621C77.9146 55.3921 81.8496 58.5135 83.4034 62.4415C84.9573 66.3695 84.4468 70.8746 82.9093 74.8091C86.9947 80.6712 86.9381 89.107 82.7791 94.916C81.3894 96.8554 79.0848 98.6406 76.805 97.9334C80.1359 102.887 78.2212 110.137 73.6402 113.964C69.0583 117.788 62.5836 118.651 56.686 117.738C53.1232 117.187 49.5342 116.054 45.9857 116.696C42.5584 117.315 39.5979 119.556 37.4209 122.271C35.2448 124.988 33.7546 128.176 32.1384 130.718Z" stroke="white" stroke-width="3" stroke-miterlimit="10" stroke-linecap="round" stroke-linejoin="round"/>
<path d="M25.7139 105.583C21.0638 105.399 17.5485 101.31 15.3735 97.1982C12.2438 91.2881 10.5902 84.6015 10.6041 77.912C13.0421 84.6474 18.9962 89.999 25.9548 91.7055" stroke="white" stroke-width="3" stroke-miterlimit="10" stroke-linecap="round" stroke-linejoin="round"/>
<path d="M32.9542 75.3558C30.0817 74.0387 28.293 71.1552 26.8578 68.34C22.6695 60.1255 20.0396 50.5398 22.5718 41.6752C22.7086 41.1926 23.0093 40.6091 23.5084 40.6631C23.8717 40.7006 24.0945 41.0691 24.264 41.3938C28.8978 50.2269 36.9517 57.2082 46.3502 60.5451" stroke="white" stroke-width="3" stroke-miterlimit="10" stroke-linecap="round" stroke-linejoin="round"/>
<path d="M74.2829 55.3776C80.7422 47.6723 90.3257 43.0567 100.172 41.0213C104.439 40.1387 108.811 39.6997 113.166 39.8985C129.613 40.6435 144.627 50.5441 154.92 63.396C157.308 66.3791 159.49 69.5286 162.04 72.371C167.097 78.003 173.58 82.3459 180.715 84.8711C180.266 86.3584 178.719 87.1929 177.288 87.8006C171.999 90.0445 166.328 91.3862 160.595 91.745C160.118 91.7751 159.607 91.8088 159.222 92.0954C158.427 92.6923 158.643 93.914 158.924 94.8673C159.799 97.8364 160.538 100.907 160.313 103.995C160.088 107.082 158.766 110.218 156.235 111.997C154.408 113.281 152.147 113.751 149.959 114.192C143.429 115.504 136.902 116.818 130.371 118.13C128.439 118.518 125.856 118.579 125.137 116.743C124.373 114.799 126.635 112.814 126.359 110.743C126.092 108.747 123.778 107.872 121.913 107.11C115.476 104.477 110.566 98.4161 109.331 91.573C108.094 84.7306 110.573 77.3315 115.68 72.6148" stroke="white" stroke-width="3" stroke-miterlimit="10" stroke-linecap="round" stroke-linejoin="round"/>
<path d="M125.571 113.164C118.922 116.924 110.725 117.004 103.925 120.48" stroke="white" stroke-width="3" stroke-miterlimit="10" stroke-linecap="round" stroke-linejoin="round"/>
<path d="M58.1405 85.6447C58.5718 87.1241 57.9411 88.3783 57.0404 88.6409C56.1397 88.9035 54.9337 88.185 54.5023 86.7056C54.0709 85.2263 54.7017 83.9721 55.6024 83.7095C56.5031 83.4468 57.7091 84.1654 58.1405 85.6447Z" fill="#FF0000" stroke="white"/>
<path d="M160.014 144.8C161.602 144.337 162.485 142.579 161.987 140.873C161.49 139.166 159.8 138.158 158.213 138.621C156.626 139.084 155.742 140.842 156.24 142.549C156.737 144.255 158.427 145.263 160.014 144.8Z" fill="white" stroke="white" stroke-width="3" stroke-miterlimit="10" stroke-linecap="round" stroke-linejoin="round"/>
<path d="M161.393 149.502C165.697 148.247 168.169 143.74 166.914 139.436C165.659 135.131 161.152 132.659 156.847 133.914C152.543 135.17 150.071 139.677 151.326 143.981C152.581 148.285 157.088 150.757 161.393 149.502Z" stroke="white" stroke-width="3" stroke-miterlimit="10" stroke-linecap="round" stroke-linejoin="round"/>
<path d="M84.7194 166.756C86.3066 166.293 87.19 164.535 86.6924 162.828C86.1949 161.122 84.5049 160.114 82.9177 160.577C81.3305 161.04 80.4472 162.798 80.9447 164.504C81.4422 166.211 83.1322 167.219 84.7194 166.756Z" fill="white" stroke="white" stroke-width="3" stroke-miterlimit="10" stroke-linecap="round" stroke-linejoin="round"/>
<path d="M86.0962 171.458C90.4007 170.203 92.8726 165.696 91.6175 161.392C90.3623 157.087 85.8553 154.615 81.5508 155.87C77.2463 157.126 74.7743 161.633 76.0295 165.937C77.2847 170.242 81.7917 172.714 86.0962 171.458Z" stroke="white" stroke-width="3" stroke-miterlimit="10" stroke-linecap="round" stroke-linejoin="round"/>
<path d="M160.131 105.394C177.541 100.317 175.681 100.258 186.908 96.5101C187.945 96.164 189.157 96.4999 190.094 97.0623C191.448 97.8773 192.161 100.089 192.114 101.253C192.05 102.884 190.013 107.725 183.617 111.667C181.362 113.057 177.516 115.351 175.194 116.028C161.985 119.88 122.419 131.636 122.419 131.636L97.9947 138.206L82.0496 142.253C82.0496 142.253 66.244 146.544 58.1568 147.833C51.4526 148.902 44.1204 149.668 38.2872 146.196C36.9551 145.403 35.6665 144.288 35.3223 142.776C34.9171 141.001 35.9692 139.145 37.4504 138.086C38.9315 137.028 40.767 136.617 42.5601 136.297C47.4923 135.417 53.3293 135.405 56.8029 134.217C59.9395 133.147 65.2898 131.733 69.5157 130.442" stroke="white" stroke-width="3" stroke-miterlimit="10" stroke-linecap="round" stroke-linejoin="round"/>
<path d="M36.8441 145.147C45.4338 152.736 53.8281 154.554 61.8956 154.481C64.6637 154.457 67.4041 153.963 70.1175 153.409C74.8436 152.442 79.5295 151.285 84.2155 150.127C96.7461 147.032 109.257 143.901 121.647 140.288C132.932 136.998 144.104 133.36 155.429 130.204C164.397 127.701 173.779 125.408 181.028 119.568C183.051 117.94 184.862 116.065 186.613 114.148C189.735 110.727 192.679 105.519 192.112 100.925" stroke="white" stroke-width="3" stroke-miterlimit="10" stroke-linecap="round" stroke-linejoin="round"/>
<path d="M165.039 127.53C164.044 129.657 163.049 131.783 162.043 133.904" stroke="white" stroke-width="3" stroke-miterlimit="10" stroke-linecap="round" stroke-linejoin="round"/>
<path d="M145.507 133.238C148.298 135.121 149.647 135.985 151.936 137.385" stroke="white" stroke-width="3" stroke-miterlimit="10" stroke-linecap="round" stroke-linejoin="round"/>
<path d="M90.1722 149.091C89.1411 151.266 88.1101 153.44 87.068 155.609" stroke="white" stroke-width="3" stroke-miterlimit="10" stroke-linecap="round" stroke-linejoin="round"/>
<path d="M69.8225 153.888C72.9704 156.182 74.4914 157.238 77.0666 158.948" stroke="white" stroke-width="3" stroke-miterlimit="10" stroke-linecap="round" stroke-linejoin="round"/>
<path d="M71.8739 117.418C72.751 120.586 72.5456 124.042 71.3034 127.086C70.6371 128.714 69.6871 130.226 69.1712 131.911C68.6552 133.595 68.6565 135.578 69.766 136.945C71.6065 139.215 75.1707 138.584 77.9468 137.678C84.3268 135.593 90.5865 133.138 96.6842 130.33C98.2376 129.616 99.8194 128.849 101.003 127.615C103.867 124.625 103.615 119.89 105.233 116.082" stroke="white" stroke-width="3" stroke-miterlimit="10" stroke-linecap="round" stroke-linejoin="round"/>
<path d="M32.1384 130.718C26.3101 116.206 22.5686 99.6852 28.1883 85.0903C31.8466 75.5856 39.0815 67.9629 46.285 60.7672C49.4343 57.6225 52.6275 54.4899 55.2141 50.87C58.7002 45.9931 61.0219 40.2459 61.5899 34.2803C69.7593 37.6045 75.0366 46.9015 73.6969 55.621C77.9146 55.3921 81.8496 58.5135 83.4034 62.4415C84.9573 66.3695 84.4468 70.8746 82.9093 74.8091C86.9947 80.6712 86.9381 89.107 82.7791 94.916C81.3894 96.8554 79.0848 98.6406 76.805 97.9334C80.1359 102.887 78.2212 110.137 73.6402 113.964C69.0583 117.788 62.5836 118.651 56.686 117.738C53.1232 117.187 49.5342 116.054 45.9857 116.696C42.5584 117.315 39.5979 119.556 37.4209 122.271C35.2448 124.988 33.7546 128.176 32.1384 130.718Z" stroke="white" stroke-width="3" stroke-miterlimit="10" stroke-linecap="round" stroke-linejoin="round"/>
<path d="M25.7139 105.583C21.0638 105.399 17.5485 101.31 15.3735 97.1982C12.2438 91.2881 10.5902 84.6015 10.6041 77.912C13.0421 84.6474 18.9962 89.999 25.9548 91.7055" stroke="white" stroke-width="3" stroke-miterlimit="10" stroke-linecap="round" stroke-linejoin="round"/>
<path d="M32.9542 75.3558C30.0817 74.0387 28.293 71.1552 26.8578 68.34C22.6695 60.1255 20.0396 50.5398 22.5718 41.6752C22.7086 41.1926 23.0093 40.6091 23.5084 40.6631C23.8717 40.7006 24.0945 41.0691 24.264 41.3938C28.8978 50.2269 36.9517 57.2082 46.3502 60.5451" stroke="white" stroke-width="3" stroke-miterlimit="10" stroke-linecap="round" stroke-linejoin="round"/>
<path d="M74.2829 55.3776C80.7422 47.6723 90.3257 43.0567 100.172 41.0213C104.439 40.1387 108.811 39.6997 113.166 39.8985C129.613 40.6435 144.627 50.5441 154.92 63.396C157.308 66.3791 159.49 69.5286 162.04 72.371C167.097 78.003 173.58 82.3459 180.715 84.8711C180.266 86.3584 178.719 87.1929 177.288 87.8006C171.999 90.0445 166.328 91.3862 160.595 91.745C160.118 91.7751 159.607 91.8088 159.222 92.0954C158.427 92.6923 158.643 93.914 158.924 94.8673C159.799 97.8364 160.538 100.907 160.313 103.995C160.088 107.082 158.766 110.218 156.235 111.997C154.408 113.281 152.147 113.751 149.959 114.192C143.429 115.504 136.902 116.818 130.371 118.13C128.439 118.518 125.856 118.579 125.137 116.743C124.373 114.799 126.635 112.814 126.359 110.743C126.092 108.747 123.778 107.872 121.913 107.11C115.476 104.477 110.566 98.4161 109.331 91.573C108.094 84.7306 110.573 77.3315 115.68 72.6148" stroke="white" stroke-width="3" stroke-miterlimit="10" stroke-linecap="round" stroke-linejoin="round"/>
<path d="M125.571 113.164C118.922 116.924 110.725 117.004 103.925 120.48" stroke="white" stroke-width="3" stroke-miterlimit="10" stroke-linecap="round" stroke-linejoin="round"/>
<path d="M58.1405 85.6447C58.5718 87.1241 57.9411 88.3783 57.0404 88.6409C56.1397 88.9035 54.9337 88.185 54.5023 86.7056C54.0709 85.2263 54.7017 83.9721 55.6024 83.7095C56.5031 83.4468 57.7091 84.1654 58.1405 85.6447Z" fill="white" stroke="white"/>
</svg>
