<svg width="1053" height="270" viewBox="0 0 1053 270" fill="none" xmlns="http://www.w3.org/2000/svg">
<path d="M9.47393 191.257C9.47393 192.775 8.03485 194.06 6.23601 194.078H6.2033C6.11608 194.078 6.02887 194.078 5.94165 194.069C5.95255 193.482 5.96073 192.896 5.96891 192.309C5.97708 191.722 5.98526 191.136 5.99616 190.549C6.54127 190.195 7.2281 189.981 7.95854 189.981H9.47393V191.257Z" fill="white"/>
<path d="M9.47393 191.257C9.47393 192.775 8.03485 194.06 6.23601 194.078H6.2033C6.11608 194.078 6.02887 194.078 5.94165 194.069C5.95255 193.482 5.96073 192.896 5.96891 192.309C5.97708 191.722 5.98526 191.136 5.99616 190.549C6.54127 190.195 7.2281 189.981 7.95854 189.981H9.47393V191.257Z" stroke="white"/>
<path d="M1052.17 188.789L1052.14 194.376L1026.03 194.404C1015.47 194.418 1004.91 194.43 994.346 194.441C983.799 194.453 973.25 194.465 962.698 194.479C942.654 194.502 922.608 194.523 902.562 194.544C882.516 194.565 862.469 194.586 842.426 194.609L719.974 194.749L719.964 194.749C681.091 194.795 642.206 194.842 603.321 194.879L482.941 195.019L482.931 195.019C442.673 195.065 402.404 195.112 362.145 195.149C351.025 195.162 339.904 195.175 328.782 195.188C306.517 195.215 284.25 195.242 261.988 195.261C223.482 195.298 184.976 195.345 146.469 195.391C131.998 195.41 117.527 195.426 103.054 195.442C88.601 195.459 74.1462 195.475 59.6888 195.494C54.0173 195.5 48.3459 195.507 42.6749 195.514C31.3399 195.529 20.0065 195.543 8.67791 195.549H8.6452H8.24182H7.91476C7.16252 195.549 6.47568 195.317 5.91968 194.944C5.91968 194.795 5.9224 194.646 5.92513 194.497C5.92785 194.348 5.93058 194.199 5.93058 194.05C5.94148 193.464 5.94966 192.877 5.95784 192.29C5.96601 191.704 5.97419 191.117 5.98509 190.531C6.53019 190.177 7.21703 189.963 7.94747 189.963C18.8102 189.963 29.6729 189.946 40.5389 189.93C45.9764 189.921 51.4147 189.913 56.8542 189.907C71.2722 189.888 85.6902 189.872 100.108 189.856C114.526 189.839 128.944 189.823 143.362 189.804C162.539 189.781 181.718 189.76 200.898 189.739C220.077 189.718 239.257 189.697 258.434 189.674L358.962 189.562C379.093 189.539 399.223 189.518 419.354 189.497C439.485 189.476 459.616 189.455 479.746 189.432L599.473 189.292C618.971 189.269 638.47 189.248 657.968 189.227C677.466 189.206 696.965 189.185 716.463 189.162L839.057 189.022L839.232 189.022C879.239 188.975 919.246 188.929 959.253 188.892C970.153 188.878 981.054 188.866 991.953 188.855C1002.87 188.843 1013.78 188.831 1024.69 188.817L1052.17 188.789Z" fill="white"/>
<path d="M1052.17 188.789L1052.14 194.376L1026.03 194.404C1015.47 194.418 1004.91 194.43 994.346 194.441C983.799 194.453 973.25 194.465 962.698 194.479C942.654 194.502 922.608 194.523 902.562 194.544C882.516 194.565 862.469 194.586 842.426 194.609L719.974 194.749L719.964 194.749C681.091 194.795 642.206 194.842 603.321 194.879L482.941 195.019L482.931 195.019C442.673 195.065 402.404 195.112 362.145 195.149C351.025 195.162 339.904 195.175 328.782 195.188C306.517 195.215 284.25 195.242 261.988 195.261C223.482 195.298 184.976 195.345 146.469 195.391C131.998 195.41 117.527 195.426 103.054 195.442C88.601 195.459 74.1462 195.475 59.6888 195.494C54.0173 195.5 48.3459 195.507 42.6749 195.514C31.3399 195.529 20.0065 195.543 8.67791 195.549H8.6452H8.24182H7.91476C7.16252 195.549 6.47568 195.317 5.91968 194.944C5.91968 194.795 5.9224 194.646 5.92513 194.497C5.92785 194.348 5.93058 194.199 5.93058 194.05C5.94148 193.464 5.94966 192.877 5.95784 192.29C5.96601 191.704 5.97419 191.117 5.98509 190.531C6.53019 190.177 7.21703 189.963 7.94747 189.963C18.8102 189.963 29.6729 189.946 40.5389 189.93C45.9764 189.921 51.4147 189.913 56.8542 189.907C71.2722 189.888 85.6902 189.872 100.108 189.856C114.526 189.839 128.944 189.823 143.362 189.804C162.539 189.781 181.718 189.76 200.898 189.739C220.077 189.718 239.257 189.697 258.434 189.674L358.962 189.562C379.093 189.539 399.223 189.518 419.354 189.497C439.485 189.476 459.616 189.455 479.746 189.432L599.473 189.292C618.971 189.269 638.47 189.248 657.968 189.227C677.466 189.206 696.965 189.185 716.463 189.162L839.057 189.022L839.232 189.022C879.239 188.975 919.246 188.929 959.253 188.892C970.153 188.878 981.054 188.866 991.953 188.855C1002.87 188.843 1013.78 188.831 1024.69 188.817L1052.17 188.789Z" stroke="white"/>
<path d="M1053 41.3428V41.4452C1052.96 44.0586 1052.95 46.672 1052.95 49.2854C1052.94 50.5921 1052.94 51.8988 1052.93 53.2055L1052.8 76.242L1052.64 105.415C1052.61 110.736 1052.58 116.058 1052.55 121.379C1052.52 126.701 1052.49 132.022 1052.45 137.344C1052.43 142.456 1052.4 147.568 1052.37 152.68C1052.34 157.792 1052.31 162.904 1052.28 168.016C1052.25 172.411 1052.23 176.806 1052.2 181.201C1052.18 185.596 1052.15 189.991 1052.13 194.386C1049.94 194.386 1047.76 194.386 1045.56 194.395C1045.58 192.271 1045.59 190.147 1045.61 188.023C1045.64 183.788 1045.67 179.555 1045.7 175.325C1045.72 170.242 1045.75 165.159 1045.78 160.077C1045.81 155.021 1045.84 149.966 1045.87 144.914C1045.9 139.656 1045.93 134.399 1045.96 129.14C1045.99 123.856 1046.02 118.571 1046.04 113.283C1046.07 108.124 1046.1 102.968 1046.13 97.812C1046.16 92.6558 1046.19 87.4996 1046.22 82.341L1046.22 82.2421C1046.26 74.0437 1046.31 65.8361 1046.36 57.6378C1046.39 52.7307 1046.41 47.8235 1046.44 42.9164C1046.44 42.4601 1046.44 41.9946 1046.45 41.5383C1046.45 41.2776 1046.48 41.0168 1046.55 40.7747C1046.75 40.7779 1046.95 40.781 1047.15 40.7842C1048.75 40.809 1050.35 40.8338 1051.95 40.8586C1052.16 40.927 1052.37 40.9919 1052.58 41.0576C1052.71 41.0992 1052.84 41.1411 1052.98 41.1845V41.2869C1053 41.2869 1053 41.3148 1053 41.3428Z" fill="white"/>
<path d="M1053 41.3428V41.4452C1052.96 44.0586 1052.95 46.672 1052.95 49.2854C1052.94 50.5921 1052.94 51.8988 1052.93 53.2055L1052.8 76.242L1052.64 105.415C1052.61 110.736 1052.58 116.058 1052.55 121.379C1052.52 126.701 1052.49 132.022 1052.45 137.344C1052.43 142.456 1052.4 147.568 1052.37 152.68C1052.34 157.792 1052.31 162.904 1052.28 168.016C1052.25 172.411 1052.23 176.806 1052.2 181.201C1052.18 185.596 1052.15 189.991 1052.13 194.386C1049.94 194.386 1047.76 194.386 1045.56 194.395C1045.58 192.271 1045.59 190.147 1045.61 188.023C1045.64 183.788 1045.67 179.555 1045.7 175.325C1045.72 170.242 1045.75 165.159 1045.78 160.077C1045.81 155.021 1045.84 149.966 1045.87 144.914C1045.9 139.656 1045.93 134.399 1045.96 129.14C1045.99 123.856 1046.02 118.571 1046.04 113.283C1046.07 108.124 1046.1 102.968 1046.13 97.812C1046.16 92.6558 1046.19 87.4996 1046.22 82.341L1046.22 82.2421C1046.26 74.0437 1046.31 65.8361 1046.36 57.6378C1046.39 52.7307 1046.41 47.8235 1046.44 42.9164C1046.44 42.4601 1046.44 41.9946 1046.45 41.5383C1046.45 41.2776 1046.48 41.0168 1046.55 40.7747C1046.75 40.7779 1046.95 40.781 1047.15 40.7842C1048.75 40.809 1050.35 40.8338 1051.95 40.8586C1052.16 40.927 1052.37 40.9919 1052.58 41.0576C1052.71 41.0992 1052.84 41.1411 1052.98 41.1845V41.2869C1053 41.2869 1053 41.3148 1053 41.3428Z" stroke="white"/>
<path d="M12.5373 189.972C12.5264 190.903 12.5128 191.834 12.4992 192.765C12.4855 193.696 12.4719 194.628 12.461 195.559H8.68889H8.65619H8.25281H7.92575C7.1735 195.559 6.48667 195.326 5.93066 194.954L5.99608 190.54C6.54118 190.186 7.22801 189.972 7.95845 189.972H9.47384C10.4986 189.981 11.5125 189.981 12.5373 189.972Z" fill="white"/>
<path d="M12.5373 189.972C12.5264 190.903 12.5128 191.834 12.4992 192.765C12.4855 193.696 12.4719 194.628 12.461 195.559H8.68889H8.65619H8.25281H7.92575C7.1735 195.559 6.48667 195.326 5.93066 194.954L5.99608 190.54C6.54118 190.186 7.22801 189.972 7.95845 189.972H9.47384C10.4986 189.981 11.5125 189.981 12.5373 189.972Z" stroke="white"/>
<path d="M181.672 47.5814C181.296 47.749 180.923 47.919 180.549 48.0889C180.176 48.2588 179.803 48.4288 179.427 48.5964C179.109 48.7389 178.79 48.8819 178.472 49.0251C177.478 49.4714 176.481 49.9192 175.491 50.3562C175.218 48.5871 174.979 46.8086 174.76 45.0301C176.908 45.0953 179.056 45.1511 181.204 45.207H181.334C181.433 45.9985 181.552 46.7899 181.672 47.5814Z" fill="white"/>
<path d="M181.672 47.5814C181.296 47.749 180.923 47.919 180.549 48.0889C180.176 48.2588 179.803 48.4288 179.427 48.5964C179.109 48.7389 178.79 48.8819 178.472 49.0251C177.478 49.4714 176.481 49.9192 175.491 50.3562C175.218 48.5871 174.979 46.8086 174.76 45.0301C176.908 45.0953 179.056 45.1511 181.204 45.207H181.334C181.433 45.9985 181.552 46.7899 181.672 47.5814Z" stroke="white"/>
<path d="M872.701 39.6947C873.355 39.9787 874.01 40.265 874.664 40.5513C875.318 40.8376 875.972 41.124 876.626 41.408C876.375 43.382 876.103 45.3467 875.797 47.3207C874.767 46.8738 873.737 46.4245 872.707 45.9752C871.676 45.5259 870.646 45.0767 869.616 44.6297C869.643 44.4528 869.668 44.2759 869.692 44.099C869.717 43.922 869.741 43.7451 869.769 43.5682C869.889 42.7302 869.998 41.8921 870.107 41.0448C870.205 40.2626 870.292 39.4805 870.379 38.6983C871.153 39.0241 871.926 39.3591 872.7 39.6942L872.701 39.6947Z" fill="white"/>
<path d="M872.701 39.6947C873.355 39.9787 874.01 40.265 874.664 40.5513C875.318 40.8376 875.972 41.124 876.626 41.408C876.375 43.382 876.103 45.3467 875.797 47.3207C874.767 46.8738 873.737 46.4245 872.707 45.9752C871.676 45.5259 870.646 45.0767 869.616 44.6297C869.643 44.4528 869.668 44.2759 869.692 44.099C869.717 43.922 869.741 43.7451 869.769 43.5682C869.889 42.7302 869.998 41.8921 870.107 41.0448C870.205 40.2626 870.292 39.4805 870.379 38.6983C871.153 39.0241 871.926 39.3591 872.7 39.6942L872.701 39.6947Z" stroke="white"/>
<path d="M327.804 195.196C323.018 195.196 318.232 195.205 313.446 195.214C258.554 170.697 209.647 136.273 186.251 87.2854C180.026 73.551 176.494 59.3883 174.76 45.0301C176.908 45.0953 179.056 45.1511 181.204 45.207H181.334C184.889 71.3815 194.809 96.8203 213.376 118.218C242.255 151.646 283.378 176.573 327.804 195.196Z" fill="white"/>
<path d="M327.804 195.196C323.018 195.196 318.232 195.205 313.446 195.214C258.554 170.697 209.647 136.273 186.251 87.2854C180.026 73.551 176.494 59.3883 174.76 45.0301C176.908 45.0953 179.056 45.1511 181.204 45.207H181.334C184.889 71.3815 194.809 96.8203 213.376 118.218C242.255 151.646 283.378 176.573 327.804 195.196Z" stroke="white"/>
<path d="M870.455 37.9813L876.997 38.0931C874.903 57.8333 869.856 77.3035 859.946 95.2932C835.416 138.135 793.16 172.411 744.067 194.73C739.151 194.73 734.234 194.739 729.317 194.749C736.719 191.657 744.035 188.445 751.219 185.037C795.427 162.68 833.901 130.062 855.607 89.995C864.045 73.5045 868.526 55.85 870.455 37.9813Z" fill="white"/>
<path d="M870.455 37.9813L876.997 38.0931C874.903 57.8333 869.856 77.3035 859.946 95.2932C835.416 138.135 793.16 172.411 744.067 194.73C739.151 194.73 734.234 194.739 729.317 194.749C736.719 191.657 744.035 188.445 751.219 185.037C795.427 162.68 833.901 130.062 855.607 89.995C864.045 73.5045 868.526 55.85 870.455 37.9813Z" stroke="white"/>
<path d="M181.662 47.5814C181.667 47.6001 181.67 47.621 181.672 47.642C181.675 47.6629 181.678 47.6839 181.683 47.7025C179.492 47.7025 177.29 47.6932 175.098 47.6839C175.077 47.5815 175.066 47.4791 175.055 47.3768L175.055 47.3766C174.946 46.5944 174.848 45.8123 174.76 45.0208C176.908 45.086 179.056 45.1418 181.204 45.1977H181.334C181.401 45.7419 181.478 46.2818 181.554 46.8204C181.591 47.0743 181.627 47.3278 181.662 47.5814Z" fill="white"/>
<path d="M181.662 47.5814C181.667 47.6001 181.67 47.621 181.672 47.642C181.675 47.6629 181.678 47.6839 181.683 47.7025C179.492 47.7025 177.29 47.6932 175.098 47.6839C175.077 47.5815 175.066 47.4791 175.055 47.3768L175.055 47.3766C174.946 46.5944 174.848 45.8123 174.76 45.0208C176.908 45.086 179.056 45.1418 181.204 45.1977H181.334C181.401 45.7419 181.478 46.2818 181.554 46.8204C181.591 47.0743 181.627 47.3278 181.662 47.5814Z" stroke="white"/>
<path d="M1053 41.3428V41.4452C1052.97 43.1119 1052.96 44.7787 1052.96 46.4548C1042.05 46.2778 1031.16 46.1102 1020.26 45.9426C1014.08 45.8449 1007.91 45.7494 1001.73 45.654C995.557 45.5585 989.381 45.4631 983.205 45.3653C977.1 45.2676 970.995 45.1721 964.89 45.0767C958.784 44.9812 952.679 44.8858 946.574 44.788L911.109 44.2293C901.395 44.0804 891.682 43.9314 881.968 43.7731C877.901 43.7079 873.835 43.6427 869.768 43.5682C869.997 41.948 870.193 40.3278 870.379 38.6983C870.389 38.5874 870.402 38.4765 870.415 38.3646C870.429 38.2416 870.444 38.1174 870.455 37.9907L882.099 38.1862C886.961 38.2607 891.823 38.3375 896.686 38.4143C901.548 38.4912 906.41 38.568 911.273 38.6425L946.759 39.2011C952.937 39.2998 959.115 39.3961 965.294 39.4924C971.361 39.587 977.428 39.6816 983.499 39.7785C989.653 39.8762 995.81 39.9717 1001.97 40.0671C1008.12 40.1626 1014.28 40.258 1020.44 40.3558C1030.94 40.5234 1041.47 40.691 1051.97 40.8493C1052.18 40.9178 1052.39 40.9827 1052.6 41.0485C1052.73 41.0901 1052.86 41.1319 1053 41.1752V41.2776V41.3428Z" fill="white"/>
<path d="M1053 41.3428V41.4452C1052.97 43.1119 1052.96 44.7787 1052.96 46.4548C1042.05 46.2778 1031.16 46.1102 1020.26 45.9426C1014.08 45.8449 1007.91 45.7494 1001.73 45.654C995.557 45.5585 989.381 45.4631 983.205 45.3653C977.1 45.2676 970.995 45.1721 964.89 45.0767C958.784 44.9812 952.679 44.8858 946.574 44.788L911.109 44.2293C901.395 44.0804 891.682 43.9314 881.968 43.7731C877.901 43.7079 873.835 43.6427 869.768 43.5682C869.997 41.948 870.193 40.3278 870.379 38.6983C870.389 38.5874 870.402 38.4765 870.415 38.3646C870.429 38.2416 870.444 38.1174 870.455 37.9907L882.099 38.1862C886.961 38.2607 891.823 38.3375 896.686 38.4143C901.548 38.4912 906.41 38.568 911.273 38.6425L946.759 39.2011C952.937 39.2998 959.115 39.3961 965.294 39.4924C971.361 39.587 977.428 39.6816 983.499 39.7785C989.653 39.8762 995.81 39.9717 1001.97 40.0671C1008.12 40.1626 1014.28 40.258 1020.44 40.3558C1030.94 40.5234 1041.47 40.691 1051.97 40.8493C1052.18 40.9178 1052.39 40.9827 1052.6 41.0485C1052.73 41.0901 1052.86 41.1319 1053 41.1752V41.2776V41.3428Z" stroke="white"/>
<path d="M1053 41.3428V41.4452C1052.97 43.1119 1052.96 44.7787 1052.96 46.4547V47.1158L1035.92 41.7245C1035.15 41.479 1034.38 41.237 1033.61 40.9943C1033.12 40.8411 1032.63 40.6876 1032.14 40.5327C1034.55 40.5746 1036.95 40.6118 1039.36 40.6491C1041.76 40.6863 1044.16 40.7236 1046.57 40.7655C1048.37 40.7934 1050.17 40.8213 1051.98 40.8493C1052.14 40.9051 1052.32 40.9587 1052.49 41.0122C1052.66 41.0658 1052.83 41.1193 1053 41.1752V41.2776V41.3428Z" fill="white"/>
<path d="M1053 41.3428V41.4452C1052.97 43.1119 1052.96 44.7787 1052.96 46.4547V47.1158L1035.92 41.7245C1035.15 41.479 1034.38 41.237 1033.61 40.9943C1033.12 40.8411 1032.63 40.6876 1032.14 40.5327C1034.55 40.5746 1036.95 40.6118 1039.36 40.6491C1041.76 40.6863 1044.16 40.7236 1046.57 40.7655C1048.37 40.7934 1050.17 40.8213 1051.98 40.8493C1052.14 40.9051 1052.32 40.9587 1052.49 41.0122C1052.66 41.0658 1052.83 41.1193 1053 41.1752V41.2776V41.3428Z" stroke="white"/>
<path d="M7.16267 189.795V189.795C7.17357 191.862 7.18448 193.929 7.18448 195.996H7.16267H6.83561H6.73749C6.73749 196.35 6.73749 196.695 6.74839 197.049V197.859C6.79175 202.654 6.82433 207.45 6.85685 212.236L6.85741 212.319V213.39C6.30141 214.265 5.2112 214.88 3.97926 214.88C2.19132 214.88 0.708636 213.614 0.708636 212.087V212.003V211.882V211.77L0.643223 195.726L0.512398 165.12C0.46879 155.324 0.425182 145.519 0.392475 135.714L0.26165 105.731L0.130825 74.7056C0.114445 69.8043 0.0953297 64.903 0.0762192 60.0028C0.0571723 55.119 0.03813 50.2363 0.0218042 45.356C0.0218042 43.8103 0.0109021 42.2646 0 40.7189C0.436084 40.7375 0.861265 40.7468 1.29735 40.7561C3.05258 40.2068 4.79692 39.6574 6.54125 39.108V40.3092C6.56302 45.1151 6.58207 49.9209 6.60112 54.7257C6.62023 59.5467 6.63934 64.3665 6.66118 69.184L6.792 99.6975C6.81381 104.689 6.83289 109.68 6.85196 114.671C6.87104 119.661 6.89012 124.652 6.91192 129.643L7.04275 159.803C7.06452 164.795 7.08357 169.787 7.10262 174.778C7.12173 179.785 7.14083 184.791 7.16267 189.795Z" fill="white"/>
<path d="M7.16267 189.795V189.795C7.17357 191.862 7.18448 193.929 7.18448 195.996H7.16267H6.83561H6.73749C6.73749 196.35 6.73749 196.695 6.74839 197.049V197.859C6.79175 202.654 6.82433 207.45 6.85685 212.236L6.85741 212.319V213.39C6.30141 214.265 5.2112 214.88 3.97926 214.88C2.19132 214.88 0.708636 213.614 0.708636 212.087V212.003V211.882V211.77L0.643223 195.726L0.512398 165.12C0.46879 155.324 0.425182 145.519 0.392475 135.714L0.26165 105.731L0.130825 74.7056C0.114445 69.8043 0.0953297 64.903 0.0762192 60.0028C0.0571723 55.119 0.03813 50.2363 0.0218042 45.356C0.0218042 43.8103 0.0109021 42.2646 0 40.7189C0.436084 40.7375 0.861265 40.7468 1.29735 40.7561C3.05258 40.2068 4.79692 39.6574 6.54125 39.108V40.3092C6.56302 45.1151 6.58207 49.9209 6.60112 54.7257C6.62023 59.5467 6.63934 64.3665 6.66118 69.184L6.792 99.6975C6.81381 104.689 6.83289 109.68 6.85196 114.671C6.87104 119.661 6.89012 124.652 6.91192 129.643L7.04275 159.803C7.06452 164.795 7.08357 169.787 7.10262 174.778C7.12173 179.785 7.14083 184.791 7.16267 189.795Z" stroke="white"/>
<path d="M181.683 47.7025C181.836 48.7453 182.01 49.7882 182.185 50.8218L181.904 50.8141C174.519 50.6118 167.133 50.4095 159.737 50.2072L159.13 50.1907C152.823 50.0193 146.507 49.8476 140.201 49.6672L139.418 49.646C130.727 49.411 122.028 49.1757 113.338 48.9316C101.684 48.615 90.0402 48.2984 78.3968 47.9725C72.1087 47.8022 65.8206 47.6294 59.5339 47.4567C53.4495 47.2895 47.3665 47.1224 41.2861 46.9576C34.7718 46.7778 28.2574 46.6004 21.7417 46.423C15.4338 46.2512 9.12451 46.0794 2.81262 45.9054C2.24571 45.8867 1.6788 45.8681 1.11189 45.8588V44.909C1.11189 43.5123 1.10099 42.1063 1.09009 40.7096V40.2626L1.13104 40.2638C11.8996 40.5614 22.6681 40.8589 33.4257 41.1472C46.083 41.4918 58.7403 41.8363 71.4086 42.1808L71.4411 42.1817C82.8775 42.498 94.3138 42.8143 105.75 43.1213C114.919 43.3727 124.077 43.6241 133.234 43.8755C137.141 43.9825 141.045 44.0896 144.949 44.1966C148.857 44.3037 152.764 44.4108 156.674 44.518L181.204 45.1884H181.334C181.443 45.9799 181.552 46.7713 181.672 47.5535C181.672 47.628 181.672 47.6652 181.683 47.7025Z" fill="white"/>
<path d="M181.683 47.7025C181.836 48.7453 182.01 49.7882 182.185 50.8218L181.904 50.8141C174.519 50.6118 167.133 50.4095 159.737 50.2072L159.13 50.1907C152.823 50.0193 146.507 49.8476 140.201 49.6672L139.418 49.646C130.727 49.411 122.028 49.1757 113.338 48.9316C101.684 48.615 90.0402 48.2984 78.3968 47.9725C72.1087 47.8022 65.8206 47.6294 59.5339 47.4567C53.4495 47.2895 47.3665 47.1224 41.2861 46.9576C34.7718 46.7778 28.2574 46.6004 21.7417 46.423C15.4338 46.2512 9.12451 46.0794 2.81262 45.9054C2.24571 45.8867 1.6788 45.8681 1.11189 45.8588V44.909C1.11189 43.5123 1.10099 42.1063 1.09009 40.7096V40.2626L1.13104 40.2638C11.8996 40.5614 22.6681 40.8589 33.4257 41.1472C46.083 41.4918 58.7403 41.8363 71.4086 42.1808L71.4411 42.1817C82.8775 42.498 94.3138 42.8143 105.75 43.1213C114.919 43.3727 124.077 43.6241 133.234 43.8755C137.141 43.9825 141.045 44.0896 144.949 44.1966C148.857 44.3037 152.764 44.4108 156.674 44.518L181.204 45.1884H181.334C181.443 45.9799 181.552 46.7713 181.672 47.5535C181.672 47.628 181.672 47.6652 181.683 47.7025Z" stroke="white"/>
<path d="M136.887 1.04287C137.53 2.43027 136.734 4.14356 135.055 4.665C129.643 6.3594 124.231 8.05614 118.819 9.75287C113.405 11.4502 107.991 13.1475 102.578 14.8424C97.4548 16.4483 92.3291 18.0565 87.2034 19.6648C82.0757 21.2736 76.9479 22.8825 71.8229 24.4891C60.5313 28.0231 49.2397 31.5664 37.9481 35.1097L37.9065 35.1227C33.9716 36.3573 30.0384 37.5905 26.1061 38.8233C19.8953 40.7706 13.6871 42.717 7.4788 44.667C6.25031 45.049 5.02546 45.4341 3.80215 45.8188C2.90851 46.0998 2.01569 46.3805 1.12288 46.6596V45.8681V44.9184C1.12288 43.5216 1.11198 42.1156 1.10107 40.7189C3.28694 40.0345 5.47009 39.3501 7.65323 38.6657C9.83637 37.9813 12.0195 37.2969 14.2054 36.6125C18.8372 35.1615 23.4691 33.7087 28.1017 32.2558C34.4385 30.2683 40.7768 28.2803 47.1188 26.2955C57.9924 22.8896 68.877 19.4744 79.7616 16.0591L79.7814 16.0529C84.8078 14.4745 89.8368 12.8984 94.8659 11.3222C99.894 9.74643 104.922 8.17062 109.948 6.59248C112.924 5.66133 115.9 4.72785 118.876 3.79437C121.853 2.8609 124.829 1.92743 127.805 0.996296L136.854 0.94043C136.854 0.957856 136.862 0.978913 136.871 1.00133C136.877 1.01485 136.882 1.02886 136.887 1.04287Z" fill="white"/>
<path d="M136.887 1.04287C137.53 2.43027 136.734 4.14356 135.055 4.665C129.643 6.3594 124.231 8.05614 118.819 9.75287C113.405 11.4502 107.991 13.1475 102.578 14.8424C97.4548 16.4483 92.3291 18.0565 87.2034 19.6648C82.0757 21.2736 76.9479 22.8825 71.8229 24.4891C60.5313 28.0231 49.2397 31.5664 37.9481 35.1097L37.9065 35.1227C33.9716 36.3573 30.0384 37.5905 26.1061 38.8233C19.8953 40.7706 13.6871 42.717 7.4788 44.667C6.25031 45.049 5.02546 45.4341 3.80215 45.8188C2.90851 46.0998 2.01569 46.3805 1.12288 46.6596V45.8681V44.9184C1.12288 43.5216 1.11198 42.1156 1.10107 40.7189C3.28694 40.0345 5.47009 39.3501 7.65323 38.6657C9.83637 37.9813 12.0195 37.2969 14.2054 36.6125C18.8372 35.1615 23.4691 33.7087 28.1017 32.2558C34.4385 30.2683 40.7768 28.2803 47.1188 26.2955C57.9924 22.8896 68.877 19.4744 79.7616 16.0591L79.7814 16.0529C84.8078 14.4745 89.8368 12.8984 94.8659 11.3222C99.894 9.74643 104.922 8.17062 109.948 6.59248C112.924 5.66133 115.9 4.72785 118.876 3.79437C121.853 2.8609 124.829 1.92743 127.805 0.996296L136.854 0.94043C136.854 0.957856 136.862 0.978913 136.871 1.00133C136.877 1.01485 136.882 1.02886 136.887 1.04287Z" stroke="white"/>
<path d="M136.887 1.04287C137.53 2.43027 136.734 4.14356 135.055 4.665C134.875 4.72087 134.693 4.77908 134.51 4.83728C134.327 4.89548 134.145 4.95368 133.965 5.00955L115.257 4.92572C119.432 3.61281 123.608 2.2999 127.783 0.996296L136.832 0.94043C136.854 0.968364 136.876 1.00562 136.887 1.04287Z" fill="white"/>
<path d="M136.887 1.04287C137.53 2.43027 136.734 4.14356 135.055 4.665C134.875 4.72087 134.693 4.77908 134.51 4.83728C134.327 4.89548 134.145 4.95368 133.965 5.00955L115.257 4.92572C119.432 3.61281 123.608 2.2999 127.783 0.996296L136.832 0.94043C136.854 0.968364 136.876 1.00562 136.887 1.04287Z" stroke="white"/>
<path d="M1.09025 266.167C1.03574 257.647 0.970331 249.127 0.904918 240.607L0.774093 222.413L0.643268 203.846C0.626915 201.453 0.607836 199.062 0.588758 196.671C0.569679 194.281 0.5506 191.89 0.534247 189.497L0.501541 184.571C0.490639 183.053 1.94062 181.759 3.72856 181.741C5.4947 181.722 7.02099 182.979 7.04279 184.497C7.05915 186.517 7.07277 188.538 7.0864 190.558C7.10003 192.579 7.11366 194.6 7.13001 196.62L7.26084 213.846L7.39166 232.628L7.55519 255.115C7.5879 258.644 7.6097 261.381 7.63151 264.91V265.804C7.63151 265.907 7.45707 264.91 7.45707 264.91C6.78221 264.91 7.2102 264.903 7.21019 264.902C7.21018 264.902 7.04804 264.903 6.36686 264.91H4.40449C3.52737 264.906 2.70672 265.588 2.10145 266.091C1.48796 266.601 1.09574 266.927 1.09025 266.167Z" fill="white"/>
<path d="M1.09025 266.167C1.03574 257.647 0.970331 249.127 0.904918 240.607L0.774093 222.413L0.643268 203.846C0.626915 201.453 0.607836 199.062 0.588758 196.671C0.569679 194.281 0.5506 191.89 0.534247 189.497L0.501541 184.571C0.490639 183.053 1.94062 181.759 3.72856 181.741C5.4947 181.722 7.02099 182.979 7.04279 184.497C7.05915 186.517 7.07277 188.538 7.0864 190.558C7.10003 192.579 7.11366 194.6 7.13001 196.62L7.26084 213.846L7.39166 232.628L7.55519 255.115C7.5879 258.644 7.6097 261.381 7.63151 264.91V265.804C7.63151 265.907 7.45707 264.91 7.45707 264.91C6.78221 264.91 7.2102 264.903 7.21019 264.902C7.21018 264.902 7.04804 264.903 6.36686 264.91H4.40449C3.52737 264.906 2.70672 265.588 2.10145 266.091C1.48796 266.601 1.09574 266.927 1.09025 266.167Z" stroke="white"/>
<path d="M1051.66 186.964C1051.56 189.441 1051.44 191.909 1051.32 194.376C1049.4 194.376 1047.49 194.376 1045.58 194.386H1044.77C1044.87 192.523 1044.95 190.661 1045.03 188.799H1045.62L1045.62 188.792C1045.63 187.677 1045.64 186.562 1045.64 185.447C1046.22 184.655 1047.23 184.124 1048.42 184.134C1050.17 184.152 1051.71 185.428 1051.66 186.964Z" fill="white"/>
<path d="M1051.66 186.964C1051.56 189.441 1051.44 191.909 1051.32 194.376C1049.4 194.376 1047.49 194.376 1045.58 194.386H1044.77C1044.87 192.523 1044.95 190.661 1045.03 188.799H1045.62L1045.62 188.792C1045.63 187.677 1045.64 186.562 1045.64 185.447C1046.22 184.655 1047.23 184.124 1048.42 184.134C1050.17 184.152 1051.71 185.428 1051.66 186.964Z" stroke="white"/>
<path d="M1051.38 264.873L1051.34 270.46C1044.35 270.441 1037.36 270.423 1030.37 270.413C1011.89 270.372 993.423 270.332 974.952 270.292C956.481 270.253 938.01 270.213 919.536 270.171C878.294 270.078 837.051 269.985 795.809 269.901C775.841 269.859 755.873 269.815 735.906 269.771C715.939 269.727 695.972 269.682 676.006 269.641C659.669 269.603 643.335 269.568 627.001 269.533C610.667 269.499 594.333 269.464 577.996 269.426C561.483 269.389 544.971 269.354 528.459 269.319C511.907 269.285 495.357 269.25 478.809 269.212L377.234 268.989L274.634 268.765C256.411 268.723 238.188 268.684 219.965 268.644C201.742 268.605 183.52 268.565 165.297 268.523L72.6405 268.328C60.7298 268.304 48.8191 268.276 36.9084 268.249C24.9981 268.221 13.0877 268.193 1.1773 268.169C1.1555 268.039 1.1337 267.909 1.1337 267.778C1.12279 266.046 1.11189 264.314 1.09009 262.583L78.375 262.75L169.059 262.946C187.892 262.988 206.723 263.027 225.553 263.067C244.384 263.106 263.214 263.146 282.048 263.188L384.048 263.411C416.925 263.476 449.791 263.55 482.667 263.624L483.333 263.625L585.071 263.849C601.099 263.886 617.126 263.921 633.152 263.956C649.219 263.991 665.285 264.026 681.348 264.063C701.566 264.105 721.786 264.149 742.007 264.193C762.228 264.238 782.448 264.282 802.666 264.324C843.832 264.417 885.01 264.51 926.176 264.594C963.592 264.678 1001.02 264.761 1038.45 264.836C1042.75 264.854 1047.06 264.864 1051.38 264.873Z" fill="white"/>
<path d="M1051.38 264.873L1051.34 270.46C1044.35 270.441 1037.36 270.423 1030.37 270.413C1011.89 270.372 993.423 270.332 974.952 270.292C956.481 270.253 938.01 270.213 919.536 270.171C878.294 270.078 837.051 269.985 795.809 269.901C775.841 269.859 755.873 269.815 735.906 269.771C715.939 269.727 695.972 269.682 676.006 269.641C659.669 269.603 643.335 269.568 627.001 269.533C610.667 269.499 594.333 269.464 577.996 269.426C561.483 269.389 544.971 269.354 528.459 269.319C511.907 269.285 495.357 269.25 478.809 269.212L377.234 268.989L274.634 268.765C256.411 268.723 238.188 268.684 219.965 268.644C201.742 268.605 183.52 268.565 165.297 268.523L72.6405 268.328C60.7298 268.304 48.8191 268.276 36.9084 268.249C24.9981 268.221 13.0877 268.193 1.1773 268.169C1.1555 268.039 1.1337 267.909 1.1337 267.778C1.12279 266.046 1.11189 264.314 1.09009 262.583L78.375 262.75L169.059 262.946C187.892 262.988 206.723 263.027 225.553 263.067C244.384 263.106 263.214 263.146 282.048 263.188L384.048 263.411C416.925 263.476 449.791 263.55 482.667 263.624L483.333 263.625L585.071 263.849C601.099 263.886 617.126 263.921 633.152 263.956C649.219 263.991 665.285 264.026 681.348 264.063C701.566 264.105 721.786 264.149 742.007 264.193C762.228 264.238 782.448 264.282 802.666 264.324C843.832 264.417 885.01 264.51 926.176 264.594C963.592 264.678 1001.02 264.761 1038.45 264.836C1042.75 264.854 1047.06 264.864 1051.38 264.873Z" stroke="white"/>
<path d="M1052.54 164.663C1052.54 168.009 1052.52 171.35 1052.5 174.693C1052.49 176.7 1052.47 178.708 1052.47 180.716L1052.47 180.794C1052.44 185.666 1052.42 190.538 1052.39 195.41C1052.37 198.278 1052.36 201.148 1052.35 204.018C1052.33 206.888 1052.32 209.759 1052.3 212.627L1052.24 225.467L1052.14 244.202C1052.12 247.167 1052.11 250.135 1052.1 253.104C1052.08 256.072 1052.07 259.04 1052.05 262.005L1052.02 268.849C1050.93 268.844 1049.84 268.842 1048.75 268.84C1047.66 268.837 1046.57 268.835 1045.48 268.83C1045.49 266.959 1045.5 265.085 1045.5 263.211C1045.51 261.337 1045.52 259.463 1045.53 257.592C1045.55 254.505 1045.56 251.418 1045.58 248.331C1045.59 245.245 1045.6 242.158 1045.62 239.071C1045.64 236.222 1045.65 233.375 1045.66 230.528C1045.68 227.681 1045.69 224.834 1045.71 221.985L1045.77 208.399C1045.79 202.831 1045.83 197.263 1045.86 191.704C1045.88 186.843 1045.9 181.983 1045.94 177.122C1045.94 176.079 1045.95 175.036 1045.95 173.992C1045.97 170.861 1045.99 167.727 1045.99 164.598C1045.99 163.081 1047.53 161.814 1049.29 161.833C1051.09 161.851 1052.54 163.136 1052.54 164.663Z" fill="white"/>
<path d="M1052.54 164.663C1052.54 168.009 1052.52 171.35 1052.5 174.693C1052.49 176.7 1052.47 178.708 1052.47 180.716L1052.47 180.794C1052.44 185.666 1052.42 190.538 1052.39 195.41C1052.37 198.278 1052.36 201.148 1052.35 204.018C1052.33 206.888 1052.32 209.759 1052.3 212.627L1052.24 225.467L1052.14 244.202C1052.12 247.167 1052.11 250.135 1052.1 253.104C1052.08 256.072 1052.07 259.04 1052.05 262.005L1052.02 268.849C1050.93 268.844 1049.84 268.842 1048.75 268.84C1047.66 268.837 1046.57 268.835 1045.48 268.83C1045.49 266.959 1045.5 265.085 1045.5 263.211C1045.51 261.337 1045.52 259.463 1045.53 257.592C1045.55 254.505 1045.56 251.418 1045.58 248.331C1045.59 245.245 1045.6 242.158 1045.62 239.071C1045.64 236.222 1045.65 233.375 1045.66 230.528C1045.68 227.681 1045.69 224.834 1045.71 221.985L1045.77 208.399C1045.79 202.831 1045.83 197.263 1045.86 191.704C1045.88 186.843 1045.9 181.983 1045.94 177.122C1045.94 176.079 1045.95 175.036 1045.95 173.992C1045.97 170.861 1045.99 167.727 1045.99 164.598C1045.99 163.081 1047.53 161.814 1049.29 161.833C1051.09 161.851 1052.54 163.136 1052.54 164.663Z" stroke="white"/>
<path d="M874.914 39.6388C876.495 40.3371 877.28 41.9201 876.517 43.3447C875.983 44.3317 874.751 44.9835 873.497 44.9835C873.05 44.9835 872.603 44.8997 872.178 44.7135C871.371 44.3597 870.565 44.0151 869.758 43.6706C869.763 43.652 869.766 43.6334 869.769 43.6148C869.771 43.5961 869.774 43.5775 869.78 43.5589C869.932 42.4322 870.085 41.3055 870.216 40.1788C870.243 39.9321 870.273 39.683 870.303 39.4339C870.333 39.1848 870.363 38.9358 870.39 38.689C870.423 38.4562 870.445 38.2234 870.466 37.9813C870.565 37.9813 870.663 37.9837 870.761 37.986C870.859 37.9883 870.957 37.9906 871.055 37.9906C871.698 38.2653 872.342 38.5377 872.985 38.8101C873.628 39.0824 874.271 39.3548 874.914 39.6295V39.6388Z" fill="white"/>
<path d="M874.914 39.6388C876.495 40.3371 877.28 41.9201 876.517 43.3447C875.983 44.3317 874.751 44.9835 873.497 44.9835C873.05 44.9835 872.603 44.8997 872.178 44.7135C871.371 44.3597 870.565 44.0151 869.758 43.6706C869.763 43.652 869.766 43.6334 869.769 43.6148C869.771 43.5961 869.774 43.5775 869.78 43.5589C869.932 42.4322 870.085 41.3055 870.216 40.1788C870.243 39.9321 870.273 39.683 870.303 39.4339C870.333 39.1848 870.363 38.9358 870.39 38.689C870.423 38.4562 870.445 38.2234 870.466 37.9813C870.565 37.9813 870.663 37.9837 870.761 37.986C870.859 37.9883 870.957 37.9906 871.055 37.9906C871.698 38.2653 872.342 38.5377 872.985 38.8101C873.628 39.0824 874.271 39.3548 874.914 39.6295V39.6388Z" stroke="white"/>
<path d="M1053 41.3428V41.4452C1052.97 43.1119 1052.96 44.7787 1052.96 46.4548V47.1066L1032.55 40.542L1046.57 40.7655C1048.37 40.7934 1050.17 40.8214 1051.97 40.8493C1052.14 40.9052 1052.32 40.9587 1052.49 41.0122C1052.66 41.0658 1052.83 41.1193 1053 41.1752V41.2776V41.3428Z" fill="white"/>
<path d="M1053 41.3428V41.4452C1052.97 43.1119 1052.96 44.7787 1052.96 46.4548V47.1066L1032.55 40.542L1046.57 40.7655C1048.37 40.7934 1050.17 40.8214 1051.97 40.8493C1052.14 40.9052 1052.32 40.9587 1052.49 41.0122C1052.66 41.0658 1052.83 41.1193 1053 41.1752V41.2776V41.3428Z" stroke="white"/>
<path d="M275.67 5.59611C275.67 5.81014 275.681 6.01489 275.692 6.21961L275.692 6.21999L246.78 19.7681L246.755 19.7797C236.548 24.5619 226.341 29.3441 216.134 34.117C213.794 35.213 211.456 36.3081 209.118 37.4028C203.928 39.8331 198.742 42.2618 193.556 44.6949C192.328 45.2703 191.1 45.8457 189.871 46.4213C186.408 48.0438 182.941 49.6677 179.481 51.2967C178.99 51.5294 178.456 51.6319 177.922 51.6319C176.756 51.6319 175.622 51.1104 175.033 50.1979C174.172 48.8664 174.76 47.1344 176.319 46.4082C179.341 44.9923 182.356 43.5787 185.372 42.1651C188.385 40.7527 191.398 39.3402 194.417 37.9254L222.152 24.936C232.454 20.1033 242.757 15.28 253.059 10.4567C256.777 8.71548 260.492 6.97428 264.206 5.23308C267.921 3.49181 271.636 1.75053 275.354 0.00924683L275.681 0.00924683C275.648 1.89947 275.637 3.76176 275.67 5.59611Z" fill="white"/>
<path d="M275.67 5.59611C275.67 5.81014 275.681 6.01489 275.692 6.21961L275.692 6.21999L246.78 19.7681L246.755 19.7797C236.548 24.5619 226.341 29.3441 216.134 34.117C213.794 35.213 211.456 36.3081 209.118 37.4028C203.928 39.8331 198.742 42.2618 193.556 44.6949C192.328 45.2703 191.1 45.8457 189.871 46.4213C186.408 48.0438 182.941 49.6677 179.481 51.2967C178.99 51.5294 178.456 51.6319 177.922 51.6319C176.756 51.6319 175.622 51.1104 175.033 50.1979C174.172 48.8664 174.76 47.1344 176.319 46.4082C179.341 44.9923 182.356 43.5787 185.372 42.1651C188.385 40.7527 191.398 39.3402 194.417 37.9254L222.152 24.936C232.454 20.1033 242.757 15.28 253.059 10.4567C256.777 8.71548 260.492 6.97428 264.206 5.23308C267.921 3.49181 271.636 1.75053 275.354 0.00924683L275.681 0.00924683C275.648 1.89947 275.637 3.76176 275.67 5.59611Z" stroke="white"/>
<path d="M255.97 0.139621C259.257 0.116342 262.541 0.0953878 265.826 0.0744337C269.11 0.0534796 272.394 0.0325254 275.681 0.00924683C275.638 1.90878 275.638 3.77107 275.67 5.59611C271.647 5.62404 267.627 5.64965 263.607 5.67526C259.587 5.70087 255.567 5.72648 251.544 5.75442C238.211 5.84753 224.866 5.94065 211.522 6.02446C205.154 6.06619 198.783 6.11023 192.411 6.15428C185.987 6.19868 179.562 6.2431 173.136 6.28517C166.634 6.32724 160.136 6.37166 153.638 6.41606C147.192 6.46012 140.747 6.50416 134.303 6.54589L109.577 6.71349C109.637 6.69487 109.694 6.67625 109.751 6.65763C109.809 6.639 109.866 6.62038 109.926 6.60176L109.932 6.59981C111.707 6.04177 113.482 5.48374 115.246 4.93501C116.132 4.65642 117.017 4.37783 117.903 4.09934C121.189 3.06534 124.472 2.03257 127.762 1.00558C129.593 0.99161 131.425 0.979974 133.256 0.968338C135.088 0.956702 136.919 0.945066 138.751 0.931098C145.172 0.889197 151.594 0.844968 158.015 0.800739C164.436 0.75651 170.858 0.712281 177.279 0.670379C183.727 0.628478 190.179 0.584249 196.63 0.54002C203.081 0.495791 209.533 0.451562 215.981 0.40966L216.016 0.40942C229.337 0.316386 242.659 0.223352 255.97 0.139621Z" fill="white"/>
<path d="M255.97 0.139621C259.257 0.116342 262.541 0.0953878 265.826 0.0744337C269.11 0.0534796 272.394 0.0325254 275.681 0.00924683C275.638 1.90878 275.638 3.77107 275.67 5.59611C271.647 5.62404 267.627 5.64965 263.607 5.67526C259.587 5.70087 255.567 5.72648 251.544 5.75442C238.211 5.84753 224.866 5.94065 211.522 6.02446C205.154 6.06619 198.783 6.11023 192.411 6.15428C185.987 6.19868 179.562 6.2431 173.136 6.28517C166.634 6.32724 160.136 6.37166 153.638 6.41606C147.192 6.46012 140.747 6.50416 134.303 6.54589L109.577 6.71349C109.637 6.69487 109.694 6.67625 109.751 6.65763C109.809 6.639 109.866 6.62038 109.926 6.60176L109.932 6.59981C111.707 6.04177 113.482 5.48374 115.246 4.93501C116.132 4.65642 117.017 4.37783 117.903 4.09934C121.189 3.06534 124.472 2.03257 127.762 1.00558C129.593 0.99161 131.425 0.979974 133.256 0.968338C135.088 0.956702 136.919 0.945066 138.751 0.931098C145.172 0.889197 151.594 0.844968 158.015 0.800739C164.436 0.75651 170.858 0.712281 177.279 0.670379C183.727 0.628478 190.179 0.584249 196.63 0.54002C203.081 0.495791 209.533 0.451562 215.981 0.40966L216.016 0.40942C229.337 0.316386 242.659 0.223352 255.97 0.139621Z" stroke="white"/>
<path d="M940.916 6.31316C935.119 6.34103 929.321 6.35961 923.524 6.37819L923.483 6.37832C920.779 5.4565 918.078 4.537 915.378 3.61751C912.676 2.698 909.975 1.77849 907.272 0.856645C907.81 0.852001 908.346 0.849675 908.88 0.847356C909.417 0.845025 909.952 0.842699 910.488 0.838032L924.693 0.782166C926.496 1.39671 928.299 2.01021 930.103 2.62372C933.71 3.85077 937.318 5.07783 940.916 6.31316Z" fill="white"/>
<path d="M940.916 6.31316C935.119 6.34103 929.321 6.35961 923.524 6.37819L923.483 6.37832C920.779 5.4565 918.078 4.537 915.378 3.61751C912.676 2.698 909.975 1.77849 907.272 0.856645C907.81 0.852001 908.346 0.849675 908.88 0.847356C909.417 0.845025 909.952 0.842699 910.488 0.838032L924.693 0.782166C926.496 1.39671 928.299 2.01021 930.103 2.62372C933.71 3.85077 937.318 5.07783 940.916 6.31316Z" stroke="white"/>
<path d="M1052.97 44.4807C1052.97 44.8055 1052.96 45.1302 1052.96 45.4561C1052.96 45.7843 1052.96 46.1137 1052.96 46.4454V47.0972V47.1065C1052.96 48.2332 1052.96 49.3599 1052.95 50.4959L1052.94 50.4935C1052.32 50.2801 1051.7 50.0668 1051.07 49.8534C1050.3 49.588 1049.52 49.325 1048.75 49.0619C1047.97 48.7989 1047.2 48.5359 1046.43 48.2705C1046.44 47.628 1046.44 46.9855 1046.44 46.343C1044.45 46.3058 1042.48 46.2778 1040.5 46.2499C1039.03 45.75 1037.57 45.2538 1036.1 44.7566C1035.22 44.4574 1034.34 44.1578 1033.45 43.8568C1031.76 43.2795 1030.06 42.7022 1028.37 42.1249C1026.68 41.5476 1024.99 40.9703 1023.29 40.393L1032.13 40.5327H1032.13C1032.26 40.5327 1032.41 40.5327 1032.54 40.542C1034.08 40.5652 1035.62 40.5908 1037.16 40.6165C1038.7 40.6421 1040.24 40.6677 1041.78 40.6909C1045.51 41.9476 1049.24 43.2136 1052.96 44.4796L1052.97 44.4807Z" fill="white"/>
<path d="M1052.97 44.4807C1052.97 44.8055 1052.96 45.1302 1052.96 45.4561C1052.96 45.7843 1052.96 46.1137 1052.96 46.4454V47.0972V47.1065C1052.96 48.2332 1052.96 49.3599 1052.95 50.4959L1052.94 50.4935C1052.32 50.2801 1051.7 50.0668 1051.07 49.8534C1050.3 49.588 1049.52 49.325 1048.75 49.0619C1047.97 48.7989 1047.2 48.5359 1046.43 48.2705C1046.44 47.628 1046.44 46.9855 1046.44 46.343C1044.45 46.3058 1042.48 46.2778 1040.5 46.2499C1039.03 45.75 1037.57 45.2538 1036.1 44.7566C1035.22 44.4574 1034.34 44.1578 1033.45 43.8568C1031.76 43.2795 1030.06 42.7022 1028.37 42.1249C1026.68 41.5476 1024.99 40.9703 1023.29 40.393L1032.13 40.5327H1032.13C1032.26 40.5327 1032.41 40.5327 1032.54 40.542C1034.08 40.5652 1035.62 40.5908 1037.16 40.6165C1038.7 40.6421 1040.24 40.6677 1041.78 40.6909C1045.51 41.9476 1049.24 43.2136 1052.96 44.4796L1052.97 44.4807Z" stroke="white"/>
<path d="M924.715 0.782166C925.915 1.19125 927.114 1.60034 928.313 2.00932C932.518 3.44354 936.719 4.87651 940.926 6.30384C936.723 6.32246 932.521 6.33876 928.318 6.35506C924.115 6.37136 919.912 6.38766 915.71 6.40628L915.607 6.40663C910.114 6.42514 904.61 6.44368 899.106 6.47144C893.551 6.49472 887.994 6.51567 882.436 6.53663C876.879 6.55758 871.322 6.57854 865.767 6.60181C853.557 6.64837 841.357 6.69493 829.147 6.7508C822.742 6.77408 816.337 6.79969 809.932 6.82529C803.527 6.8509 797.122 6.87651 790.717 6.89979C790.363 6.89979 790.006 6.90211 789.649 6.90443C789.292 6.90676 788.935 6.90908 788.58 6.90908L775.989 1.37808C777.264 1.37808 778.54 1.36878 779.804 1.35947C786.117 1.33619 792.429 1.31058 798.741 1.28498C805.053 1.25937 811.366 1.23376 817.678 1.21048C823.965 1.18726 830.251 1.16172 836.539 1.13617C842.857 1.1105 849.176 1.08483 855.497 1.0615C861.047 1.03822 866.596 1.01727 872.145 0.996325C877.694 0.975378 883.243 0.954431 888.792 0.931152L910.509 0.847352C915.23 0.819418 919.972 0.800788 924.715 0.782166Z" fill="white"/>
<path d="M924.715 0.782166C925.915 1.19125 927.114 1.60034 928.313 2.00932C932.518 3.44354 936.719 4.87651 940.926 6.30384C936.723 6.32246 932.521 6.33876 928.318 6.35506C924.115 6.37136 919.912 6.38766 915.71 6.40628L915.607 6.40663C910.114 6.42514 904.61 6.44368 899.106 6.47144C893.551 6.49472 887.994 6.51567 882.436 6.53663C876.879 6.55758 871.322 6.57854 865.767 6.60181C853.557 6.64837 841.357 6.69493 829.147 6.7508C822.742 6.77408 816.337 6.79969 809.932 6.82529C803.527 6.8509 797.122 6.87651 790.717 6.89979C790.363 6.89979 790.006 6.90211 789.649 6.90443C789.292 6.90676 788.935 6.90908 788.58 6.90908L775.989 1.37808C777.264 1.37808 778.54 1.36878 779.804 1.35947C786.117 1.33619 792.429 1.31058 798.741 1.28498C805.053 1.25937 811.366 1.23376 817.678 1.21048C823.965 1.18726 830.251 1.16172 836.539 1.13617C842.857 1.1105 849.176 1.08483 855.497 1.0615C861.047 1.03822 866.596 1.01727 872.145 0.996325C877.694 0.975378 883.243 0.954431 888.792 0.931152L910.509 0.847352C915.23 0.819418 919.972 0.800788 924.715 0.782166Z" stroke="white"/>
<path d="M887.005 43.8382L881.968 43.7544C881.03 43.7405 880.09 43.7242 879.15 43.7079C878.209 43.6916 877.269 43.6753 876.331 43.6613C876.321 43.7545 876.307 43.8453 876.293 43.9361C876.28 44.0269 876.266 44.1176 876.255 44.2107C876.226 44.4033 876.2 44.5958 876.174 44.7898C876.151 44.9616 876.128 45.1345 876.103 45.3095C872.941 43.9314 869.779 42.5533 866.618 41.1659C864.117 40.0676 861.618 38.9716 859.12 37.8757C856.62 36.7788 854.119 35.6819 851.616 34.5827C848.641 33.2749 845.663 31.9671 842.685 30.6594C839.705 29.3506 836.725 28.0419 833.748 26.7331C823.5 22.2357 813.252 17.7383 802.993 13.2316C796.94 10.5716 790.887 7.91588 784.831 5.25869C781.877 3.96262 778.923 2.66621 775.967 1.36879C777.24 1.36879 778.513 1.3595 779.786 1.35021L779.793 1.35015C783.22 1.33163 786.658 1.32234 790.085 1.31308L790.14 1.31293C792.2 2.21613 794.263 3.12166 796.326 4.02719C798.39 4.93273 800.453 5.83827 802.513 6.74148C807.577 8.96692 812.644 11.19 817.711 13.4131C822.778 15.6362 827.844 17.8593 832.908 20.0848C834.062 20.5917 835.215 21.0986 836.368 21.6055C841.972 24.0685 847.57 26.5292 853.175 28.9772C854.14 29.4003 855.105 29.8234 856.07 30.2466C859.883 31.9189 863.699 33.5923 867.501 35.2717C869.709 36.2414 871.915 37.2111 874.121 38.1804C878.418 40.0687 882.711 41.9555 887.005 43.8382Z" fill="white"/>
<path d="M887.005 43.8382L881.968 43.7544C881.03 43.7405 880.09 43.7242 879.15 43.7079C878.209 43.6916 877.269 43.6753 876.331 43.6613C876.321 43.7545 876.307 43.8453 876.293 43.9361C876.28 44.0269 876.266 44.1176 876.255 44.2107C876.226 44.4033 876.2 44.5958 876.174 44.7898C876.151 44.9616 876.128 45.1345 876.103 45.3095C872.941 43.9314 869.779 42.5533 866.618 41.1659C864.117 40.0676 861.618 38.9716 859.12 37.8757C856.62 36.7788 854.119 35.6819 851.616 34.5827C848.641 33.2749 845.663 31.9671 842.685 30.6594C839.705 29.3506 836.725 28.0419 833.748 26.7331C823.5 22.2357 813.252 17.7383 802.993 13.2316C796.94 10.5716 790.887 7.91588 784.831 5.25869C781.877 3.96262 778.923 2.66621 775.967 1.36879C777.24 1.36879 778.513 1.3595 779.786 1.35021L779.793 1.35015C783.22 1.33163 786.658 1.32234 790.085 1.31308L790.14 1.31293C792.2 2.21613 794.263 3.12166 796.326 4.02719C798.39 4.93273 800.453 5.83827 802.513 6.74148C807.577 8.96692 812.644 11.19 817.711 13.4131C822.778 15.6362 827.844 17.8593 832.908 20.0848C834.062 20.5917 835.215 21.0986 836.368 21.6055C841.972 24.0685 847.57 26.5292 853.175 28.9772C854.14 29.4003 855.105 29.8234 856.07 30.2466C859.883 31.9189 863.699 33.5923 867.501 35.2717C869.709 36.2414 871.915 37.2111 874.121 38.1804C878.418 40.0687 882.711 41.9555 887.005 43.8382Z" stroke="white"/>
<path d="M1050.41 40.542C1051.92 41.0262 1052.64 42.6371 1052.19 43.9034C1051.8 45.0394 1050.45 45.9147 1049.05 45.9147C1048.74 45.9147 1048.42 45.8682 1048.1 45.775L1048.04 45.7545C1037.69 42.4931 1027.35 39.2316 1016.99 35.9701C1006.03 32.5156 995.066 29.061 984.11 25.6158C979.094 24.0373 974.081 22.4565 969.068 20.8757C964.057 19.2952 959.045 17.7148 954.031 16.1367L953.989 16.1234C942.839 12.6081 931.689 9.09282 920.529 5.57755C915.525 4.00392 910.521 2.43028 905.549 0.856645H907.261C907.795 0.851989 908.332 0.849664 908.869 0.847338C909.406 0.845013 909.943 0.842688 910.477 0.838032L924.17 0.782166C925.865 1.31292 927.558 1.846 929.25 2.37907C930.943 2.91215 932.636 3.44523 934.331 3.97598C939.82 5.70321 945.309 7.43277 950.798 9.16233C956.287 10.892 961.777 12.6216 967.266 14.3489C972.226 15.913 977.182 17.4747 982.139 19.0364C987.098 20.5987 992.056 22.1609 997.018 23.7255C1002.61 25.4854 1008.2 27.2476 1013.8 29.0098C1019.39 30.772 1024.98 32.5342 1030.57 34.294C1033.81 35.3136 1037.04 36.3332 1040.28 37.3528C1043.51 38.3724 1046.75 39.392 1049.98 40.4116C1050.14 40.4674 1050.27 40.5046 1050.4 40.5418L1050.41 40.542Z" fill="white"/>
<path d="M1050.41 40.542C1051.92 41.0262 1052.64 42.6371 1052.19 43.9034C1051.8 45.0394 1050.45 45.9147 1049.05 45.9147C1048.74 45.9147 1048.42 45.8682 1048.1 45.775L1048.04 45.7545C1037.69 42.4931 1027.35 39.2316 1016.99 35.9701C1006.03 32.5156 995.066 29.061 984.11 25.6158C979.094 24.0373 974.081 22.4565 969.068 20.8757C964.057 19.2952 959.045 17.7148 954.031 16.1367L953.989 16.1234C942.839 12.6081 931.689 9.09282 920.529 5.57755C915.525 4.00392 910.521 2.43028 905.549 0.856645H907.261C907.795 0.851989 908.332 0.849664 908.869 0.847338C909.406 0.845013 909.943 0.842688 910.477 0.838032L924.17 0.782166C925.865 1.31292 927.558 1.846 929.25 2.37907C930.943 2.91215 932.636 3.44523 934.331 3.97598C939.82 5.70321 945.309 7.43277 950.798 9.16233C956.287 10.892 961.777 12.6216 967.266 14.3489C972.226 15.913 977.182 17.4747 982.139 19.0364C987.098 20.5987 992.056 22.1609 997.018 23.7255C1002.61 25.4854 1008.2 27.2476 1013.8 29.0098C1019.39 30.772 1024.98 32.5342 1030.57 34.294C1033.81 35.3136 1037.04 36.3332 1040.28 37.3528C1043.51 38.3724 1046.75 39.392 1049.98 40.4116C1050.14 40.4674 1050.27 40.5046 1050.4 40.5418L1050.41 40.542Z" stroke="white"/>
<path d="M779.794 1.35946C781.778 1.35015 783.762 1.34085 785.757 1.34085C785.223 9.1997 784.089 17.012 782.367 24.666C774.048 58.5875 742.999 84.6689 707.458 99.4461C663.948 116.626 614.366 116.607 567.323 115.788C546.291 114.83 525.229 114.347 504.168 113.864C472.575 113.138 440.983 112.413 409.493 110.089C313.359 105.182 268.562 69.3423 269.009 0.0465458C270.063 0.0372702 271.116 0.0303074 272.168 0.0233535C273.228 0.0163459 274.287 0.00934728 275.343 0L275.67 0C273.599 102.286 376.722 104.959 470.927 107.37C489.981 107.445 509.174 108.209 528.403 108.975C578.662 110.976 629.173 112.987 678.132 102.724C716.191 93.8127 752.441 72.2754 769.132 41.1286C775.662 28.5582 778.431 15.038 779.216 1.35946H779.794Z" fill="white"/>
<path d="M779.794 1.35946C781.778 1.35015 783.762 1.34085 785.757 1.34085C785.223 9.1997 784.089 17.012 782.367 24.666C774.048 58.5875 742.999 84.6689 707.458 99.4461C663.948 116.626 614.366 116.607 567.323 115.788C546.291 114.83 525.229 114.347 504.168 113.864C472.575 113.138 440.983 112.413 409.493 110.089C313.359 105.182 268.562 69.3423 269.009 0.0465458C270.063 0.0372702 271.116 0.0303074 272.168 0.0233535C273.228 0.0163459 274.287 0.00934728 275.343 0L275.67 0C273.599 102.286 376.722 104.959 470.927 107.37C489.981 107.445 509.174 108.209 528.403 108.975C578.662 110.976 629.173 112.987 678.132 102.724C716.191 93.8127 752.441 72.2754 769.132 41.1286C775.662 28.5582 778.431 15.038 779.216 1.35946H779.794Z" stroke="white"/>
</svg>
