<svg width="207" height="318" viewBox="0 0 207 318" fill="none" xmlns="http://www.w3.org/2000/svg">
<path d="M102.817 301.368C102.474 302.625 101.281 303.323 100.207 303.03C99.1339 302.737 98.4609 301.529 98.8039 300.273C99.1469 299.016 100.34 298.318 101.414 298.611C102.487 298.904 103.16 300.112 102.817 301.368Z" fill="white" stroke="white"/>
<path d="M98.9536 307.622C102.678 308.638 106.528 306.418 107.554 302.662C108.579 298.905 106.392 295.036 102.667 294.019C98.9433 293.003 95.0929 295.223 94.0674 298.979C93.0418 302.735 95.2295 306.605 98.9536 307.622Z" fill="white" stroke="white" stroke-width="3" stroke-miterlimit="10" stroke-linecap="round"/>
<path d="M37.6812 283.584C37.3382 284.84 36.1448 285.538 35.0715 285.245C33.9982 284.952 33.3251 283.745 33.6681 282.488C34.0112 281.232 35.2045 280.534 36.2779 280.827C37.3512 281.12 38.0242 282.328 37.6812 283.584Z" fill="white" stroke="white"/>
<path d="M33.8177 289.837C37.5418 290.854 41.3922 288.633 42.4178 284.877C43.4433 281.121 41.2557 277.252 37.5315 276.235C33.8074 275.218 29.957 277.439 28.9314 281.195C27.9059 284.951 30.0935 288.82 33.8177 289.837Z" fill="white" stroke="white" stroke-width="3" stroke-miterlimit="10" stroke-linecap="round"/>
<path d="M115.234 273.66C130.292 277.772 131.688 277.635 141.614 279.93C142.531 280.139 143.266 280.941 143.701 281.775C144.323 282.992 143.851 284.947 143.29 285.788C142.503 286.963 138.821 289.627 132.355 289.655C130.072 289.664 126.216 289.627 124.209 289.079C112.787 285.96 78.455 276.773 78.455 276.773L57.5749 270.595L44.0562 266.386C44.0562 266.386 30.5252 262.412 24.0165 259.712C18.6162 257.47 12.8968 254.727 10.1829 249.518C9.56319 248.333 9.11805 246.926 9.5508 245.645C10.0538 244.145 11.667 243.248 13.2317 243.136C14.7964 243.024 16.3328 243.547 17.7833 244.12C21.798 245.703 24.8777 247.56 28.9469 248.982C35.354 251.218 42.1086 253.093 49.0254 254.982" fill="white"/>
<path d="M115.234 273.66C130.292 277.772 131.688 277.635 141.614 279.93C142.531 280.139 143.266 280.941 143.701 281.775C144.323 282.992 143.851 284.947 143.29 285.788C142.503 286.963 138.821 289.627 132.355 289.655C130.072 289.664 126.216 289.627 124.209 289.079C112.787 285.96 78.455 276.773 78.455 276.773L57.5749 270.595L44.0562 266.386C44.0562 266.386 30.5252 262.412 24.0165 259.712C18.6162 257.47 12.8968 254.727 10.1829 249.518C9.56319 248.333 9.11805 246.926 9.5508 245.645C10.0538 244.145 11.667 243.248 13.2317 243.136C14.7964 243.024 16.3328 243.547 17.7833 244.12C21.798 245.703 24.8777 247.56 28.9469 248.982C35.354 251.218 42.1086 253.093 49.0254 254.982" stroke="white" stroke-width="3" stroke-miterlimit="10" stroke-linecap="round" stroke-linejoin="round"/>
<path d="M9.59741 248.094C12.4662 257.595 17.8016 262.732 23.7453 266.324C25.7832 267.554 28.0203 268.435 30.2566 269.242C34.1609 270.66 38.1169 271.927 42.0756 273.184C52.6598 276.561 63.2546 279.9 73.9627 282.823C83.7253 285.489 93.5626 287.843 103.294 290.625C110.997 292.821 118.916 295.367 126.871 294.325C129.088 294.029 131.264 293.462 133.415 292.836C137.245 291.716 141.758 289.195 143.421 285.534" fill="white"/>
<path d="M9.59741 248.094C12.4662 257.595 17.8016 262.732 23.7453 266.324C25.7832 267.554 28.0203 268.435 30.2566 269.242C34.1609 270.66 38.1169 271.927 42.0756 273.184C52.6598 276.561 63.2546 279.9 73.9627 282.823C83.7253 285.489 93.5626 287.843 103.294 290.625C110.997 292.821 118.916 295.367 126.871 294.325C129.088 294.029 131.264 293.462 133.415 292.836C137.245 291.716 141.758 289.195 143.421 285.534" stroke="white" stroke-width="3" stroke-miterlimit="10" stroke-linecap="round"/>
<path d="M48.0176 254.8C55.8809 256.222 63.1603 260.199 71.0921 261.142C68.6198 260.819 66.1764 260.276 63.8156 259.508" fill="white"/>
<path d="M48.0176 254.8C55.8809 256.222 63.1603 260.199 71.0921 261.142C68.6198 260.819 66.1764 260.276 63.8156 259.508" stroke="white" stroke-width="3" stroke-miterlimit="10" stroke-linecap="round"/>
<path d="M115.626 273.664C110.848 272.639 106.091 271.496 101.368 270.227L115.626 273.664Z" fill="white"/>
<path d="M115.626 273.664C110.848 272.639 106.091 271.496 101.368 270.227" stroke="white" stroke-width="3" stroke-miterlimit="10" stroke-linecap="round"/>
<path d="M94.9109 268.516C90.147 267.588 85.5007 266.154 80.8615 264.732C78.9383 264.144 77.0177 263.547 75.0638 263.035C75.1234 263.082 75.1857 263.12 75.2453 263.167" fill="white"/>
<path d="M94.9109 268.516C90.147 267.588 85.5007 266.154 80.8615 264.732C78.9383 264.144 77.0177 263.547 75.0638 263.035C75.1234 263.082 75.1857 263.12 75.2453 263.167" stroke="white" stroke-width="3" stroke-miterlimit="10" stroke-linecap="round"/>
<path d="M111.561 292.996C109.875 294.121 108.179 295.245 106.486 296.358L111.561 292.996Z" fill="white"/>
<path d="M111.561 292.996C109.875 294.121 108.179 295.245 106.486 296.358" stroke="white" stroke-width="3" stroke-miterlimit="10" stroke-linecap="round"/>
<path d="M94.6545 288.4C95.8466 291.058 96.4505 292.301 97.4901 294.378L94.6545 288.4Z" fill="white"/>
<path d="M94.6545 288.4C95.8466 291.058 96.4505 292.301 97.4901 294.378" stroke="white" stroke-width="3" stroke-miterlimit="10" stroke-linecap="round"/>
<path d="M46.9174 275.118C45.1752 276.259 43.4427 277.403 41.6909 278.542L46.9174 275.118Z" fill="white"/>
<path d="M46.9174 275.118C45.1752 276.259 43.4427 277.403 41.6909 278.542" stroke="white" stroke-width="3" stroke-miterlimit="10" stroke-linecap="round"/>
<path d="M29.8293 269.478C31.1037 272.593 31.7391 274.063 32.8584 276.493L29.8293 269.478Z" fill="white"/>
<path d="M29.8293 269.478C31.1037 272.593 31.7391 274.063 32.8584 276.493" stroke="white" stroke-width="3" stroke-miterlimit="10" stroke-linecap="round"/>
<rect x="74.8975" y="219.857" width="8.26348" height="47.5861" transform="rotate(15.7746 74.8975 219.857)" fill="black"/>
<rect x="106.111" y="222.008" width="8.98638" height="48.2965" transform="rotate(13.4838 106.111 222.008)" fill="black"/>
<path d="M68.8337 119.979C68.8434 119.981 68.8629 119.986 68.8727 119.988C68.7775 119.956 68.6748 119.912 68.5961 119.852L68.6036 119.864C68.6403 119.883 68.6748 119.912 68.7115 119.93C68.7602 119.942 68.797 119.96 68.8337 119.979ZM150.015 52.0064C150.049 51.9936 150.092 51.9831 150.136 51.9727C150.116 43.9729 149.077 35.8508 145.513 28.6642C142.39 23.3449 136.73 20.0772 130.992 18.2592C116.153 13.7641 106.909 27.5265 101.121 39.2959C102.427 39.6387 103.736 39.9718 105.042 40.3146C108.761 41.2763 112.468 42.2455 116.187 43.2072C118.454 43.7923 120.718 44.3872 122.985 44.9723C123.604 45.1358 124.225 45.2896 124.844 45.4531C124.844 45.4531 124.854 45.4554 124.864 45.4576C125.483 45.6211 126.104 45.7749 126.723 45.9385C126.879 45.9745 127.023 46.018 127.179 46.054C130.849 47.0044 134.527 47.9669 138.197 48.9173C141.789 49.8497 145.391 50.7844 148.984 51.7168C149.328 51.8271 149.676 51.9178 150.015 52.0064ZM164.44 207.893C165.534 205.867 165.558 203.409 165.399 201.166C164.673 195.6 162.071 190.647 159.568 185.666C159.163 184.751 159.396 185.431 158.918 184.346C157.962 182.4 157.048 180.445 156.292 178.433C156.147 178.081 156.012 177.732 155.877 177.383C155.834 177.26 155.778 177.144 155.735 177.021C155.649 176.817 155.572 176.614 155.489 176.4C155.476 176.366 155.461 176.342 155.448 176.308C155.331 176.015 155.217 175.711 155.1 175.417C152.575 168.84 150.483 162.035 150.114 154.97C149.91 150.654 150.577 146.302 149.958 142.003C149.964 142.024 149.969 142.046 149.974 142.068C149.636 140.82 151.668 140.335 151.843 141.709C152.621 147.226 151.492 152.825 152.331 158.346C153.106 163.698 154.648 168.888 156.568 173.95C157.796 172.766 159.078 171.656 160.482 170.687C162.696 169.012 166.393 166.828 168.792 167.28C167.85 164.651 165.658 162.276 163.712 158.748C160.904 152.598 158.303 146.178 157.244 139.477C155.108 122.152 153.301 104.739 150.931 87.4519C149.969 80.3739 149.417 73.257 149.522 66.1379C148.271 67.4194 146.848 68.5171 145.257 69.3608C144.779 69.6095 144.285 69.8343 143.9 69.9916C142.725 70.4591 141.501 70.7818 140.247 70.9232C138.814 71.0848 137.378 70.9893 135.985 70.6675C135.595 70.5774 135.21 70.4679 134.837 70.3509C132.604 69.6197 130.626 68.2289 129.021 66.5136C128.156 65.5952 127.409 64.5607 126.781 63.461C126.743 63.4011 126.708 63.3313 126.671 63.2714C126.531 63.075 126.423 62.8344 126.327 62.6275C126.156 62.3006 125.997 61.9663 125.85 61.6245C125.335 60.4791 124.945 59.2805 124.649 58.1142C124.069 55.7837 123.854 53.3837 123.978 50.98C123.861 50.953 123.756 50.9185 123.639 50.8915C123.417 50.83 123.183 50.7759 122.962 50.7144C121.82 53.0782 120.317 55.2763 118.485 57.1625C117.219 58.4709 115.772 59.6248 114.204 60.5457C112.553 61.519 110.736 62.1871 108.845 62.5098C107.253 62.7785 105.613 62.728 104.044 62.3656C103.683 62.2823 103.327 62.1796 102.974 62.0671C101.151 61.4716 99.5014 60.3926 98.1668 59.017C96.5579 57.3624 95.4273 55.3257 94.721 53.1407C91.2055 61.073 87.8564 69.0847 84.2479 76.975C79.9048 85.6912 73.6626 93.2091 68.014 101.09C60.6775 111.701 53.2616 122.479 43.5631 131.097C38.3064 135.815 33.3772 140.803 29.7879 146.923C29.2255 147.891 28.7906 148.93 28.4605 150.003C28.456 150.022 28.4538 150.032 28.459 150.054C28.5437 150.043 28.6164 150.039 28.7011 150.028C29.2341 149.986 29.7887 150.074 30.3006 150.212C31.2832 150.491 32.1847 150.986 33.0173 151.558C34.4 152.504 35.6148 153.688 36.6864 154.869C38.5822 156.97 40.2202 159.298 41.6828 161.719C43.293 164.39 44.6895 167.186 45.8596 170.074C46.223 170.989 46.5743 171.912 46.9039 172.84C51.9176 158.51 57.9423 144.558 64.3387 130.774C65.8776 126.912 67.7192 123.027 68.2193 118.862C68.3611 118.115 69.3963 117.81 69.8901 118.427C70.8257 120.952 67.0734 128.933 66.0174 131.727C59.2911 146.184 53.0106 160.887 47.8626 175.976C47.7636 176.271 47.6646 176.567 47.5656 176.862C47.4711 177.138 47.3766 177.413 47.2821 177.689C47.0796 178.299 46.8749 178.919 46.6724 179.529C45.8121 182.143 44.9983 184.777 44.2137 187.418C44.1567 187.621 44.0922 187.811 44.0352 188.013C43.9895 188.167 43.9437 188.321 43.898 188.474C43.8177 188.733 43.7449 189.003 43.6744 189.264C42.3978 193.68 41.2381 198.123 40.2103 202.617C38.637 209.828 37.0764 217.073 36.425 224.425C35.9825 229.095 35.7248 235.809 41.3947 237.211C45.3295 238.038 49.0222 235.781 52.0201 233.467C55.2743 230.975 58.5211 228.472 61.9844 226.275C65.4912 223.934 69.2647 222.127 73.2015 220.768C73.395 220.597 73.6431 220.501 73.9151 220.522C78.8272 218.896 83.9767 217.93 89.144 217.42C91.3005 217.149 93.4547 216.887 95.6022 216.654C95.9702 216.616 96.3382 216.578 96.7062 216.54C96.7475 216.539 96.791 216.529 96.8322 216.528C96.8734 216.527 96.9169 216.517 96.9581 216.516C97.2729 216.486 97.578 216.454 97.895 216.414C97.9385 216.404 97.9797 216.403 98.0232 216.392C98.0862 216.386 98.1514 216.371 98.2046 216.362C99.0486 216.219 99.8641 215.976 100.606 215.521C105.468 212.375 105.037 205.532 103.62 200.607C101.096 192.737 99.3147 184.587 99.3449 176.281C99.4336 157.324 105.204 138.962 110.901 121.055C111.271 119.939 113.136 120.442 112.715 121.689C111.089 126.64 109.538 131.619 108.085 136.62C103.766 152.342 99.692 168.735 101.908 185.135C102.537 192.054 105.63 198.434 106.457 205.296C106.879 211.202 104.879 215.995 100.135 217.824C101.574 218.793 103.136 219.585 104.844 220.144C106.96 220.889 109.167 221.245 111.374 221.601C113.697 221.983 116.032 222.359 118.252 223.19C121.387 224.191 124.259 225.891 127.391 226.902C131.519 228.317 132.287 223.968 132.754 220.925C133.125 216.3 131.871 211.731 131.684 207.12C131.628 206.338 131.583 205.558 131.549 204.77C131.542 204.491 131.522 204.22 131.515 203.941C131.51 203.786 131.507 203.621 131.502 203.466C131.48 202.937 131.468 202.411 131.458 201.875C131.43 200.575 131.4 199.285 131.36 197.993C131.162 193.74 130.486 189.601 129.868 185.435C128.899 177.853 124.504 149.517 128.17 144.4C128.634 144.169 129.232 144.379 129.451 144.85C129.615 145.165 129.538 145.496 129.417 145.797C129.236 146.494 129.107 147.183 128.994 147.895C128.75 149.707 128.688 151.53 128.668 153.352C128.854 163.874 130.234 174.384 131.702 184.781C132.283 188.795 132.95 192.798 133.214 196.851C133.315 199.215 133.35 201.594 133.441 203.955C133.92 204.414 134.411 204.866 134.904 205.309C136.955 207.271 139.133 209.128 141.822 210.15C144.043 211.155 146.413 211.734 148.821 212.064C149.074 212.123 149.32 212.169 149.573 212.228C149.632 212.241 149.69 212.255 149.749 212.268C149.875 212.297 150.004 212.317 150.121 212.344C150.238 212.371 150.367 212.39 150.484 212.417C150.571 212.438 150.671 212.451 150.769 212.473C150.817 212.484 150.866 212.496 150.917 212.497C150.995 212.515 151.075 212.523 151.153 212.541C151.311 212.568 151.467 212.604 151.616 212.628C151.693 212.646 151.774 212.654 151.852 212.672C151.961 212.687 152.07 212.702 152.178 212.727C152.246 212.742 152.307 212.746 152.377 212.752C152.435 212.766 152.496 212.769 152.557 212.773C152.637 212.781 152.705 212.797 152.786 212.806C153.962 212.954 155.144 212.991 156.345 212.858C159.489 212.353 162.752 210.715 164.44 207.893ZM167.205 205.432C166.628 210.861 161.101 214.306 156.038 214.809C153.923 214.946 151.832 214.669 149.746 214.279C148.981 214.657 148.224 215.046 147.512 215.508C141.251 220.22 140.235 228.35 138.904 235.534C137.763 240.474 134.51 245.316 129.527 246.936C123.794 248.65 117.433 248.464 111.758 246.64C111.301 246.442 110.759 246.255 110.195 246.032C109.425 249.231 108.665 252.432 107.893 255.641C107.167 258.696 106.429 261.758 105.702 264.813C105.344 266.321 104.987 267.819 104.629 269.327C104.619 269.325 104.6 269.32 104.58 269.316C103.973 269.145 103.355 269.064 102.742 268.963C103.07 267.633 103.379 266.298 103.697 264.965C104.369 262.144 105.039 259.333 105.721 256.514C106.542 253.091 107.366 249.659 108.178 246.233C108.252 245.912 108.326 245.59 108.412 245.261C108.568 244.589 108.733 243.919 108.898 243.249C109.532 240.593 110.166 237.938 110.799 235.283C111.7 231.519 112.6 227.755 113.5 223.991C113.505 223.971 113.509 223.952 113.514 223.932C111.393 223.514 109.238 223.293 107.126 222.837C106.932 222.792 106.746 222.749 106.554 222.694C106.185 224.292 105.833 225.904 105.473 227.504C105.065 229.319 104.656 231.133 104.247 232.948L104.245 232.958C103.959 234.236 103.677 235.505 103.382 236.782C102.856 239.103 102.337 241.436 101.812 243.757C101.037 247.201 100.264 250.635 99.491 254.069C98.8218 257.055 98.1503 260.051 97.4811 263.037C97.1308 264.598 96.7781 266.169 96.4255 267.74C96.3573 267.724 96.2772 267.716 96.209 267.7C95.7225 267.629 95.2338 267.568 94.7474 267.496C94.7107 267.478 94.6642 267.457 94.6177 267.436C94.5908 267.419 94.5638 267.402 94.5368 267.386C94.8759 265.874 95.215 264.361 95.5519 262.858C96.2234 259.863 96.8948 256.867 97.564 253.881C98.3368 250.447 99.1073 247.022 99.88 243.588C100.188 242.212 100.493 240.846 100.801 239.47C97.1848 243.037 93.121 246.101 88.2682 247.649C84.557 248.742 79.9382 249.409 76.6183 247.031C76.1502 248.924 75.6941 250.81 75.226 252.703C74.5591 255.412 73.9019 258.124 73.2328 260.843C73.0002 261.806 72.7579 262.766 72.5276 263.718C72.1454 263.64 71.7533 263.56 71.3711 263.482C71.1253 263.435 70.8892 263.391 70.6411 263.354C70.8174 262.636 70.9959 261.907 71.1722 261.188C71.8144 258.586 72.449 255.972 73.0912 253.37C73.9389 249.922 74.7866 246.474 75.6223 243.034C76.4925 239.489 77.3627 235.944 78.2307 232.409C79.1639 228.591 80.1091 224.765 81.0424 220.947C81.0671 220.84 81.0919 220.733 81.1166 220.626C78.9219 221.063 76.7556 221.599 74.6118 222.305C73.8677 225.171 73.1505 228.054 72.4161 230.922C71.6435 233.956 70.8686 236.999 70.0959 240.033C70.0576 240.199 70.0074 240.372 69.9691 240.538C69.9008 240.789 69.8423 241.042 69.7718 241.303C68.9834 244.405 68.195 247.507 67.3968 250.607C66.6017 253.739 65.8087 256.86 65.0061 259.98C64.7953 260.803 64.5868 261.617 64.376 262.441C64.2493 262.412 64.1106 262.39 63.984 262.361C63.5725 262.276 63.1707 262.193 62.7645 262.13C62.6746 262.12 62.5771 262.097 62.4872 262.087C62.6552 261.448 62.8113 260.817 62.9793 260.179C63.8 256.981 64.6109 253.782 65.4241 250.572C66.2125 247.47 66.9987 244.378 67.7968 241.278C67.0638 240.985 66.4223 240.519 65.8498 239.976C65.2158 239.389 64.6651 238.707 64.1698 238.008C63.3485 236.853 62.6975 235.584 62.1573 234.279C61.7693 233.338 61.4629 232.353 61.263 231.353C61.1245 230.664 61.0317 229.955 61.0214 229.244C59.6001 230.199 58.2184 231.204 56.8541 232.223C52.1583 235.757 46.8363 240.757 40.4709 238.989C35.3272 237.442 34.0331 232.247 34.3032 227.434C34.8767 216.421 37.4401 205.59 40.1279 194.931C40.677 192.821 41.2434 190.725 41.851 188.628C41.4028 188.391 40.9734 188.117 40.5559 187.836C39.4603 187.069 38.4613 186.151 37.5344 185.188C36.3032 183.898 35.1867 182.511 34.1564 181.062C33.0639 179.526 32.0576 177.929 31.133 176.289C29.4817 173.352 28.0657 170.284 26.9316 167.108C26.4155 165.654 25.9593 164.163 25.5976 162.663C25.2075 161.064 24.9065 159.435 24.7944 157.787C24.6726 156.138 24.7314 154.417 25.2999 152.844C25.5864 152.048 28.0423 146.304 28.4817 145.379C32.9641 137.793 39.7365 132.112 46.0721 126.144C53.8637 118.184 60.2149 109.039 66.5031 99.8995C72.1473 92.0381 78.418 84.4856 82.6907 75.7635C86.5353 67.2504 90.1379 58.63 93.9653 50.1027C93.8912 49.6237 93.8388 49.1395 93.794 48.6673C93.5503 45.6346 93.9347 42.5931 94.8092 39.6956C94.8273 39.6176 94.855 39.5419 94.8828 39.4662C94.9105 39.3905 94.9308 39.3028 94.9585 39.2271C95.002 39.0832 95.053 38.9513 95.0965 38.8074C95.2 38.4927 95.3133 38.1801 95.4265 37.8676C96.0456 38.0311 96.6744 38.1969 97.3055 38.3529C97.9343 38.5187 98.5729 38.6868 99.2039 38.8428C106.081 24.6669 116.841 10.0743 134.53 17.5164C138.915 19.4631 143.174 21.9967 145.991 25.9728C150.95 33.8304 152.059 43.1593 152.014 52.4168C152.601 52.5833 153.199 52.7521 153.796 52.9209C153.864 52.9366 153.93 52.9621 153.998 52.9779C154.374 53.0851 154.74 53.1901 155.115 53.2974C155.298 53.3499 155.481 53.4024 155.664 53.4549C155.568 54.0898 155.444 54.7178 155.298 55.3512C155.079 56.2963 154.805 57.2181 154.47 58.1362C153.753 60.1261 152.776 62.0454 151.548 63.7631C151.541 63.8845 151.533 64.0059 151.526 64.1274C151.034 72.3886 152.051 80.6494 153.044 88.833C155.302 105.273 157.022 121.732 159.018 138.194C159.965 145.248 162.712 152.061 165.715 158.43C167.398 161.498 169.954 164.162 171.026 167.519C171.206 168.607 171.12 170.712 171.12 170.712C171.12 170.712 171.166 171.533 171.076 171.79C170.964 172.143 171.021 171.941 170.604 173.21C169.556 176.416 167.441 179.305 164.875 181.575C164.246 182.076 162.688 183.841 161.296 184.895C164.495 191.35 168.254 198.048 167.205 205.432Z" fill="white"/>
<path d="M58.4243 268.035C58.6832 266.381 59.6343 263.019 61.3015 261.977C62.9807 260.928 65.7353 260.733 67.2463 260.856C68.9274 260.998 72.016 261.979 73.3755 262.847C75.0048 263.88 75.6362 265.812 75.869 267.559C76.1436 269.613 74.624 274.681 74.624 274.681C74.624 274.681 70.5579 273.845 68.7554 273.428C67.8882 273.228 67.0211 273.028 66.1539 272.828C65.0237 272.566 63.8934 272.305 62.7535 272.042C61.1848 271.68 58.0474 270.955 58.0474 270.955C58.0474 270.955 58.3087 268.757 58.4243 268.035Z" fill="white" stroke="black" stroke-miterlimit="10" stroke-linecap="round" stroke-linejoin="round"/>
<path d="M89.5285 274.45C89.7874 272.796 90.7386 269.434 92.4057 268.392C94.0849 267.343 96.8395 267.148 98.3505 267.271C100.032 267.413 103.12 268.394 104.48 269.262C106.109 270.295 106.74 272.227 106.973 273.974C107.248 276.029 105.728 281.097 105.728 281.097C105.728 281.097 101.662 280.26 99.8597 279.844C98.9925 279.643 98.1253 279.443 97.2582 279.243C96.1279 278.982 94.9977 278.721 93.8577 278.457C92.289 278.095 89.1516 277.37 89.1516 277.37C89.1516 277.37 89.4129 275.173 89.5285 274.45Z" fill="white" stroke="black" stroke-miterlimit="10" stroke-linecap="round" stroke-linejoin="round"/>
<path d="M143.585 63.0014L140.614 62.3149L139.882 65.4816L142.854 66.168L143.585 63.0014Z" fill="black" stroke="black" stroke-miterlimit="10" stroke-linecap="round" stroke-linejoin="round"/>
<path d="M147.708 60.259L144.737 59.5725L144.005 62.7391L146.977 63.4256L147.708 60.259Z" fill="black" stroke="black" stroke-miterlimit="10" stroke-linecap="round" stroke-linejoin="round"/>
<path d="M151.891 57.4791L148.92 56.7927L148.188 59.9593L151.16 60.6457L151.891 57.4791Z" fill="black" stroke="black" stroke-miterlimit="10" stroke-linecap="round" stroke-linejoin="round"/>
<path d="M138.088 60.8079L135.116 60.1214L134.385 63.288L137.357 63.9745L138.088 60.8079Z" fill="black" stroke="black" stroke-miterlimit="10" stroke-linecap="round" stroke-linejoin="round"/>
<path d="M142.32 58.0392L139.348 57.3528L138.616 60.5194L141.588 61.2059L142.32 58.0392Z" fill="black" stroke="black" stroke-miterlimit="10" stroke-linecap="round" stroke-linejoin="round"/>
<path d="M146.574 55.1732L143.602 54.4867L142.871 57.6533L145.842 58.3398L146.574 55.1732Z" fill="black" stroke="black" stroke-miterlimit="10" stroke-linecap="round" stroke-linejoin="round"/>
<path d="M110.57 54.862L107.598 54.1755L106.867 57.3421L109.839 58.0286L110.57 54.862Z" fill="black" stroke="black" stroke-miterlimit="10" stroke-linecap="round" stroke-linejoin="round"/>
<path d="M114.693 52.1195L111.721 51.4331L110.99 54.5997L113.962 55.2861L114.693 52.1195Z" fill="black" stroke="black" stroke-miterlimit="10" stroke-linecap="round" stroke-linejoin="round"/>
<path d="M118.876 49.3397L115.905 48.6532L115.173 51.8198L118.145 52.5063L118.876 49.3397Z" fill="black" stroke="black" stroke-miterlimit="10" stroke-linecap="round" stroke-linejoin="round"/>
<path d="M105.073 52.6684L102.101 51.982L101.37 55.1486L104.341 55.835L105.073 52.6684Z" fill="black" stroke="black" stroke-miterlimit="10" stroke-linecap="round" stroke-linejoin="round"/>
<path d="M109.305 49.8998L106.333 49.2133L105.601 52.38L108.573 53.0664L109.305 49.8998Z" fill="black" stroke="black" stroke-miterlimit="10" stroke-linecap="round" stroke-linejoin="round"/>
<path d="M113.559 47.0337L110.587 46.3473L109.855 49.5139L112.827 50.2004L113.559 47.0337Z" fill="black" stroke="black" stroke-miterlimit="10" stroke-linecap="round" stroke-linejoin="round"/>
</svg>
