<svg width="963" height="481" viewBox="0 0 963 481" fill="none" xmlns="http://www.w3.org/2000/svg">
<path d="M1542.54 387.332C1542.52 391.153 1542.5 394.974 1542.48 398.795C1527.1 398.814 1511.71 398.833 1496.33 398.852C1459.03 398.909 1421.73 398.947 1384.41 399.005C1313.56 399.1 1242.69 399.177 1171.85 399.272C1099.71 399.368 1027.57 399.463 955.432 399.559C886.724 399.654 817.997 399.75 749.269 399.826C678.345 399.922 607.44 400.017 536.516 400.113C465.361 400.208 394.186 400.304 323.031 400.38C264.034 400.457 205.017 400.552 146.02 400.61C77.9665 400.686 9.9133 400.781 -58.1399 400.877C-109.257 400.953 -160.374 401.011 -211.51 401.087C-241.567 401.125 -271.625 401.183 -301.663 401.202C-301.682 401.202 -301.702 401.202 -301.721 401.202C-301.952 401.202 -302.203 401.202 -302.434 401.202C-302.627 401.202 -302.819 401.202 -303.012 401.202C-304.341 401.202 -305.555 400.724 -306.538 399.96C-306.538 399.349 -306.519 398.737 -306.519 398.126C-306.48 395.719 -306.461 393.312 -306.422 390.905C-305.459 390.179 -304.245 389.739 -302.954 389.739C-274.149 389.739 -245.344 389.663 -216.52 389.625C-165.557 389.548 -114.594 389.491 -63.6311 389.415C4.15228 389.319 71.955 389.243 139.738 389.147C198.967 389.071 258.196 388.994 317.405 388.918C388.56 388.822 459.716 388.746 530.871 388.65C601.41 388.555 671.929 388.459 742.468 388.364C811.388 388.268 880.308 388.192 949.228 388.096C1021.44 388.001 1093.66 387.905 1165.89 387.81C1236.7 387.714 1307.51 387.619 1378.32 387.542C1416.87 387.485 1455.43 387.447 1493.96 387.39C1510.17 387.37 1526.35 387.351 1542.54 387.332Z" fill="white"/>
<path d="M4.07539 97.6211C2.74593 98.3088 1.43574 99.0157 0.106273 99.7035C-2.20584 100.907 -4.53722 102.13 -6.84933 103.314C-7.33102 99.6843 -7.75491 96.0355 -8.14026 92.3866C-4.34454 92.5204 -0.548816 92.635 3.2469 92.7496C3.32397 92.7496 3.40103 92.7496 3.4781 92.7496C3.65151 94.3734 3.86345 95.9973 4.07539 97.6211Z" fill="white"/>
<path d="M262.338 400.476C253.88 400.476 245.421 400.495 236.963 400.514C139.951 350.213 53.5161 279.586 12.1678 179.08C1.16598 150.902 -5.07671 121.845 -8.14026 92.3866C-4.34454 92.5204 -0.548816 92.635 3.2469 92.7496C3.32397 92.7496 3.40103 92.7496 3.4781 92.7496C9.75934 146.451 27.2929 198.643 60.1056 242.544C111.145 311.127 183.823 362.268 262.338 400.476Z" fill="white"/>
<path d="M4.05614 97.6211C4.07541 97.6975 4.07541 97.793 4.09468 97.8694C0.221893 97.8694 -3.67018 97.8504 -7.54297 97.8312C-7.5815 97.6211 -7.60076 97.411 -7.62003 97.2008C-7.8127 95.5961 -7.98612 93.9913 -8.14026 92.3675C-4.34454 92.5012 -0.548816 92.6158 3.2469 92.7305C3.32397 92.7305 3.40103 92.7305 3.4781 92.7305C3.65151 94.3734 3.86346 95.9972 4.05614 97.6211Z" fill="white"/>
<path d="M4.09451 97.8694C4.36426 100.009 4.67255 102.149 4.9808 104.269C-8.23676 103.849 -21.4543 103.429 -34.6912 103.008C-46.1939 102.645 -57.716 102.282 -69.2187 101.9C-85.0374 101.404 -100.875 100.907 -116.694 100.391C-137.291 99.7416 -157.869 99.0921 -178.447 98.4235C-200.316 97.7357 -222.184 97.0289 -244.034 96.3411C-266.692 95.6152 -289.351 94.9083 -312.029 94.1824C-313.031 94.1442 -314.033 94.106 -315.035 94.0869C-315.035 93.4374 -315.035 92.7878 -315.035 92.1383C-315.035 89.2727 -315.054 86.388 -315.073 83.5224C-315.073 83.2168 -315.073 82.9111 -315.073 82.6054C-296.018 83.2167 -276.962 83.8281 -257.926 84.4203C-235.556 85.1272 -213.186 85.834 -190.797 86.5408C-170.566 87.1903 -150.335 87.8399 -130.104 88.4703C-113.9 88.9861 -97.7155 89.5019 -81.5307 90.0177C-67.7159 90.4571 -53.9202 90.8965 -40.1054 91.3359C-25.6547 91.7944 -11.2039 92.2529 3.24673 92.7114C3.32382 92.7114 3.40088 92.7114 3.47794 92.7114C3.67062 94.3352 3.86328 95.959 4.07523 97.5638C4.07523 97.7166 4.07526 97.793 4.09451 97.8694Z" fill="white"/>
<path d="M170.201 11.4816C170.201 11.921 170.22 12.3413 170.239 12.7616C153.206 22.027 136.174 31.2924 119.141 40.5578C101.088 50.3772 83.0339 60.1966 64.9801 69.997C51.6662 77.2373 38.3716 84.4587 25.077 91.6991C16.7919 96.2076 8.48754 100.716 0.202465 105.244C-0.664577 105.721 -1.6087 105.931 -2.55282 105.931C-4.61445 105.931 -6.61827 104.862 -7.65872 102.989C-9.18086 100.258 -8.14039 96.7043 -5.38513 95.2142C5.28912 89.4066 15.9248 83.618 26.5991 77.8105C42.938 68.9271 59.2769 60.0438 75.6159 51.1605C93.8237 41.2456 112.032 31.3497 130.24 21.4538C143.38 14.309 156.501 7.1641 169.642 0.0192261C169.834 0.0192261 170.027 0.0192261 170.22 0.0192261C170.162 3.89733 170.143 7.71811 170.201 11.4816Z" fill="white"/>
<path d="M135.384 0.286709C147.002 0.191189 158.602 0.114746 170.22 0.0192261C170.143 3.91643 170.143 7.73722 170.201 11.4816C155.981 11.5962 141.781 11.6918 127.561 11.8064C103.997 11.9974 80.4136 12.1885 56.8301 12.3604C34.2292 12.5323 11.609 12.7234 -11.0112 12.8953C-33.9011 13.0673 -56.7717 13.2583 -79.6424 13.4302C-94.2087 13.5448 -108.775 13.6595 -123.341 13.7741C-123.129 13.6977 -122.937 13.6213 -122.725 13.5448C-119.584 12.3986 -116.443 11.2524 -113.322 10.1252C-105.943 7.43157 -98.5824 4.73791 -91.2029 2.06336C-84.729 2.00605 -78.2551 1.96787 -71.7812 1.91056C-49.0839 1.73862 -26.3867 1.54758 -3.68948 1.37565C19.1041 1.20371 41.9169 1.01267 64.7105 0.84074C88.2748 0.6497 111.839 0.458645 135.384 0.286709Z" fill="white"/>
<path d="M1061.15 2.78916C1064.66 2.77005 1068.17 2.75097 1071.69 2.75097C1070.75 18.8747 1068.75 34.9029 1065.7 50.6063C1051 120.202 996.126 173.712 933.313 204.03C856.416 239.277 768.787 239.239 685.647 237.557C592.72 232.648 499.465 233.813 406.71 225.866C236.809 215.798 157.638 142.267 158.428 0.0954964C162.166 0.0572885 165.904 0.0382079 169.623 0C169.815 0 170.008 0 170.201 0C166.54 209.857 348.792 215.34 515.283 220.287C636.977 220.841 761.851 239.869 881.483 210.755C948.747 192.472 1012.81 148.285 1042.31 84.382C1053.85 58.5917 1058.75 30.8528 1060.13 2.78916C1060.5 2.78916 1060.83 2.78916 1061.15 2.78916Z" fill="white"/>
</svg>
